<svg width="698" height="111" viewBox="0 0 698 111" fill="none" xmlns="http://www.w3.org/2000/svg">
<path d="M277.487 0.0268094C285.972 -0.236006 293.563 1.44601 301.47 4.52095C304.307 5.62478 307.118 6.99142 309.613 8.80485C312.529 10.9074 314.788 12.7996 317.388 16.3214C319.805 19.6066 321.88 23.102 323.456 26.8866C325.111 30.8288 326.241 34.955 327.134 39.16C327.843 42.5766 328.237 46.0195 328.579 49.4887C328.867 52.3271 329.078 55.1918 328.973 58.0302C328.867 61.6833 328.762 65.3627 328.211 68.9896C327.502 73.7466 326.083 78.2933 324.113 82.656C322.773 85.6258 321.381 88.5956 319.49 91.2764C313.658 99.4762 306.041 105.048 296.243 107.44C292.092 108.464 287.968 109.489 283.739 110.12C280.245 110.646 276.725 110.909 273.206 110.988C269.791 111.04 266.376 110.935 262.961 110.514C255.448 109.595 248.146 107.807 241.29 104.417C237.928 102.761 235.038 100.475 232.28 97.9256C228.314 94.2725 225.792 89.7257 223.874 84.7585C221.641 78.924 219.908 72.9581 218.936 66.782C218.516 64.1801 218.384 61.5256 218.174 58.8975C218.043 57.1103 217.964 55.2969 218.016 53.4835C218.095 50.7502 218.227 48.0169 218.437 45.3099C218.752 41.2363 219.54 37.2152 220.643 33.2993C222.613 26.3872 226.16 20.395 231.098 15.2438C234.355 11.8535 237.98 9.04138 242.262 7.14911C245.467 5.75619 248.75 4.23186 252.112 3.33828C255.186 2.52356 261.227 1.26204 265.903 0.736411C268.976 0.394751 272.076 0.237062 275.149 0.0268094C275.937 -0.0257537 276.699 0.0268094 277.487 0.0268094ZM234.539 17.2938C234.618 17.1361 234.434 17.1098 234.303 17.1887C234.119 17.3201 234.066 17.3726 233.909 17.504C231.492 19.8168 231.098 20.3424 229.023 22.9706C228.524 23.6014 228.051 24.311 227.631 25.0206C224.61 30.0929 222.955 35.6383 222.193 41.4991C221.957 43.3388 221.825 45.2048 221.72 47.0708C221.589 49.331 221.615 51.5912 221.536 53.8514C221.51 54.5085 221.668 55.5072 221.93 56.1116C222.666 57.7411 223.48 58.8186 224.689 60.1327C226.133 61.7096 228.918 63.3128 230.862 63.891C233.462 64.6794 237.717 65.2051 241.631 65.2576C245.703 65.3102 250.168 64.9948 255.291 63.8121C257.865 63.2339 260.649 62.209 263.092 61.2103C269.187 58.7135 275.044 55.77 280.771 52.5111C285.893 49.5938 291.094 46.2035 296.216 43.3125C299.132 41.6831 301.943 40.5267 305.226 39.6857C308.037 38.9761 310.874 38.5293 313.763 38.3453C315.681 38.2139 317.598 38.2402 319.49 37.9511C321.25 37.662 322.038 36.2954 321.67 34.7185C321.145 32.5371 320.829 30.6185 320.015 28.5423C319.49 27.2019 318.964 25.7564 318.36 24.4424C317.677 22.9969 316.889 21.604 315.865 19.9482C313.054 15.5066 309.928 13.0887 305.62 10.5394C303.125 9.06766 300.498 7.70102 297.714 6.80745C294.062 5.62478 290.28 4.8889 286.497 4.3107C283.66 3.8902 280.797 3.49597 277.934 3.52226C275.386 3.54854 272.812 3.67994 270.29 3.94276C267.243 4.23186 265.168 4.54724 262.462 5.09915C261.7 5.25684 261.149 5.46709 260.466 5.70362C260.15 5.80875 259.914 6.22926 260.466 6.36066C261.254 6.54463 261.858 6.83373 262.357 7.0177C262.908 7.22795 263.933 7.93756 264.668 8.43691C267.19 10.1715 269.502 12.8522 271.052 16.2425C272.155 18.6079 272.549 21.1046 272.733 23.6802C272.943 26.466 272.418 29.0154 271.682 31.6435C270.658 35.3229 268.451 39.1338 265.246 41.1837C257.576 46.0984 248.461 45.5465 240.817 40.6581C237.192 38.3979 234.408 35.0864 233.515 30.8025C232.464 25.6776 231.86 23.1283 234.014 18.3976C234.145 18.1348 234.513 17.3989 234.539 17.2938ZM285.341 81.1842C282.531 81.1054 279.72 81.0266 276.909 81.0003C274.703 80.974 272.496 81.0003 270.316 81.0265C266.691 81.0528 263.066 81.2631 259.467 81.7362C254.161 82.472 248.986 83.7598 244.048 85.8361C240.87 87.1764 237.796 88.7008 235.143 90.9873C234.408 91.618 234.119 92.4065 234.329 93.3526C234.592 94.6667 235.169 95.8231 236.01 96.848C238.427 99.6865 241.316 101.868 244.652 103.471C247.463 104.838 250.431 105.705 253.452 106.362C256.21 106.94 258.968 107.413 261.726 107.913C263.303 108.175 264.879 107.913 266.428 107.755C269.975 107.413 273.179 106.231 275.964 103.918C276.936 103.129 277.96 102.367 278.985 101.684C282.767 99.2134 286.917 97.4788 291.173 96.007C294.22 94.9558 297.95 94.0885 300.945 92.9058C308.51 90.8033 310.27 88.0437 314.893 85.0213C316.916 83.7073 318.938 82.3669 320.593 80.5798C321.013 80.133 321.355 79.5811 321.696 79.0817C321.854 78.8452 321.723 78.6875 321.46 78.7138C321.092 78.7663 320.724 78.7926 320.357 78.8977C316.469 80.0804 312.502 80.8426 308.483 81.2631C304.307 81.7099 300.13 81.6573 295.954 81.5259C292.486 81.4471 288.914 81.3156 285.341 81.1842ZM284.002 80.3169C286.156 80.3169 288.993 80.3169 291.83 80.3169C296.899 80.3169 301.969 80.1067 307.012 79.5022C310.585 79.0817 314.079 78.3196 317.441 77.0318C320.015 76.0593 322.248 74.6401 323.982 72.4325C326.792 68.8582 326.214 63.0237 321.696 60.343C320.015 59.3443 316.784 56.8212 310.48 58.3981C308.011 58.8712 305.699 59.9225 303.387 60.8686C298.817 62.7346 294.325 64.8371 289.728 66.598C279.379 71.171 271.682 72.2748 262.12 72.9581C258.023 73.2472 253.951 73.1946 249.88 72.8004C246.123 72.4325 242.393 71.8017 238.689 71.0396C233.725 70.0146 228.918 68.6217 224.268 66.598C224.032 66.4929 223.795 66.414 223.559 66.3614C223.244 66.2826 223.007 66.3877 223.007 66.7557C223.007 67.623 222.955 68.4902 223.086 69.3313C223.717 73.4837 224.846 77.5311 226.343 81.4733C227.053 83.313 227.841 85.1265 228.629 86.9399C229.075 87.9912 229.837 88.727 231.045 88.7008C231.623 88.6745 232.201 88.4905 232.753 88.254C233.383 88.0174 233.987 87.6495 234.592 87.3341C240.686 84.3906 247.148 82.6297 253.793 81.5522C260.466 80.4746 267.164 80.0016 273.915 80.0804C277.041 80.1593 280.193 80.2381 284.002 80.3169ZM233.541 67.1762C233.515 67.2287 233.488 67.2813 233.462 67.3339C233.541 67.3601 233.593 67.3864 233.672 67.439C233.83 67.5441 233.987 67.6755 234.171 67.7544C235.905 68.5428 237.665 69.1999 239.504 69.6466C242.813 70.4351 246.149 70.987 249.564 71.0921C252.217 71.171 254.897 71.2498 257.55 70.9344C258.889 70.7767 260.492 70.6979 261.831 70.5402C264.537 70.2248 266.98 69.8832 269.659 69.4627C275.018 68.5954 280.219 67.255 285.368 65.5204C292.329 63.1551 299.158 60.7635 306.146 58.3981C313.08 56.0591 316.837 56.6898 321.985 58.9238C323.194 59.4494 324.428 59.975 325.663 60.4481C326.635 60.816 327.107 60.5007 327.291 59.4494C327.344 59.0815 327.396 58.7135 327.423 58.3193C327.633 54.8764 327.423 51.4335 326.687 48.0432C326.136 45.4939 324.822 43.6016 322.09 43.0234C319.621 42.4978 317.152 42.2087 314.63 41.9722C309.114 41.4991 305.042 42.5766 303.046 43.1286C299.552 44.101 296.978 45.4413 294.089 46.9394C291.304 48.4111 288.441 49.7515 285.84 51.4861C279.116 55.2443 273.521 58.1879 267.479 60.9737C261.989 63.2602 254.949 65.5993 250.457 66.4929C248.015 66.9922 245.519 67.4127 243.024 67.4915C240.134 67.5967 238.742 67.5441 235.826 67.3076C235.038 67.2287 234.276 67.2287 233.541 67.1762ZM235.406 26.1244C235.485 28.2269 235.616 30.1192 236.246 31.9326C237.14 34.5608 238.742 36.6896 240.686 38.6081C243.628 41.5254 247.2 42.8132 251.245 42.7343C253.846 42.6818 256.394 42.1824 258.889 41.4203C261.753 40.553 264.222 39.0024 266.166 36.6633C268.661 33.6672 269.712 30.1192 269.948 26.3346C270.316 20.6315 268.057 15.9797 263.775 12.4054C256.841 6.62348 246.544 7.20167 240.187 13.6669C238.322 15.5592 236.824 17.7406 236.141 20.3687C235.616 22.3398 235.432 24.3372 235.406 26.1244ZM317.047 87.886C317.021 87.8598 316.968 87.8598 316.942 87.8335C316.942 87.229 316.521 86.8348 315.944 86.9399C315.55 87.0187 315.156 87.1239 314.814 87.3078C313.737 87.8598 312.66 88.4117 311.609 89.0161C306.881 92.3802 302.652 94.325 297.792 95.8756C294.404 96.9794 291.042 97.6102 287.679 98.7929C284.212 100.002 280.876 101.526 278.013 103.891C276.174 105.416 274.361 107.019 272.523 108.57C272.418 108.675 272.339 108.806 272.26 108.938C272.418 108.99 272.601 109.122 272.759 109.122C273.389 109.095 273.994 109.016 274.624 108.99C278.223 108.727 281.821 108.517 285.394 107.913C290.227 107.098 294.955 105.915 299.552 104.207C306.776 101.526 312.371 96.9269 316.154 90.12C316.574 89.4366 316.784 88.6482 317.047 87.886Z" fill="white"/>
<path d="M377.491 70.9582C374.865 70.9582 372.23 70.9582 369.603 70.9582C369.501 70.9582 369.399 70.9837 369.306 70.9497C369.195 70.9157 369.102 70.8392 369 70.7797C369.102 70.7117 369.204 70.5842 369.314 70.5842C370.147 70.5502 370.904 70.3548 371.524 69.7854C372.17 69.199 372.442 68.4596 372.442 67.6522C372.451 60.1139 372.459 52.5757 372.442 45.0289C372.442 43.3377 371.346 42.2924 369.553 42.1649C369.434 42.1564 369.314 42.1649 369.212 42.1309C369.136 42.1054 369.051 42.0034 369.059 41.9354C369.059 41.8759 369.17 41.7909 369.238 41.7654C369.366 41.7314 369.501 41.7484 369.629 41.7484C374.627 41.7484 378.639 41.7229 383.628 41.7569C386.561 41.7824 389.425 42.2499 392.052 43.5416C394.083 44.536 395.792 45.8873 397.126 47.655C398.206 49.0912 398.954 50.6635 399.387 52.3462C399.838 54.0969 399.923 55.8816 399.804 57.6833C399.642 59.995 399.013 62.1876 397.73 64.1763C396.115 66.6834 393.82 68.4851 390.93 69.6239C388.55 70.5672 386.051 70.9157 383.492 70.9412C381.172 70.9752 379.82 70.9582 377.491 70.9582ZM376.624 43.1677C376.607 43.3292 376.599 43.4057 376.599 43.4821C376.599 52.0233 376.599 60.5729 376.59 69.114C376.59 69.4794 376.735 69.5474 377.083 69.5389C379.48 69.5219 380.9 69.5644 383.297 69.5134C384.3 69.4964 385.311 69.4114 386.289 69.199C389.859 68.4256 392.247 66.2924 393.769 63.2584C394.84 61.1253 395.205 58.8477 395.231 56.5105C395.248 54.7003 395.044 52.9071 394.466 51.1649C393.913 49.4822 393.08 47.9184 391.814 46.6097C389.553 44.2555 386.671 43.1762 383.314 43.1677C380.951 43.1592 379.565 43.1677 377.202 43.1677C377.032 43.1677 376.854 43.1677 376.624 43.1677Z" fill="white"/>
<path d="M470.259 56.0928C471.126 54.6821 471.934 53.3733 472.733 52.0645C474.127 49.7869 475.521 47.5178 476.915 45.2486C477.28 44.6622 477.578 44.0673 477.297 43.3704C476.991 42.614 476.388 42.2401 475.538 42.1551C475.385 42.1381 475.249 42.0277 475.104 41.9597C475.257 41.8917 475.419 41.7642 475.572 41.7642C478.632 41.7557 481.692 41.7557 484.752 41.7642C484.896 41.7642 485.049 41.8832 485.194 41.9427C485.058 42.0106 484.93 42.1466 484.794 42.1466C482.627 42.2061 481.054 43.2514 479.958 44.8747C477.102 49.0815 474.314 53.3223 471.509 57.5631C471.381 57.7586 471.33 58.022 471.33 58.26C471.322 61.396 471.373 64.532 471.296 67.668C471.262 69.1637 472.41 70.515 474.246 70.6C474.399 70.6085 474.543 70.7105 474.688 70.77C474.535 70.8379 474.382 70.9654 474.229 70.9654C470.871 70.9739 467.514 70.9739 464.156 70.9739C464.071 70.9739 463.978 70.9994 463.91 70.9654C463.825 70.9229 463.766 70.8379 463.698 70.7784C463.774 70.7189 463.842 70.617 463.927 70.6085C464.25 70.5575 464.59 70.566 464.904 70.498C466.239 70.209 467.157 69.1297 467.174 67.7445C467.199 64.566 467.182 61.379 467.174 58.2005C467.174 58.0135 467.106 57.8011 467.004 57.6396C464.284 53.3903 461.573 49.141 458.81 44.9172C458.028 43.7189 456.949 42.784 455.453 42.3846C454.968 42.2571 454.441 42.2571 453.94 42.1721C453.795 42.1466 453.676 42.0361 453.54 41.9681C453.685 41.9087 453.829 41.7897 453.965 41.7897C455.385 41.7727 456.813 41.7812 458.232 41.7812C460.527 41.7812 462.83 41.7812 465.125 41.7812C465.27 41.7812 465.431 41.7727 465.567 41.8067C465.635 41.8237 465.737 41.9172 465.737 41.9852C465.737 42.0446 465.644 42.1296 465.567 42.1721C465.499 42.2061 465.406 42.1891 465.321 42.1976C463.638 42.2316 463.034 43.8548 463.714 44.9767C464.717 46.6424 465.661 48.3421 466.638 50.0163C467.726 51.903 468.823 53.7812 469.919 55.6679C470.021 55.7529 470.115 55.8719 470.259 56.0928Z" fill="white"/>
<path d="M572.071 70.5332C571.995 70.4907 571.876 70.5077 571.774 70.4992C570.167 70.4057 568.884 69.6918 567.753 68.672C565.603 66.7343 563.937 64.4397 562.228 62.1706C561.225 60.8448 560.299 59.468 558.947 58.4056C558.573 58.1167 558.174 57.8618 557.724 57.5473C557.86 57.4963 557.902 57.4793 557.953 57.4623C558.046 57.4453 558.149 57.4198 558.251 57.4113C560.443 57.1819 562.067 56.0855 563.316 54.4623C564.617 52.7796 565.118 50.8759 564.974 48.8107C564.804 46.2866 563.656 44.298 561.336 42.9637C559.797 42.0798 558.072 41.7314 556.304 41.7059C551.825 41.6464 547.345 41.6634 542.866 41.6634C542.738 41.6634 542.611 41.7824 542.483 41.8418C542.611 41.9013 542.73 42.0118 542.857 42.0288C543.52 42.1138 544.166 42.1903 544.719 42.5982C545.586 43.2356 545.917 44.077 545.917 45.0798C545.909 51.1903 545.917 57.2923 545.917 63.4028C545.917 64.8136 545.9 66.2244 545.917 67.6352C545.934 69.1734 544.761 70.4482 543.24 70.5332C543.078 70.5417 542.908 70.5417 542.747 70.5842C542.645 70.6097 542.568 70.7117 542.475 70.7711C542.568 70.8306 542.662 70.9071 542.772 70.9411C542.84 70.9666 542.934 70.9496 543.019 70.9496C546.317 70.9496 549.623 70.9496 552.921 70.9496C553.057 70.9496 553.193 70.9581 553.321 70.9326C553.38 70.9156 553.482 70.8221 553.474 70.7881C553.457 70.7116 553.388 70.6267 553.312 70.5927C553.227 70.5587 553.117 70.5757 553.015 70.5672C551.077 70.3802 550.082 69.3519 550.082 67.5247C550.082 64.2187 550.082 60.9127 550.082 57.6068C551.119 57.6068 552.428 57.6238 553.805 57.7088C554.238 58.0912 554.638 58.5076 554.961 58.9666C556.687 61.4397 558.361 63.9552 560.086 66.4283C560.545 67.0827 561.081 67.7116 561.676 68.264C563.24 69.7173 565.135 70.6182 567.337 70.8051C568.901 70.9411 570.482 70.9071 572.054 70.9411C572.148 70.9411 572.241 70.8221 572.326 70.7626C572.241 70.6862 572.173 70.5842 572.071 70.5332ZM552.963 56.1875C552.207 56.196 551.204 56.1705 550.09 56.0685C550.09 52.0317 550.09 47.9948 550.09 43.958C550.09 43.805 550.099 43.6521 550.09 43.4906C550.09 43.2356 550.218 43.1336 550.49 43.1336C552.199 43.1761 553.907 43.1336 555.599 43.2611C557.435 43.3971 558.752 44.4169 559.551 45.8957C560.537 47.7314 560.647 49.7116 560.154 51.6917C559.636 53.7994 558.293 55.3122 556.015 55.8391C555.029 56.077 553.992 56.1195 552.963 56.1875Z" fill="white"/>
<path d="M516.661 55.388C516.176 55.2606 515.683 55.1416 515.207 55.0226C516.023 54.5892 516.865 54.2662 517.553 53.7648C519.432 52.3795 520.095 50.4758 519.976 48.2917C519.882 46.609 519.245 45.1642 517.893 44.0169C515.938 42.3682 513.533 41.7988 511.017 41.7223C507.319 41.6118 503.622 41.6713 499.924 41.6713C499.788 41.6713 499.644 41.7987 499.508 41.8667C499.644 41.9262 499.771 42.0282 499.907 42.0367C501.913 42.1472 502.959 43.4645 502.942 45.0962C502.891 50.9432 502.925 56.7818 502.925 62.6289C502.925 64.3456 502.933 66.0708 502.925 67.7875C502.916 69.2663 501.939 70.3116 500.375 70.5156C500.179 70.5411 499.975 70.5411 499.788 70.5836C499.686 70.6091 499.601 70.711 499.516 70.779C499.618 70.8385 499.703 70.9065 499.814 70.949C499.882 70.9745 499.975 70.9575 500.06 70.9575C503.928 70.9575 507.787 70.966 511.654 70.9575C513.405 70.949 515.122 70.745 516.788 70.2266C518.276 69.7677 519.602 69.0708 520.673 67.983C521.999 66.6317 522.568 65.017 522.645 63.1983C522.798 59.5864 520.358 56.3824 516.661 55.388ZM507.693 43.1245C508.968 43.1415 510.243 43.1075 511.493 43.4305C513.779 44.0339 514.935 45.5976 515.275 47.5863C515.479 48.7846 515.471 49.9829 515.114 51.1727C514.68 52.626 513.754 53.6373 512.428 54.2662C511.884 54.3342 509.623 54.5807 507.124 54.2832C507.124 50.7478 507.132 47.2124 507.115 43.6769C507.107 43.269 507.226 43.116 507.693 43.1245ZM517.12 66.0623C516.202 67.8555 514.638 68.9009 512.581 69.1473C510.898 69.3428 509.181 69.2833 507.472 69.3513C507.073 69.3683 507.115 69.1303 507.124 68.8923C507.124 64.677 507.124 60.4617 507.124 56.2464C507.124 56.1444 507.124 56.0339 507.124 55.9319C507.761 55.8639 509.368 55.728 511.518 55.8045C511.646 55.8215 511.748 55.8215 511.858 55.83C512.275 55.9149 512.683 55.9829 513.091 56.1104C516.032 57.0283 517.715 59.1189 517.825 61.9915C517.876 63.3937 517.783 64.7705 517.12 66.0623Z" fill="white"/>
<path d="M445.482 70.5752C443.587 70.4307 442.303 69.5044 441.555 67.8811C438.767 61.8301 435.971 55.7791 433.183 49.7281C431.908 46.966 430.633 44.2125 429.35 41.4589C429.282 41.3059 429.103 41.1955 428.908 41C428.763 41.4929 428.712 41.7989 428.585 42.0878C428.007 43.4306 427.437 44.7819 426.834 46.1162C423.544 53.3315 420.246 60.5383 416.948 67.7452C416.447 68.8415 415.75 69.7848 414.5 70.2268C413.982 70.4052 413.421 70.4987 412.877 70.5837C412.588 70.6262 412.494 70.7027 412.605 70.9661C415.622 70.9661 418.648 70.9661 421.657 70.9661C421.802 70.6092 421.572 70.5922 421.317 70.5837C419.932 70.5242 419.005 69.3939 419.609 67.9661C420.484 65.9009 421.368 63.8358 422.261 61.7791C422.32 61.6431 422.558 61.4902 422.72 61.4902C426.341 61.4732 429.962 61.4732 433.583 61.4902C433.727 61.4902 433.94 61.6347 433.999 61.7621C434.246 62.2635 434.441 62.7905 434.654 63.3089C435.325 64.9661 436.005 66.6233 436.651 68.2891V68.2976L437.722 70.9661C440.433 70.9661 443.145 70.9661 445.848 70.9661C445.975 70.5922 445.729 70.6007 445.482 70.5752ZM422.983 60.0539C424.734 55.9661 426.468 51.9122 428.253 47.7394C429.97 51.9122 431.628 55.9576 433.311 60.0539C429.843 60.0539 426.46 60.0539 422.983 60.0539Z" fill="white"/>
<path d="M655.991 70.8379C655.872 70.7529 655.77 70.6254 655.642 70.5914C655.336 70.5149 655.022 70.5149 654.716 70.4469C653.169 70.0985 652.217 69.1381 651.605 67.8124C648.664 61.4299 645.714 55.0474 642.765 48.665C641.643 46.2343 640.521 43.8122 639.399 41.3901C639.297 41.1777 639.237 40.9227 638.889 41.0842C638.795 41.4156 638.727 41.7556 638.591 42.0615C638.005 43.4298 637.427 44.7896 636.806 46.1409C633.534 53.3222 630.253 60.4951 626.964 67.6679C626.709 68.2118 626.368 68.7472 625.969 69.2146C625.204 70.107 624.125 70.4894 622.918 70.5744C622.663 70.5914 622.433 70.6084 622.578 70.9569C625.603 70.9569 628.63 70.9569 631.655 70.9569C631.808 70.6254 631.613 70.5829 631.341 70.5744C629.888 70.5149 628.995 69.3591 629.598 67.9228C630.474 65.8492 631.358 63.784 632.259 61.7189C632.318 61.5914 632.539 61.4469 632.684 61.4469C636.33 61.4299 639.985 61.4299 643.632 61.4469C643.768 61.4469 643.98 61.5744 644.031 61.6849C644.363 62.5007 644.686 63.3166 645.017 64.124L645.034 64.1154L647.771 70.9483C650.483 70.9483 653.203 70.9483 655.906 70.9483C655.94 70.9228 655.965 70.8804 655.991 70.8379ZM632.998 60.0106C634.749 55.9143 636.492 51.8519 638.285 47.6621C640.002 51.8349 641.668 55.9058 643.351 60.0106C639.883 60.0106 636.475 60.0106 632.998 60.0106Z" fill="white"/>
<path d="M608.035 66.2242C608.018 67.3375 607.346 68.3318 606.309 68.9522C605.842 69.2327 605.247 69.4536 604.711 69.4706C602.748 69.5046 599.96 69.4961 597.52 69.4961V69.4876C596.611 69.4876 595.701 69.4791 594.792 69.4876C594.588 69.4876 594.46 69.4536 594.384 69.3771C594.316 69.3006 594.29 69.1817 594.29 69.0117C594.29 68.9097 594.29 68.8162 594.29 68.7228C594.29 67.9749 594.29 67.227 594.29 66.4791C594.299 63.5471 594.299 60.6151 594.29 57.6831C594.29 57.3431 594.392 57.2241 594.766 57.2241C596.925 57.2411 600.062 57.2241 602.221 57.2326C603.207 57.2411 604.065 57.5811 604.55 58.4139C604.805 58.8559 604.856 59.4083 605.017 59.9012C605.068 60.0542 605.17 60.1986 605.247 60.3431C605.315 60.1901 605.391 60.0372 605.451 59.8842C605.459 59.8587 605.451 59.8247 605.451 59.7907C605.451 57.6236 605.451 55.4479 605.451 53.2808C605.451 53.1533 605.468 53.0258 605.425 52.9153C605.4 52.8473 605.298 52.7624 605.23 52.7624C605.162 52.7624 605.051 52.8559 605.034 52.9238C605 53.0428 605.017 53.1703 605.009 53.2893C604.915 54.7935 603.776 55.8134 602.17 55.8134C600.045 55.8134 596.942 55.8049 594.817 55.8219C594.392 55.8219 594.29 55.6944 594.29 55.3205C594.299 51.4281 594.307 47.5357 594.29 43.6519C594.29 43.2694 594.401 43.1504 594.817 43.1504C597.571 43.1674 600.98 43.1334 603.734 43.1844C604.278 43.1929 604.873 43.4224 605.332 43.7029C606.369 44.3232 606.709 45.3176 606.726 46.4309C606.726 46.6434 606.641 46.9323 607.1 46.8558C607.1 45.1136 607.1 43.3799 607.1 41.6377H603.504C603.105 41.6632 602.705 41.6802 602.297 41.6802C597.648 41.6972 592.021 41.6887 587.38 41.6887C587.227 41.6887 587.074 41.6717 586.929 41.6972C586.853 41.7142 586.785 41.7992 586.717 41.8502C586.785 41.9181 586.836 42.0201 586.921 42.0541C587.006 42.0881 587.116 42.0711 587.218 42.0796C589.122 42.2156 590.117 43.4904 590.117 44.8247C590.117 52.4819 590.117 60.1392 590.108 67.7964C590.108 68.8757 589.556 69.7426 588.638 70.21C588.485 70.2865 588.332 70.3545 588.162 70.4055C588.153 70.4055 588.153 70.4055 588.145 70.414C587.975 70.465 587.796 70.5074 587.609 70.5414C587.397 70.5754 587.176 70.5669 586.972 70.6094C586.963 70.6094 586.955 70.6179 586.946 70.6264C586.938 70.6264 586.929 70.6264 586.929 70.6264C586.921 70.6264 586.921 70.6349 586.912 70.6434C586.844 70.6774 586.785 70.7284 586.717 70.7794C586.725 70.7879 586.742 70.7964 586.751 70.8049C586.742 70.8134 586.725 70.8304 586.717 70.8389C586.785 70.8899 586.853 70.9749 586.929 70.9919C586.98 71.0004 587.031 71.0004 587.082 71.0004H589.386H596.05H607.746C608.12 69.3346 608.4 67.5584 608.4 65.8332C607.95 65.7227 608.043 66.0117 608.035 66.2242Z" fill="white"/>
<path d="M696.688 70.5238C696.306 70.4388 695.906 70.4303 695.524 70.3453C694.215 70.0564 693.237 69.3595 692.413 68.5351C689.226 65.3311 684.491 60.3849 681.321 57.1724C680.802 56.6455 680.284 56.1186 679.765 55.6002C679.595 55.4302 679.51 55.3282 679.451 55.2262L678.847 54.5973L678.932 54.5038L678.924 54.4614C678.958 54.4274 678.975 54.4019 679.009 54.3594C681.907 51.1979 684.831 48.0534 687.695 44.8664C689.115 43.2856 690.798 42.2488 693.059 42.1468C693.178 42.1383 693.289 42.0278 693.408 41.9684C693.28 41.9089 693.152 41.7899 693.025 41.7899C690.075 41.7814 687.118 41.7814 684.168 41.7899C684.032 41.7899 683.887 41.8919 683.751 41.9429C683.887 42.0109 684.024 42.1213 684.168 42.1383C684.721 42.1978 685.196 42.3508 685.451 42.8692C685.706 43.3876 685.486 43.8041 685.163 44.195C684.525 44.9684 683.879 45.7332 683.242 46.5066C681.508 48.5718 679.774 50.637 678.04 52.6936L675.541 55.3197C675.541 53.5945 675.541 51.8778 675.541 50.1525V41.6709C673.161 41.6709 670.781 41.6709 668.401 41.6794C668.248 41.6794 668.086 41.8069 667.933 41.8664C668.078 41.9259 668.222 42.0279 668.375 42.0364C670.169 42.1978 671.333 43.2432 671.342 44.7729C671.35 52.4642 671.35 60.1469 671.342 67.8382C671.342 68.6796 670.968 69.3595 670.296 69.9119C669.727 70.3793 669.047 70.5068 668.324 70.5833C668.188 70.6003 668.061 70.6937 667.933 70.7532C668.069 70.8212 668.205 70.8977 668.358 70.9487C668.435 70.9742 668.52 70.9572 668.605 70.9572C670.211 70.9572 671.826 70.9572 673.433 70.9572C675.09 70.9572 676.748 70.9572 678.414 70.9572C678.533 70.9572 678.66 70.9827 678.762 70.9487C678.847 70.9147 678.907 70.8212 678.983 70.7532C678.915 70.7022 678.847 70.6258 678.771 70.6003C678.677 70.5748 678.575 70.5918 678.473 70.5833C676.748 70.4303 675.558 69.351 675.558 67.8977C675.558 64.6512 675.558 61.4132 675.558 58.1668L676.195 57.4784C679.17 60.5294 683.412 64.9997 686.268 67.8977C686.812 68.4501 687.407 69.0025 688.087 69.436C689.362 70.2603 690.883 70.6682 692.498 70.7787C693.994 70.8807 695.498 70.9062 696.994 70.9742C697.028 70.9147 697.054 70.8552 697.088 70.7872C696.952 70.6937 696.841 70.5578 696.688 70.5238Z" fill="white"/>
<path d="M6.29384 62.2881H3.32457V66.1007C3.32457 66.3481 2.27772 67.1854 0.596395 67.1854H0V41.316L3.77501 42.7814H5.9449L7.37879 40.891L11.1221 43.6505C10.8747 43.9296 10.3544 44.2468 9.65648 44.3864V64.3815C9.65648 64.4513 8.74921 65.4282 6.30019 65.4282V62.2881H6.29384ZM6.29384 43.4792H3.32457V52.0431H6.29384V43.4792ZM3.32457 61.5903H6.29384V52.7473H3.32457V61.5903ZM30.3146 64.6987L30.3843 68.3336C31.5708 68.8221 31.7104 68.9299 31.7104 69.5199C31.7104 70.814 30.6635 71.4103 28.0749 71.4103H24.6488C21.2925 71.4103 20.8357 70.8838 20.8357 67.566V61.0955H18.006C17.5873 65.9548 16.2549 69.6277 6.43341 72.0003L6.04639 71.4737C13.495 68.6762 14.1231 65.3204 14.2309 61.0892H10.0372L9.8278 60.3914H26.3682L28.151 58.1521L31.5074 60.4612C31.2599 60.9496 30.8411 61.0892 29.8958 61.0892H24.2681V67.5597C24.2681 68.3971 24.2681 68.4668 24.9343 68.4668H27.9734C28.2525 68.4668 28.5317 68.4668 28.8489 68.1179C29.1662 67.6612 29.7245 66.126 30.1051 64.6924H30.3146V64.6987ZM20.106 55.9254C18.3232 56.5915 15.7029 57.5367 12.0611 58.723C11.8517 59.1797 11.5028 59.3891 11.1158 59.4589L9.82144 56.1031L13.108 55.9254V52.8868H10.3798L10.1704 52.189H13.108V48.6937L17.1621 49.0807C17.1304 49.4296 16.8449 49.6072 16.0772 49.7087V52.189H16.4642L17.6888 50.508L20.068 52.2905C19.8206 52.7473 19.3701 52.8868 18.5326 52.8868H16.0836V55.7161L20.0363 55.3989L20.106 55.9254ZM12.0294 43.5871L11.82 42.8893H18.3232V39.1846L23.4306 39.6413C23.3989 40.1678 23.0436 40.4089 21.9269 40.5485V42.8893H24.3759L26.1969 40.7197L29.6611 42.959C29.4136 43.4475 28.9631 43.5871 28.0495 43.5871H21.9333V47.2917H26.0954L27.948 44.9827L31.4122 47.3932C31.1647 47.85 30.7142 47.9896 29.7689 47.9896H10.3988L10.2212 47.2917H18.3359V43.5871H12.0294ZM31.888 56.8707C31.6406 57.3274 31.2218 57.467 30.3526 57.467H19.6175L19.4081 56.7692H23.64V52.8868H20.6009L20.4233 52.189H23.64V48.7635L27.8718 49.1504C27.802 49.5374 27.5546 49.7087 26.7869 49.8165V52.1954H27.4848L28.8109 50.3748L31.3995 52.2969C31.1203 52.7536 30.7016 52.8932 29.826 52.8932H26.7869V56.7755H27.8718L29.2677 54.8851L31.888 56.8707Z" fill="white"/>
<path d="M88.2844 49.8413C88.7412 48.7248 89.2995 46.6631 89.5786 45.1914H67.7278C67.9753 48.1285 66.6112 50.3995 64.3335 50.3995C63.2486 50.3995 62.2715 49.8413 62.2715 48.7185C62.2715 47.8811 62.9376 47.1833 63.737 46.7583C65.1011 46.1303 66.6048 44.4175 66.6048 42.4256H67.1314C67.3788 43.1614 67.5502 43.8592 67.658 44.4872H76.5722V39L81.889 39.4885C81.8192 40.015 81.502 40.256 80.4234 40.4337V44.4872H89.3375L91.3678 42.4954L94.8637 45.8194C94.5846 46.0985 94.1975 46.2064 93.4996 46.2381C92.3132 47.4624 90.2448 49.1371 88.6396 50.0823L88.2844 49.8413ZM88.5635 57.0477L90.3146 54.1106L94.6163 56.3499C94.4069 56.8383 93.9501 57.0857 93.0808 57.1872L78.8182 59.0776V66.5948C78.8182 67.7113 78.9578 67.8509 80.4297 67.8509H88.1892C88.9949 67.8509 89.4835 67.7811 89.8705 67.2229C90.2893 66.6646 90.8856 64.844 91.7231 62.3256H92.0023L91.9325 67.4322C93.4362 67.9587 93.6455 68.1998 93.6455 68.7263C93.6455 70.2298 92.5289 70.9973 88.1194 70.9973H80.4297C76.1281 70.9973 75.0812 70.1917 75.0812 66.487V59.5661L62.5633 61.2472L62.2841 60.5494L75.0812 58.8366V52.0172C72.0739 52.6452 68.9269 53.1336 65.8879 53.4128L65.7102 52.8862C72.0739 51.3828 79.5224 48.4457 83.2277 46.0668L87.1106 49.2133C86.9329 49.3909 86.6221 49.5305 86.2033 49.5305C85.8861 49.5305 85.5054 49.4607 85.0169 49.283C83.5132 49.8413 81.7684 50.3995 79.8397 50.8943L80.1189 50.9324C80.0491 51.3511 79.8397 51.5985 78.8245 51.7698V58.3418L88.5635 57.0477Z" fill="white"/>
<path d="M152.055 47.7098L157.264 48.1665C157.194 48.655 156.915 48.9341 155.868 49.0737V70.1917C155.868 70.2615 155.309 71.3779 152.055 71.3779V67.2165H131.359V70.7119C131.359 70.7816 130.832 71.8664 127.653 71.8664V47.8176L132.792 48.2744C132.723 48.7628 132.444 49.08 131.359 49.1815V66.5187H139.753V39.7422L145.031 40.2306C144.961 40.7572 144.574 41.0363 143.528 41.1758V66.5187H152.061V47.7098H152.055Z" fill="white"/>
</svg>
