<svg width="420" height="98" viewBox="0 0 420 98" fill="none" xmlns="http://www.w3.org/2000/svg">
<path d="M221.948 1L137.17 97.5928" stroke="#252525" stroke-miterlimit="10"/>
<path d="M6.18384 44.7444H3.26255V48.4847C3.26255 48.7236 2.23189 49.5491 0.586973 49.5491H0V24.1382L3.70622 25.5786H5.83574L7.24172 23.722L10.9138 26.4385C10.6749 26.7115 10.1562 27.0255 9.47364 27.162V46.8053C9.47364 46.8736 8.57954 47.8361 6.17701 47.8361V44.7444H6.18384ZM6.18384 26.2678H3.26255V34.6836H6.18384V26.2678ZM3.26939 44.0548H6.19067V35.3661H3.26939V44.0548ZM29.7792 47.1126L29.8475 50.6823C31.0146 51.16 31.1511 51.2692 31.1511 51.8494C31.1511 53.1189 30.1204 53.706 27.5814 53.706H24.2165C20.9199 53.706 20.4761 53.1939 20.4761 49.9314V43.5769H17.6914C17.2819 48.3479 15.9714 51.9586 6.32714 54.2929L5.9518 53.781C13.2686 51.0304 13.8828 47.7338 13.9852 43.5839H9.86273L9.65793 42.8944H25.9024L27.6565 40.6968L30.9532 42.9627C30.7143 43.4405 30.2979 43.5839 29.3765 43.5839H23.8479V49.9384C23.8479 50.7643 23.8479 50.8326 24.5031 50.8326H27.4927C27.7657 50.8326 28.0387 50.8326 28.3527 50.4913C28.6598 50.0476 29.2127 48.5323 29.5881 47.1263H29.7792V47.1126ZM19.7527 38.4922C17.9986 39.1474 15.4254 40.0689 11.8557 41.236C11.6509 41.6797 11.3028 41.8913 10.9274 41.9596L9.65793 38.6628L12.8863 38.4922V35.5028H10.2108L10.006 34.8132H12.8932V31.3802L16.8792 31.7555C16.8451 32.0967 16.5721 32.2675 15.8144 32.3767V34.8132H16.1899L17.3911 33.1615L19.7254 34.9155C19.4865 35.3592 19.036 35.5028 18.217 35.5028H15.8144V38.2872L19.698 37.9803L19.7527 38.4922ZM11.8148 26.3702L11.61 25.681H17.9985V22.043L23.0153 22.4866C22.9811 22.9985 22.6398 23.2442 21.5409 23.3807V25.681H23.9435L25.7317 23.5514L29.1308 25.7493C28.8919 26.227 28.4414 26.3702 27.5541 26.3702H21.5409V30.0081H25.6293L27.4518 27.7422L30.8508 30.1105C30.6119 30.5541 30.1614 30.6977 29.24 30.6977H10.2177L10.047 30.0081H18.0122V26.3702H11.8148ZM31.3217 39.4204C31.0828 39.864 30.6665 40.0073 29.8133 40.0073H19.2681L19.0633 39.3181H23.22V35.5094H20.2304L20.0598 34.8202H23.22V31.4552L27.3766 31.8305C27.3083 32.2059 27.0695 32.3833 26.3119 32.4857V34.8202H27.0013L28.3049 33.0319L30.844 34.9225C30.5709 35.3662 30.1546 35.5094 29.3014 35.5094H26.3119V39.3181H27.3766L28.7485 37.4614L31.3217 39.4204Z" fill="#262626"/>
<path d="M86.7164 32.5197C87.16 31.4208 87.7129 29.3937 87.9859 27.9536H66.5201C66.759 30.8407 65.4212 33.0726 63.1893 33.0726C62.1246 33.0726 61.1621 32.5198 61.1621 31.4209C61.1621 30.5951 61.8174 29.9123 62.6023 29.496C63.9401 28.8749 65.4212 27.196 65.4212 25.2371H65.9331C66.172 25.9606 66.3427 26.6429 66.445 27.2641H75.202V21.8721L80.4234 22.35C80.3552 22.8619 80.048 23.1075 78.9833 23.2781V27.2641H87.7402L89.7332 25.3051L93.1663 28.5678C92.8933 28.8408 92.5111 28.9433 91.8286 28.9774C90.6615 30.1787 88.6343 31.8303 87.0577 32.7517L86.7164 32.5197ZM86.9894 39.5907L88.7094 36.7036L92.9343 38.9015C92.7295 39.3793 92.2791 39.625 91.4259 39.7274L77.4134 41.5837V48.969C77.4134 50.0679 77.5499 50.2044 78.9901 50.2044H86.614C87.4057 50.2044 87.8835 50.1361 88.2658 49.5832C88.6753 49.0303 89.2622 47.2489 90.0881 44.7781H90.3611L90.2929 49.7948C91.7672 50.3067 91.9787 50.5523 91.9787 51.0643C91.9787 52.5385 90.8799 53.2962 86.5526 53.2962H78.9968C74.7719 53.2962 73.7413 52.5043 73.7413 48.8663V42.0683L61.4488 43.7203L61.1758 43.0308L73.7482 41.3447V34.6493C70.7928 35.2704 67.7009 35.7481 64.7182 36.0211L64.5476 35.5092C70.7996 34.0349 78.1096 31.1477 81.7543 28.8134L85.5697 31.9055C85.3991 32.0762 85.092 32.2125 84.6756 32.2125C84.3685 32.2125 83.9863 32.1441 83.5085 31.9735C82.0342 32.5264 80.3142 33.0724 78.4235 33.5502L78.6966 33.5845C78.6283 33.9941 78.4236 34.2397 77.4271 34.4104V40.8672L86.9894 39.5907Z" fill="#262626"/>
<path d="M149.353 30.4244L154.472 30.8683C154.404 31.3461 154.131 31.626 153.1 31.7625V52.5046C153.1 52.5728 152.547 53.6717 149.36 53.6717V49.5835H129.027V53.0165C129.027 53.0847 128.515 54.1496 125.389 54.1496V30.52L130.44 30.9636C130.372 31.4414 130.099 31.7554 129.034 31.8578V48.8939H137.279V22.5889L142.466 23.0668C142.398 23.5787 142.023 23.8584 140.992 23.9949V48.8939H149.374V30.4244H149.353Z" fill="#262626"/>
<path d="M185.698 60.2779C183.774 60.2779 181.842 60.2779 179.917 60.2779C179.842 60.2779 179.767 60.2918 179.699 60.2713C179.617 60.244 179.549 60.1893 179.474 60.1483C179.549 60.1005 179.624 60.005 179.706 60.005C180.32 59.9777 180.873 59.8343 181.323 59.4248C181.794 58.9948 181.992 58.4555 181.992 57.8617C181.999 52.3332 181.999 46.8047 181.992 41.2762C181.992 40.034 181.187 39.2695 179.869 39.1739C179.788 39.1671 179.692 39.1739 179.617 39.1466C179.562 39.1261 179.501 39.0511 179.501 39.0033C179.501 38.9623 179.576 38.8939 179.637 38.8803C179.726 38.8598 179.828 38.8666 179.924 38.8666C183.582 38.8666 186.524 38.8463 190.189 38.8736C192.339 38.8873 194.435 39.2352 196.366 40.1771C197.854 40.9074 199.11 41.8973 200.086 43.1942C200.878 44.2453 201.424 45.3984 201.745 46.6338C202.079 47.917 202.141 49.2278 202.052 50.5451C201.936 52.2446 201.472 53.8486 200.53 55.3092C199.342 57.1452 197.663 58.4691 195.547 59.3018C193.8 59.9912 191.971 60.2508 190.094 60.2713C188.401 60.2849 187.412 60.2779 185.698 60.2779ZM185.064 39.9041C185.05 40.0201 185.043 40.0748 185.043 40.1294C185.043 46.3951 185.043 52.6608 185.036 58.9265C185.036 59.1927 185.139 59.2405 185.398 59.2405C187.159 59.2336 188.196 59.2541 189.951 59.2268C190.681 59.2132 191.432 59.1518 192.142 58.9948C194.762 58.4283 196.51 56.8652 197.629 54.6333C198.414 53.0703 198.68 51.3981 198.701 49.6849C198.714 48.354 198.564 47.0437 198.141 45.7673C197.738 44.5319 197.124 43.3918 196.196 42.4226C194.537 40.6958 192.428 39.9041 189.964 39.9041C188.231 39.8973 187.214 39.9041 185.48 39.9041C185.357 39.9041 185.227 39.9041 185.064 39.9041Z" fill="#262626"/>
<path d="M253.714 49.3788C254.348 48.3414 254.942 47.3793 255.529 46.4237C256.553 44.7583 257.57 43.0861 258.594 41.4207C258.86 40.9907 259.078 40.5538 258.873 40.0419C258.648 39.4891 258.205 39.2092 257.583 39.1478C257.474 39.1341 257.372 39.0522 257.263 39.0045C257.379 38.9567 257.495 38.8612 257.604 38.8612C259.85 38.8543 262.088 38.8543 264.334 38.8612C264.443 38.8612 264.552 38.943 264.661 38.9908C264.566 39.0454 264.463 39.1408 264.368 39.1408C262.778 39.1817 261.631 39.9531 260.819 41.1407C258.723 44.2258 256.683 47.3381 254.621 50.4436C254.526 50.587 254.492 50.7782 254.492 50.9489C254.485 53.249 254.526 55.5491 254.471 57.8493C254.444 58.9481 255.29 59.9378 256.628 59.9992C256.737 60.006 256.846 60.0812 256.956 60.1222C256.846 60.1699 256.73 60.2655 256.621 60.2655C254.157 60.2723 251.7 60.2725 249.236 60.2725C249.175 60.2725 249.106 60.2859 249.059 60.2655C248.997 60.2382 248.949 60.1766 248.902 60.1288C248.956 60.0879 249.011 60.0128 249.072 59.9992C249.311 59.9651 249.557 59.9653 249.789 59.9175C250.765 59.7059 251.441 58.9139 251.447 57.8969C251.468 55.5626 251.454 53.2285 251.447 50.8942C251.447 50.7577 251.4 50.6008 251.325 50.478C249.332 47.3656 247.339 44.2464 245.318 41.1477C244.745 40.2741 243.953 39.5846 242.861 39.2911C242.506 39.1955 242.124 39.1955 241.755 39.1341C241.653 39.1205 241.564 39.0384 241.462 38.9838C241.564 38.936 241.674 38.8542 241.776 38.8542C242.82 38.8405 243.858 38.8475 244.902 38.8475C246.588 38.8475 248.274 38.8475 249.96 38.8475C250.069 38.8475 250.178 38.8407 250.287 38.8612C250.342 38.8748 250.41 38.943 250.41 38.9908C250.41 39.0386 250.342 39.0998 250.287 39.1271C250.239 39.1544 250.171 39.1408 250.11 39.1408C248.874 39.1681 248.437 40.3558 248.929 41.1817C249.659 42.4035 250.355 43.6456 251.072 44.881C251.871 46.2598 252.676 47.6452 253.481 49.0239C253.536 49.1331 253.604 49.2219 253.714 49.3788Z" fill="#262626"/>
<path d="M328.355 59.9712C328.294 59.9439 328.212 59.9507 328.144 59.9439C326.963 59.8757 326.028 59.3501 325.195 58.6062C323.618 57.1865 322.397 55.5006 321.148 53.8421C320.417 52.866 319.728 51.8559 318.738 51.0846C318.465 50.873 318.172 50.6888 317.844 50.4567C317.947 50.4226 317.974 50.4022 318.008 50.3954C318.076 50.3817 318.151 50.3682 318.226 50.3614C319.83 50.1908 321.025 49.3851 321.939 48.1975C322.895 46.9621 323.257 45.5698 323.154 44.0546C323.031 42.2049 322.192 40.7512 320.485 39.7684C319.359 39.12 318.09 38.8605 316.8 38.8469C313.517 38.8059 310.234 38.8196 306.951 38.8196C306.855 38.8196 306.766 38.9014 306.671 38.9492C306.76 38.997 306.848 39.0722 306.944 39.0858C307.429 39.1473 307.9 39.2018 308.309 39.5021C308.944 39.9662 309.19 40.5874 309.19 41.3178C309.183 45.7952 309.19 50.2724 309.19 54.7499C309.19 55.7874 309.176 56.8182 309.19 57.8556C309.203 58.9818 308.343 59.9168 307.231 59.9782C307.108 59.9851 306.985 59.9851 306.869 60.0192C306.794 60.0397 306.739 60.1079 306.671 60.1625C306.739 60.2035 306.807 60.2579 306.889 60.2852C306.944 60.3057 307.012 60.2922 307.074 60.2922C309.497 60.2922 311.913 60.2922 314.336 60.2922C314.432 60.2922 314.534 60.299 314.623 60.2785C314.67 60.2717 314.739 60.1965 314.732 60.1692C314.718 60.1146 314.67 60.0532 314.616 60.0259C314.554 59.9986 314.472 60.0124 314.397 60.0056C312.971 59.8691 312.247 59.1181 312.247 57.7803C312.247 55.3573 312.247 52.9345 312.247 50.5047C313.005 50.5047 313.967 50.5183 314.978 50.5797C315.291 50.8595 315.585 51.1667 315.824 51.5012C317.093 53.3167 318.315 55.1596 319.578 56.9751C319.912 57.4529 320.308 57.9169 320.745 58.3196C321.892 59.3843 323.277 60.0464 324.895 60.1829C326.041 60.2784 327.202 60.258 328.355 60.2785C328.423 60.2785 328.492 60.1898 328.56 60.1489C328.478 60.0806 328.43 60.0054 328.355 59.9712ZM314.343 49.4466C313.783 49.4534 313.053 49.433 312.234 49.3579C312.234 46.3957 312.234 43.4405 312.234 40.4782C312.234 40.3622 312.241 40.253 312.234 40.137C312.234 39.9527 312.329 39.8705 312.527 39.8774C313.776 39.9047 315.032 39.8775 316.274 39.973C317.619 40.0754 318.588 40.8194 319.168 41.9046C319.892 43.2492 319.974 44.703 319.612 46.1568C319.23 47.6994 318.247 48.8119 316.575 49.2009C315.858 49.3716 315.1 49.3988 314.343 49.4466Z" fill="#262626"/>
<path d="M287.731 48.8664C287.376 48.7708 287.014 48.6891 286.666 48.6004C287.267 48.2865 287.881 48.0475 288.386 47.6789C289.765 46.6619 290.25 45.2696 290.161 43.6657C290.093 42.4371 289.622 41.3721 288.632 40.5326C287.199 39.3245 285.431 38.9082 283.588 38.8536C280.878 38.7717 278.162 38.8196 275.452 38.8196C275.35 38.8196 275.247 38.9083 275.145 38.9629C275.241 39.0038 275.336 39.079 275.439 39.0859C276.906 39.1678 277.67 40.13 277.664 41.3245C277.623 45.6108 277.65 49.8904 277.65 54.1767C277.65 55.4394 277.657 56.702 277.65 57.9647C277.643 59.0499 276.926 59.8143 275.78 59.9713C275.636 59.9918 275.486 59.992 275.35 60.0193C275.275 60.0397 275.213 60.1148 275.152 60.1626C275.227 60.2035 275.288 60.2579 275.37 60.2852C275.425 60.3057 275.493 60.2922 275.548 60.2922C278.38 60.2922 281.213 60.299 284.052 60.2922C285.335 60.2854 286.591 60.1352 287.813 59.753C288.905 59.4117 289.881 58.8997 290.659 58.108C291.628 57.1183 292.052 55.9309 292.106 54.6C292.229 51.9381 290.441 49.5899 287.731 48.8664ZM281.151 39.8707C282.086 39.8844 283.022 39.8571 283.936 40.096C285.615 40.5397 286.462 41.6861 286.707 43.1468C286.857 44.0273 286.851 44.9078 286.591 45.7746C286.277 46.8394 285.595 47.5832 284.619 48.0405C284.223 48.0951 282.564 48.2726 280.728 48.0542C280.728 45.4605 280.735 42.874 280.721 40.2803C280.728 39.9732 280.81 39.8639 281.151 39.8707ZM288.066 56.6952C287.39 58.0125 286.243 58.777 284.735 58.9545C283.499 59.0978 282.237 59.0567 280.988 59.1044C280.694 59.1181 280.728 58.9408 280.728 58.7702C280.728 55.6783 280.728 52.5865 280.728 49.4946C280.728 49.4195 280.728 49.3442 280.728 49.2623C281.199 49.2145 282.373 49.1124 283.95 49.167C284.039 49.1806 284.114 49.1805 284.195 49.1873C284.496 49.2487 284.803 49.3032 285.103 49.3919C287.26 50.0676 288.496 51.5967 288.577 53.7058C288.618 54.7296 288.557 55.7397 288.066 56.6952Z" fill="#262626"/>
<path d="M235.551 59.9985C234.158 59.8893 233.216 59.2139 232.67 58.0263C230.623 53.5898 228.582 49.1533 226.534 44.7168C225.599 42.6964 224.664 40.669 223.722 38.6556C223.668 38.5464 223.545 38.4646 223.395 38.3213C223.292 38.683 223.251 38.9082 223.163 39.1198C222.739 40.1095 222.323 41.0924 221.879 42.0753C219.47 47.3649 217.047 52.6476 214.631 57.9373C214.262 58.7427 213.75 59.4321 212.836 59.7529C212.453 59.8826 212.044 59.9508 211.641 60.0122C211.43 60.0463 211.361 60.0941 211.443 60.2988C213.655 60.2988 215.873 60.2988 218.078 60.2988C218.18 60.0395 218.016 60.026 217.825 60.0192C216.808 59.9783 216.126 59.1455 216.569 58.1012C217.211 56.586 217.859 55.0707 218.514 53.5691C218.555 53.4667 218.733 53.3575 218.849 53.3575C221.504 53.3438 224.159 53.3438 226.814 53.3575C226.916 53.3575 227.073 53.4667 227.121 53.5554C227.299 53.924 227.442 54.3063 227.599 54.6885C228.09 55.9035 228.589 57.1184 229.06 58.3402V58.3469L229.845 60.3058C231.831 60.3058 233.817 60.3058 235.803 60.3058C235.906 60.0123 235.728 60.0122 235.551 59.9985ZM219.054 52.286C220.337 49.2897 221.606 46.3206 222.917 43.256C224.173 46.3138 225.388 49.2828 226.623 52.286C224.084 52.286 221.599 52.286 219.054 52.286Z" fill="#262626"/>
<path d="M389.879 60.1902C389.797 60.1288 389.722 60.0332 389.627 60.0059C389.408 59.9513 389.169 59.9512 388.944 59.8966C387.811 59.6372 387.108 58.941 386.658 57.9649C384.501 53.2827 382.337 48.6075 380.18 43.9252C379.361 42.1438 378.535 40.3693 377.716 38.5879C377.641 38.4309 377.6 38.2466 377.341 38.3626C377.273 38.6015 377.225 38.8539 377.123 39.0792C376.693 40.0825 376.269 41.0789 375.812 42.0686C373.41 47.331 371.007 52.5936 368.591 57.856C368.407 58.2587 368.154 58.6475 367.867 58.9888C367.301 59.644 366.516 59.9238 365.636 59.9852C365.451 59.9989 365.281 60.006 365.39 60.2722C367.608 60.2722 369.826 60.2722 372.044 60.2722C372.154 60.0265 372.017 59.9991 371.813 59.9922C370.748 59.9513 370.092 59.0982 370.536 58.0539C371.178 56.5319 371.826 55.0164 372.488 53.5011C372.529 53.4056 372.693 53.3032 372.795 53.3032C375.471 53.2895 378.146 53.2895 380.822 53.3032C380.924 53.3032 381.081 53.3921 381.115 53.4808C381.361 54.0746 381.593 54.6753 381.839 55.2691L381.853 55.2621L383.859 60.2722C385.852 60.2722 387.838 60.2722 389.818 60.2722C389.838 60.2517 389.859 60.2243 389.879 60.1902ZM373.021 52.2524C374.304 49.2492 375.58 46.2663 376.897 43.2017C378.153 46.2663 379.375 49.2424 380.617 52.2524C378.071 52.2524 375.567 52.2524 373.021 52.2524Z" fill="#262626"/>
<path d="M354.722 56.8043C354.708 57.6165 354.217 58.3466 353.459 58.8039C353.118 59.0086 352.681 59.1727 352.285 59.1795C350.845 59.2068 348.804 59.1998 347.009 59.1998V59.1931C346.34 59.1931 345.678 59.1863 345.01 59.1931C344.859 59.1931 344.764 59.1726 344.709 59.1112C344.661 59.0566 344.641 58.9679 344.641 58.8382C344.641 58.77 344.641 58.6948 344.641 58.6266C344.641 58.0805 344.641 57.5276 344.641 56.9816C344.648 54.8316 344.648 52.6818 344.641 50.5318C344.641 50.2861 344.716 50.1903 344.989 50.1972C346.573 50.204 348.873 50.1973 350.456 50.2042C351.18 50.211 351.808 50.4632 352.163 51.0707C352.354 51.3983 352.388 51.7942 352.504 52.1628C352.538 52.2788 352.613 52.3745 352.668 52.4837C352.715 52.3745 352.77 52.2583 352.818 52.1491C352.825 52.1287 352.818 52.1016 352.818 52.0811C352.818 50.4908 352.818 48.9004 352.818 47.31C352.818 47.2213 352.831 47.1258 352.804 47.0371C352.79 46.9893 352.709 46.9211 352.661 46.9211C352.613 46.9211 352.531 46.9893 352.517 47.0371C352.49 47.119 352.504 47.2145 352.497 47.31C352.429 48.4158 351.589 49.1597 350.415 49.1597C348.859 49.1597 346.579 49.153 345.023 49.1667C344.709 49.1667 344.634 49.0779 344.634 48.7981C344.641 45.9451 344.641 43.092 344.634 40.239C344.634 39.9592 344.716 39.8703 345.023 39.8771C347.043 39.8908 349.541 39.8636 351.562 39.8978C351.958 39.9046 352.394 40.0683 352.736 40.273C353.493 40.7303 353.746 41.4608 353.76 42.273C353.76 42.43 353.698 42.6415 354.033 42.5869C354.033 41.3106 354.033 40.041 354.033 38.7646H351.398C351.104 38.7851 350.811 38.7986 350.517 38.7986C347.112 38.8055 342.982 38.7986 339.577 38.7986C339.467 38.7986 339.358 38.7852 339.249 38.8056C339.194 38.8193 339.146 38.8808 339.092 38.915C339.14 38.9696 339.181 39.0376 339.242 39.0649C339.304 39.0922 339.385 39.0786 339.46 39.0786C340.86 39.181 341.583 40.1162 341.583 41.0922C341.583 46.7095 341.583 52.3198 341.583 57.937C341.583 58.7288 341.174 59.3638 340.505 59.705C340.395 59.7596 340.279 59.8074 340.157 59.8484C340.15 59.8484 340.15 59.8482 340.143 59.855C340.02 59.896 339.891 59.9234 339.754 59.9507C339.597 59.978 339.44 59.971 339.283 59.9983C339.276 59.9983 339.269 60.0053 339.262 60.0053C339.256 60.0053 339.249 60.0053 339.249 60.0053C339.242 60.0053 339.242 60.0122 339.235 60.019C339.187 60.0463 339.14 60.0802 339.092 60.1143C339.099 60.1211 339.112 60.1281 339.119 60.135C339.112 60.1418 339.105 60.1486 339.092 60.1623C339.146 60.2032 339.188 60.2648 339.249 60.2716C339.283 60.2784 339.324 60.2783 339.358 60.2783H341.051H345.938H354.51C354.783 59.0565 354.988 57.753 354.988 56.4903C354.661 56.4357 354.722 56.6541 354.722 56.8043Z" fill="#262626"/>
<path d="M419.72 59.9575C419.44 59.8961 419.147 59.8893 418.867 59.8279C417.912 59.6163 417.188 59.1044 416.587 58.5038C414.246 56.1559 410.779 52.5316 408.458 50.17C408.076 49.7878 407.694 49.3988 407.319 49.0166C407.196 48.8937 407.127 48.8119 407.086 48.7436L406.643 48.2794L406.711 48.2111L406.704 48.1837C406.725 48.1564 406.738 48.1429 406.766 48.1088C408.888 45.7881 411.032 43.4813 413.134 41.1471C414.178 39.9867 415.413 39.2288 417.065 39.1538C417.154 39.1469 417.236 39.0651 417.318 39.0241C417.222 38.9763 417.133 38.8945 417.038 38.8945C414.874 38.8877 412.711 38.8877 410.54 38.8945C410.438 38.8945 410.335 38.9628 410.233 39.0038C410.335 39.0516 410.431 39.1335 410.54 39.1471C410.95 39.1881 411.291 39.2973 411.482 39.6863C411.666 40.0686 411.509 40.3687 411.27 40.6622C410.806 41.2287 410.335 41.7955 409.858 42.3552C408.588 43.8704 407.319 45.3787 406.049 46.894L404.22 48.8186C404.22 47.5559 404.22 46.2934 404.22 45.0307V38.8125C402.473 38.8125 400.732 38.8127 398.985 38.8195C398.869 38.8195 398.753 38.908 398.637 38.9558C398.746 38.9968 398.848 39.0721 398.957 39.0858C400.268 39.2018 401.128 39.9662 401.128 41.0924C401.135 46.7302 401.135 52.3678 401.128 58.0056C401.128 58.6198 400.855 59.1181 400.363 59.5276C399.947 59.8689 399.442 59.9646 398.916 60.0192C398.814 60.0328 398.725 60.1009 398.63 60.1418C398.732 60.1896 398.835 60.2442 398.937 60.2851C398.992 60.3056 399.06 60.2851 399.121 60.2851C400.302 60.2851 401.483 60.2851 402.664 60.2851C403.879 60.2851 405.093 60.2851 406.315 60.2851C406.397 60.2851 406.493 60.2989 406.568 60.2785C406.629 60.258 406.677 60.1829 406.725 60.1352C406.67 60.0942 406.629 60.0397 406.568 60.0192C406.499 59.9987 406.424 60.0123 406.349 60.0055C405.087 59.8963 404.213 59.1046 404.213 58.0399C404.213 55.6647 404.213 53.2825 404.213 50.9072L404.677 50.402C406.861 52.6339 409.967 55.9172 412.062 58.0399C412.465 58.4494 412.902 58.8452 413.4 59.166C414.335 59.7666 415.448 60.0669 416.635 60.1488C417.734 60.2239 418.833 60.2444 419.932 60.2921C419.952 60.2444 419.98 60.2033 420 60.1555C419.911 60.0804 419.823 59.9848 419.72 59.9575Z" fill="#262626"/>
</svg>
