<svg width="207" height="309" viewBox="0 0 207 309" fill="none" xmlns="http://www.w3.org/2000/svg">
<path d="M110.936 0.049996C126.758 -0.440119 140.915 2.69662 155.66 8.43097C160.951 10.4895 166.192 13.0381 170.846 16.4199C176.283 20.3408 180.496 23.8696 185.346 30.4372C189.853 36.5636 193.722 43.0821 196.662 50.1398C199.748 57.4915 201.854 65.1863 203.52 73.0282C204.842 79.3997 205.577 85.8202 206.214 92.2897C206.753 97.583 207.145 102.925 206.949 108.218C206.753 115.031 206.557 121.893 205.528 128.656C204.206 137.527 201.56 146.006 197.886 154.142C195.388 159.681 192.792 165.219 189.265 170.218C178.39 185.51 164.184 195.9 145.912 200.36C138.172 202.272 130.481 204.183 122.594 205.359C116.079 206.34 109.515 206.83 102.951 206.977C96.5827 207.075 90.2144 206.879 83.8462 206.095C69.8361 204.379 56.218 201.046 43.4325 194.724C37.1623 191.636 31.7738 187.372 26.6302 182.618C19.2333 175.805 14.5306 167.326 10.9546 158.063C6.7908 147.183 3.5577 136.057 1.74521 124.539C0.961427 119.687 0.716496 114.737 0.324606 109.836C0.0796743 106.503 -0.0672845 103.121 0.0306881 99.7395C0.177647 94.6423 0.422578 89.5451 0.814469 84.4969C1.4023 76.9001 2.87189 69.4013 4.92932 62.0986C8.60329 49.2086 15.2164 38.0339 24.4259 28.4277C30.5002 22.1052 37.2603 16.861 45.245 13.3321C51.2214 10.7345 57.3446 7.89184 63.6149 6.22545C69.3463 4.70609 80.6131 2.35354 89.3327 1.37331C95.0641 0.736158 100.844 0.442088 106.576 0.049996C108.045 -0.0480271 109.466 0.049996 110.936 0.049996ZM30.8431 32.2506C30.99 31.9565 30.6471 31.9075 30.4022 32.0545C30.0593 32.2996 29.9613 32.3976 29.6674 32.6427C25.1607 36.9557 24.4259 37.9359 20.5559 42.8371C19.6252 44.0133 18.7434 45.3367 17.9597 46.66C12.3262 56.1192 9.24011 66.4606 7.81951 77.3902C7.37863 80.821 7.1337 84.3008 6.93775 87.7807C6.69282 91.9957 6.74181 96.2106 6.59485 100.426C6.54586 101.651 6.83978 103.513 7.32964 104.641C8.70126 107.679 10.2198 109.689 12.4732 112.139C15.1674 115.08 20.36 118.07 23.985 119.148C28.8346 120.618 36.7704 121.599 44.0694 121.697C51.6622 121.795 59.9899 121.207 69.5422 119.001C74.3429 117.923 79.5354 116.011 84.0912 114.149C95.456 109.493 106.38 104.003 117.059 97.926C126.611 92.4858 136.311 86.1633 145.863 80.772C151.3 77.7333 156.542 75.5768 162.665 74.0084C167.907 72.6851 173.197 71.8519 178.586 71.5088C182.162 71.2638 185.738 71.3128 189.265 70.7736C192.547 70.2345 194.016 67.6859 193.331 64.7452C192.351 60.6773 191.763 57.0994 190.244 53.2275C189.265 50.7279 188.285 48.0323 187.158 45.5817C185.885 42.8861 184.415 40.2885 182.505 37.2007C177.263 28.9178 171.434 24.4087 163.4 19.6546C158.746 16.91 153.848 14.3614 148.655 12.695C141.846 10.4895 134.792 9.11713 127.738 8.03888C122.447 7.25469 117.108 6.51952 111.768 6.56853C107.017 6.61754 102.216 6.8626 97.5134 7.35272C91.831 7.89184 87.9611 8.47998 82.9155 9.50922C81.4949 9.80329 80.4662 10.1954 79.1925 10.6365C78.6047 10.8325 78.1638 11.6167 79.1925 11.8618C80.6621 12.2049 81.7888 12.744 82.7195 13.0871C83.7483 13.4792 85.6587 14.8025 87.0303 15.7337C91.733 18.9685 96.0438 23.9676 98.934 30.2901C100.991 34.7012 101.726 39.3572 102.069 44.1604C102.461 49.3556 101.481 54.1097 100.11 59.0109C98.1992 65.8725 94.0844 72.9792 88.108 76.8021C73.804 85.9672 56.8058 84.938 42.5508 75.8218C35.7907 71.6068 30.5981 65.4314 28.9326 57.4425C26.9731 47.8853 25.8465 43.1311 29.8633 34.3091C30.1083 33.8189 30.7941 32.4466 30.8431 32.2506ZM125.583 151.398C120.341 151.251 115.099 151.104 109.858 151.055C105.743 151.006 101.628 151.055 97.5624 151.104C90.8023 151.153 84.0422 151.545 77.331 152.427C67.4358 153.799 57.7855 156.201 48.5761 160.073C42.6488 162.572 36.9174 165.415 31.9697 169.679C30.5981 170.855 30.0593 172.326 30.4512 174.09C30.941 176.541 32.0187 178.697 33.5863 180.609C38.093 185.902 43.4815 189.97 49.7028 192.959C54.9443 195.508 60.4798 197.125 66.1132 198.351C71.2567 199.429 76.4003 200.311 81.5439 201.242C84.483 201.732 87.4222 201.242 90.3124 200.948C96.9256 200.311 102.902 198.106 108.094 193.793C109.907 192.322 111.817 190.901 113.728 189.627C120.782 185.02 128.522 181.785 136.457 179.04C142.14 177.08 149.096 175.462 154.68 173.257C168.788 169.336 172.071 164.19 180.692 158.553C184.464 156.103 188.236 153.603 191.322 150.27C192.106 149.437 192.743 148.408 193.38 147.477C193.673 147.036 193.429 146.742 192.939 146.791C192.253 146.889 191.567 146.938 190.881 147.134C183.631 149.339 176.234 150.76 168.739 151.545C160.951 152.378 153.162 152.28 145.373 152.035C138.907 151.888 132.245 151.643 125.583 151.398ZM123.084 149.78C127.101 149.78 132.392 149.78 137.682 149.78C147.136 149.78 156.591 149.388 165.996 148.261C172.658 147.477 179.174 146.055 185.444 143.654C190.244 141.84 194.408 139.194 197.641 135.077C202.883 128.411 201.805 117.531 193.38 112.531C190.244 110.669 184.219 105.964 172.462 108.905C167.858 109.787 163.547 111.747 159.236 113.512C150.712 116.992 142.336 120.912 133.763 124.196C114.463 132.724 100.11 134.783 82.2787 136.057C74.6368 136.596 67.0439 136.498 59.4511 135.763C52.446 135.077 45.49 133.901 38.5829 132.479C29.3245 130.568 20.36 127.97 11.6894 124.196C11.2485 124 10.8077 123.853 10.3668 123.755C9.77896 123.608 9.33808 123.804 9.33808 124.49C9.33808 126.108 9.24011 127.725 9.48504 129.293C10.6607 137.037 12.7671 144.585 15.5593 151.937C16.882 155.368 18.3516 158.749 19.8211 162.131C20.6539 164.092 22.0745 165.464 24.3279 165.415C25.4056 165.366 26.4833 165.023 27.512 164.582C28.6877 164.141 29.8143 163.454 30.941 162.866C42.3058 157.377 54.3565 154.093 66.75 152.084C79.1925 150.074 91.684 149.192 104.274 149.339C110.103 149.486 115.981 149.633 123.084 149.78ZM28.9816 125.274C28.9326 125.373 28.8836 125.471 28.8346 125.569C28.9816 125.618 29.0796 125.667 29.2265 125.765C29.5204 125.961 29.8143 126.206 30.1573 126.353C33.3903 127.823 36.6724 129.048 40.1015 129.882C46.2737 131.352 52.495 132.381 58.8632 132.577C63.8108 132.724 68.8074 132.871 73.755 132.283C76.2533 131.989 79.2415 131.842 81.7398 131.548C86.7854 130.96 91.3411 130.323 96.3377 129.538C106.331 127.921 116.03 125.422 125.632 122.187C138.613 117.776 151.349 113.316 164.38 108.905C177.312 104.543 184.317 105.719 193.918 109.885C196.172 110.865 198.474 111.845 200.776 112.728C202.589 113.414 203.471 112.826 203.814 110.865C203.912 110.179 204.01 109.493 204.059 108.758C204.45 102.337 204.059 95.9166 202.687 89.5941C201.658 84.84 199.209 81.3111 194.114 80.2329C189.51 79.2526 184.905 78.7135 180.202 78.2724C169.915 77.3902 162.322 79.3997 158.599 80.4289C152.084 82.2424 147.283 84.7419 141.895 87.5356C136.702 90.2802 131.363 92.7798 126.513 96.0146C113.973 103.023 103.539 108.513 92.2719 113.708C82.0337 117.972 68.9054 122.334 60.5287 124C55.973 124.931 51.3193 125.716 46.6656 125.863C41.2771 126.059 38.6809 125.961 33.2434 125.52C31.7738 125.373 30.3532 125.373 28.9816 125.274ZM32.4596 48.7185C32.6066 52.6394 32.8515 56.1682 34.0272 59.55C35.6927 64.4512 38.6809 68.4211 42.3059 71.9989C47.7923 77.4392 54.4544 79.8408 61.9983 79.6938C66.848 79.5957 71.5997 78.6645 76.2534 77.2432C81.5929 75.6258 86.1976 72.7341 89.8225 68.3721C94.4762 62.7848 96.4357 56.1682 96.8766 49.1105C97.5624 38.475 93.3496 29.8 85.3648 23.1344C72.4324 12.3519 53.2298 13.4301 41.3751 25.487C37.8971 29.0158 35.1049 33.0838 33.8312 37.9849C32.8515 41.6608 32.5086 45.3857 32.4596 48.7185ZM184.709 163.896C184.66 163.847 184.562 163.847 184.513 163.798C184.513 162.67 183.729 161.935 182.652 162.131C181.917 162.278 181.182 162.474 180.545 162.817C178.537 163.847 176.528 164.876 174.569 166.003C165.751 172.277 157.865 175.903 148.802 178.795C142.483 180.854 136.213 182.03 129.942 184.235C123.476 186.49 117.255 189.333 111.915 193.744C108.486 196.586 105.106 199.576 101.677 202.468C101.481 202.664 101.334 202.909 101.187 203.154C101.481 203.252 101.824 203.497 102.118 203.497C103.294 203.448 104.42 203.301 105.596 203.252C112.307 202.762 119.018 202.37 125.681 201.242C134.694 199.723 143.512 197.517 152.084 194.332C165.555 189.333 175.989 180.756 183.043 168.062C183.827 166.787 184.219 165.317 184.709 163.896Z" fill="white"/>
<path d="M14.8009 262.869H11.1595V267.537C11.1595 267.83 9.86419 268.857 7.8113 268.857H7.07812V237.135L11.7216 238.943H14.3854L16.1451 236.621L20.7396 240.018C20.4464 240.36 19.7865 240.752 18.9311 240.923V265.46C18.9311 265.557 17.8069 266.755 14.8253 266.755V262.869H14.8009ZM14.8009 239.798H11.1595V250.307H14.8009V239.798ZM11.1595 262.014H14.8009V251.163H11.1595V262.014ZM44.2746 265.826L44.3723 270.299C45.8387 270.909 46.0098 271.032 46.0098 271.765C46.0098 273.353 44.7145 274.087 41.5374 274.087H37.3338C33.2036 274.087 32.666 273.451 32.666 269.37V261.427H29.1956C28.6824 267.39 27.0449 271.887 14.9964 274.82L14.5321 274.184C23.6723 270.763 24.4299 266.633 24.5766 261.452H19.4199L19.1511 260.596H39.4356L41.6351 257.859L45.7409 260.694C45.4477 261.305 44.9344 261.476 43.7614 261.476H36.8451V269.419C36.8451 270.445 36.8451 270.543 37.6516 270.543H41.3907C41.7329 270.543 42.0751 270.543 42.4661 270.103C42.8571 269.541 43.5414 267.659 44.0057 265.899H44.2746V265.826ZM31.7373 255.073C29.5377 255.879 26.3362 257.052 21.8638 258.494C21.595 259.056 21.1795 259.301 20.7152 259.399L19.1266 255.268L23.1591 255.048V251.309H19.8109L19.5421 250.454H23.1347V246.153L28.1203 246.617C28.0714 247.057 27.7292 247.252 26.8005 247.399V250.454H27.2649L28.7557 248.401L31.664 250.601C31.3707 251.163 30.8086 251.334 29.7821 251.334H26.7761V254.804L31.6151 254.413L31.7373 255.073ZM21.8394 239.921L21.5706 239.065H29.5377V234.52L35.7942 235.082C35.7453 235.717 35.3298 236.035 33.9612 236.206V239.09H36.9673L39.1912 236.426L43.4436 239.163C43.1504 239.774 42.5883 239.945 41.4641 239.945H33.9857V244.491H39.0935L41.3663 241.656L45.6187 244.613C45.3255 245.175 44.7634 245.346 43.6147 245.346H19.8109L19.591 244.491H29.5377V239.921H21.8394ZM46.2053 256.222C45.912 256.784 45.3988 256.955 44.3235 256.955H31.1507L30.8819 256.099H36.063V251.334H32.3238L32.1039 250.478H36.0386V246.275L41.2197 246.739C41.1219 247.203 40.8287 247.423 39.9 247.546V250.454H40.7553L42.3928 248.23L45.5699 250.601C45.2277 251.163 44.7145 251.334 43.6392 251.334H39.9V256.099H41.2197L42.9304 253.778L46.2053 256.222Z" fill="white"/>
<path d="M115.393 247.594C115.955 246.225 116.64 243.683 116.982 241.899H90.1719C90.4652 245.492 88.8033 248.302 86.0173 248.302C84.6976 248.302 83.4756 247.618 83.4756 246.25C83.4756 245.223 84.2821 244.368 85.2841 243.855C86.946 243.073 88.8033 240.971 88.8033 238.527H89.4388C89.732 239.431 89.952 240.286 90.0742 241.068H101.023V234.299L107.548 234.91C107.45 235.545 107.084 235.863 105.74 236.058V241.044H116.688L119.181 238.6L123.483 242.681C123.14 243.024 122.676 243.146 121.821 243.195C120.354 244.685 117.837 246.763 115.858 247.911L115.393 247.594ZM115.735 256.441L117.886 252.848L123.165 255.585C122.896 256.196 122.358 256.49 121.283 256.612L103.785 258.934V268.147C103.785 269.516 103.956 269.687 105.764 269.687H115.295C116.273 269.687 116.884 269.589 117.348 268.905C117.862 268.22 118.595 265.996 119.621 262.893H119.963L119.89 269.149C121.723 269.785 121.992 270.102 121.992 270.738C121.992 272.571 120.623 273.524 115.222 273.524H105.789C100.51 273.524 99.2144 272.546 99.2144 268V259.496L83.8666 261.549L83.5245 260.693L99.2144 258.591V250.258C95.5241 251.04 91.6627 251.626 87.9235 251.968L87.7036 251.333C95.4997 249.5 104.64 245.883 109.186 242.975L113.951 246.836C113.731 247.056 113.34 247.227 112.827 247.227C112.436 247.227 111.972 247.129 111.361 246.934C109.528 247.618 107.377 248.302 105.007 248.913L105.349 248.962C105.251 249.476 105.007 249.769 103.76 249.989V258.054L115.735 256.441Z" fill="white"/>
<path d="M193.623 244.979L200.026 245.541C199.928 246.152 199.586 246.494 198.315 246.665V272.571C198.315 272.644 197.631 274.037 193.647 274.037V268.929H168.255V273.231C168.255 273.328 167.619 274.648 163.709 274.648V245.101L170.014 245.663C169.917 246.274 169.574 246.641 168.255 246.787V268.074H178.544V235.203L185.02 235.814C184.922 236.45 184.458 236.792 183.187 236.963V268.074H193.647V244.979H193.623Z" fill="white"/>
<path d="M9.13127 308.839C7.54273 308.839 5.92975 308.839 4.3412 308.839C4.29232 308.839 4.219 308.863 4.17012 308.839C4.0968 308.814 4.04793 308.765 3.97461 308.741C4.04793 308.692 4.0968 308.619 4.17012 308.619C4.68334 308.594 5.12325 308.472 5.51428 308.13C5.9053 307.763 6.07637 307.323 6.07637 306.835C6.07637 302.265 6.07637 297.67 6.07637 293.1C6.07637 292.073 5.41651 291.438 4.31675 291.365C4.24343 291.365 4.17012 291.365 4.12124 291.34C4.07236 291.316 4.02349 291.267 4.02349 291.218C4.02349 291.194 4.09681 291.12 4.14569 291.12C4.219 291.096 4.31676 291.12 4.39008 291.12C7.42054 291.12 9.86446 291.096 12.8949 291.12C14.679 291.145 16.4142 291.414 18.0027 292.196C19.2247 292.807 20.2756 293.613 21.082 294.688C21.7419 295.568 22.1818 296.521 22.4506 297.548C22.7195 298.599 22.7683 299.698 22.695 300.798C22.5973 302.216 22.2062 303.535 21.4242 304.733C20.4466 306.248 19.0536 307.348 17.294 308.032C15.8521 308.594 14.3368 308.814 12.7727 308.839C11.3552 308.863 10.5487 308.839 9.13127 308.839ZM8.61806 291.976C8.61806 292.073 8.59361 292.122 8.59361 292.171C8.59361 297.352 8.59361 302.533 8.59361 307.739C8.59361 307.959 8.69137 308.008 8.88688 308.008C10.3532 308.008 11.2086 308.032 12.6505 307.983C13.2615 307.983 13.8725 307.91 14.459 307.788C16.6341 307.323 18.076 306.028 19.0047 304.171C19.6646 302.875 19.8845 301.482 19.8845 300.065C19.8845 298.965 19.7623 297.865 19.4202 296.815C19.078 295.788 18.5648 294.835 17.8072 294.053C16.4386 292.611 14.679 291.976 12.6505 291.976C11.2086 291.976 10.3777 291.976 8.93576 291.976H8.61806V291.976Z" fill="white"/>
<path d="M65.4391 299.82C65.9768 298.965 66.4656 298.159 66.9299 297.377C67.7853 296.008 68.6162 294.615 69.4716 293.246C69.6916 292.88 69.8871 292.538 69.716 292.098C69.5205 291.633 69.1539 291.413 68.6407 291.365C68.5429 291.365 68.4696 291.291 68.3718 291.242C68.4696 291.193 68.5674 291.12 68.6651 291.12C70.5225 291.12 72.3799 291.12 74.2373 291.12C74.335 291.12 74.4083 291.193 74.5061 291.218C74.4328 291.267 74.335 291.34 74.2617 291.34C72.942 291.365 71.9888 292.024 71.329 293.002C69.5938 295.544 67.9075 298.134 66.1968 300.7C66.1234 300.822 66.099 300.969 66.0746 301.116C66.0746 303.022 66.099 304.928 66.0501 306.835C66.0257 307.739 66.7344 308.57 67.8342 308.619C67.9319 308.619 68.0052 308.692 68.103 308.716C68.0052 308.765 67.9075 308.839 67.8342 308.839C65.8057 308.839 63.7528 308.839 61.7244 308.839C61.6755 308.839 61.6266 308.863 61.5778 308.839C61.5289 308.814 61.48 308.765 61.4556 308.716C61.5044 308.692 61.5533 308.619 61.6022 308.619C61.7977 308.594 61.9932 308.594 62.1887 308.545C62.9952 308.374 63.5573 307.714 63.5573 306.883C63.5818 304.953 63.5573 303.022 63.5573 301.091C63.5573 300.969 63.5084 300.847 63.4596 300.749C61.7977 298.159 60.1603 295.592 58.4984 293.026C58.0341 292.293 57.3742 291.731 56.47 291.487C56.1767 291.413 55.859 291.413 55.5413 291.365C55.4435 291.34 55.3702 291.291 55.2969 291.242C55.3946 291.193 55.4679 291.145 55.5657 291.145C56.4211 291.145 57.3009 291.145 58.1563 291.145C59.5493 291.145 60.9423 291.145 62.3354 291.145C62.4331 291.145 62.5064 291.145 62.6042 291.169C62.6531 291.169 62.7019 291.242 62.7019 291.267C62.7019 291.316 62.6531 291.365 62.6042 291.389C62.5553 291.413 62.5064 291.413 62.4576 291.413C61.4311 291.438 61.0645 292.415 61.48 293.1C62.091 294.102 62.6531 295.153 63.264 296.155C63.9239 297.303 64.5838 298.452 65.2681 299.576C65.2925 299.625 65.3414 299.698 65.4391 299.82Z" fill="white"/>
<path d="M127.246 308.594C127.197 308.57 127.124 308.57 127.075 308.57C126.097 308.521 125.315 308.081 124.631 307.47C123.336 306.297 122.309 304.904 121.283 303.535C120.672 302.729 120.11 301.898 119.279 301.238C119.059 301.067 118.814 300.896 118.546 300.725C118.619 300.701 118.643 300.676 118.692 300.676C118.741 300.676 118.814 300.652 118.863 300.652C120.183 300.505 121.185 299.845 121.943 298.868C122.725 297.841 123.042 296.693 122.945 295.446C122.847 293.906 122.138 292.709 120.745 291.902C119.816 291.365 118.766 291.145 117.69 291.145C114.978 291.096 112.265 291.12 109.528 291.12C109.454 291.12 109.381 291.194 109.308 291.218C109.381 291.267 109.454 291.316 109.528 291.34C109.919 291.389 110.31 291.438 110.652 291.682C111.189 292.073 111.385 292.587 111.385 293.198C111.385 296.912 111.385 300.603 111.385 304.318C111.385 305.173 111.385 306.028 111.385 306.884C111.409 307.812 110.676 308.594 109.772 308.643C109.674 308.643 109.576 308.643 109.479 308.668C109.405 308.692 109.356 308.741 109.308 308.79C109.356 308.814 109.43 308.863 109.479 308.888C109.528 308.912 109.576 308.888 109.625 308.888C111.629 308.888 113.633 308.888 115.637 308.888C115.711 308.888 115.808 308.888 115.882 308.863C115.931 308.863 115.98 308.79 115.98 308.765C115.98 308.717 115.931 308.668 115.882 308.643C115.833 308.619 115.76 308.643 115.711 308.619C114.538 308.497 113.927 307.886 113.927 306.786C113.927 304.782 113.927 302.778 113.927 300.774C114.562 300.774 115.344 300.774 116.175 300.847C116.444 301.067 116.688 301.336 116.884 301.605C117.935 303.096 118.937 304.635 119.988 306.126C120.256 306.517 120.599 306.908 120.941 307.25C121.894 308.13 123.042 308.692 124.387 308.79C125.34 308.863 126.293 308.863 127.246 308.863C127.295 308.863 127.368 308.79 127.417 308.765C127.344 308.668 127.295 308.619 127.246 308.594ZM115.637 299.87C115.173 299.87 114.562 299.845 113.902 299.796V292.44C113.902 292.342 113.902 292.245 113.902 292.147C113.902 292 113.976 291.927 114.147 291.927C115.173 291.951 116.224 291.927 117.25 292C118.375 292.073 119.157 292.709 119.645 293.589C120.256 294.713 120.305 295.91 120.012 297.108C119.694 298.379 118.888 299.307 117.495 299.625C116.908 299.821 116.273 299.845 115.637 299.87Z" fill="white"/>
<path d="M93.6172 299.405C93.3239 299.332 93.0307 299.258 92.7374 299.185C93.2262 298.916 93.7394 298.721 94.1549 298.427C95.3035 297.596 95.6945 296.423 95.6212 295.104C95.5723 294.077 95.1813 293.197 94.3504 292.513C93.1773 291.511 91.7109 291.169 90.1713 291.12C87.9229 291.047 85.6745 291.096 83.4261 291.096C83.3527 291.096 83.255 291.169 83.1817 291.218C83.255 291.242 83.3527 291.316 83.4261 291.316C84.648 291.389 85.2834 292.171 85.259 293.173C85.2346 296.717 85.2346 300.26 85.2346 303.804C85.2346 304.855 85.2346 305.881 85.2346 306.932C85.2346 307.836 84.6236 308.472 83.6949 308.594C83.5727 308.618 83.4505 308.618 83.3283 308.643C83.255 308.667 83.2061 308.716 83.1572 308.765C83.2061 308.79 83.2794 308.838 83.3283 308.863C83.3772 308.887 83.4261 308.863 83.4749 308.863C85.8211 308.863 88.1673 308.863 90.5134 308.863C91.5643 308.863 92.6152 308.741 93.6416 308.423C94.5459 308.154 95.3524 307.714 95.9878 307.054C96.7943 306.223 97.1364 305.246 97.1853 304.146C97.332 301.947 95.8412 299.991 93.6172 299.405ZM88.1673 291.951C88.9493 291.951 89.7069 291.951 90.4645 292.146C91.8576 292.513 92.5663 293.466 92.7618 294.664C92.884 295.397 92.884 296.13 92.6641 296.839C92.3952 297.719 91.8331 298.33 91.0267 298.721C90.7089 298.769 89.3159 298.916 87.8007 298.721C87.8007 296.57 87.8007 294.419 87.8007 292.293C87.8007 292.024 87.874 291.951 88.1673 291.951ZM93.886 305.881C93.3239 306.981 92.3708 307.616 91.1244 307.763C90.098 307.885 89.0471 307.836 88.0206 307.885C87.7762 307.885 87.8007 307.739 87.8007 307.616C87.8007 305.05 87.8007 302.509 87.8007 299.943V299.747C88.1917 299.698 89.1693 299.625 90.4645 299.674C90.5379 299.674 90.6112 299.674 90.6601 299.698C90.9045 299.747 91.1733 299.796 91.4177 299.869C93.2017 300.431 94.2282 301.702 94.3015 303.437C94.3504 304.244 94.2771 305.075 93.886 305.881Z" fill="white"/>
<path d="M50.4092 308.619C49.2606 308.521 48.4785 307.959 48.0142 306.981C46.3279 303.315 44.6171 299.625 42.9308 295.959C42.1487 294.273 41.3911 292.611 40.6091 290.949C40.5602 290.851 40.4624 290.802 40.3402 290.68C40.2425 290.973 40.2181 291.169 40.1447 291.34C39.8026 292.147 39.4604 292.977 39.0694 293.784C37.0654 298.159 35.0614 302.533 33.0818 306.908C32.7885 307.568 32.3486 308.154 31.591 308.423C31.2733 308.521 30.9312 308.594 30.6134 308.643C30.4424 308.667 30.3691 308.716 30.4424 308.887H35.9412C36.0145 308.667 35.8923 308.667 35.7457 308.643C34.9147 308.619 34.3282 307.91 34.7192 307.054C35.2569 305.808 35.7946 304.537 36.3322 303.291C36.3567 303.217 36.5033 303.12 36.6011 303.12C38.8006 303.12 41.0001 303.12 43.1996 303.12C43.2974 303.12 43.4196 303.217 43.444 303.291C43.5907 303.609 43.7129 303.926 43.835 304.219C44.2505 305.221 44.666 306.224 45.057 307.25L45.7169 308.863H50.6047C50.7025 308.619 50.5558 308.619 50.4092 308.619ZM36.7477 302.215C37.7986 299.723 38.8495 297.279 39.9492 294.737C41.0001 297.279 42.0021 299.723 43.0286 302.215H36.7477Z" fill="white"/>
<path d="M178.178 308.765C178.104 308.716 178.055 308.643 177.958 308.619C177.762 308.57 177.591 308.57 177.395 308.521C176.467 308.301 175.88 307.739 175.514 306.932C173.73 303.047 171.946 299.185 170.161 295.299C169.477 293.833 168.793 292.367 168.109 290.876C168.06 290.754 168.011 290.583 167.791 290.68C167.742 290.876 167.693 291.096 167.62 291.267C167.278 292.098 166.911 292.929 166.544 293.735C164.565 298.085 162.561 302.46 160.557 306.81C160.41 307.152 160.19 307.47 159.946 307.739C159.482 308.277 158.822 308.521 158.089 308.57C157.942 308.57 157.795 308.594 157.893 308.814H163.416C163.514 308.619 163.392 308.594 163.221 308.57C162.341 308.545 161.803 307.837 162.17 306.957C162.708 305.71 163.245 304.44 163.783 303.193C163.807 303.12 163.954 303.022 164.027 303.022C166.251 303.022 168.451 303.022 170.675 303.022C170.748 303.022 170.895 303.095 170.919 303.169C171.115 303.658 171.31 304.146 171.506 304.66L173.167 308.814H178.104C178.153 308.814 178.153 308.79 178.178 308.765ZM164.223 302.191C165.298 299.698 166.349 297.23 167.424 294.688C168.475 297.23 169.477 299.698 170.504 302.191H164.223Z" fill="white"/>
<path d="M149.07 305.979C149.07 306.663 148.655 307.25 148.019 307.641C147.726 307.812 147.384 307.959 147.042 307.959C145.844 307.983 144.158 307.983 142.667 307.983C142.105 307.983 141.567 307.983 141.005 307.983C140.883 307.983 140.81 307.959 140.761 307.91C140.712 307.861 140.712 307.788 140.712 307.69C140.712 307.641 140.712 307.568 140.712 307.519C140.712 307.054 140.712 306.615 140.712 306.15C140.712 304.366 140.712 302.582 140.712 300.798C140.712 300.603 140.785 300.529 141.005 300.529C142.325 300.529 144.231 300.529 145.526 300.529C146.137 300.529 146.65 300.749 146.944 301.238C147.09 301.507 147.139 301.849 147.237 302.142C147.261 302.24 147.335 302.313 147.384 302.411C147.433 302.313 147.457 302.216 147.506 302.142C147.506 302.118 147.506 302.093 147.506 302.093C147.506 300.774 147.506 299.454 147.506 298.134C147.506 298.061 147.506 297.988 147.481 297.914C147.457 297.865 147.408 297.816 147.359 297.816C147.31 297.816 147.261 297.865 147.237 297.914C147.213 297.988 147.237 298.061 147.213 298.134C147.164 299.038 146.455 299.674 145.477 299.674C144.182 299.674 142.3 299.674 141.005 299.674C140.736 299.674 140.687 299.601 140.687 299.381C140.687 297.01 140.687 294.664 140.687 292.293C140.687 292.049 140.761 292 141.005 292C142.667 292 144.744 292 146.406 292.024C146.724 292.024 147.09 292.171 147.384 292.342C148.019 292.709 148.215 293.32 148.239 294.004C148.239 294.126 148.19 294.297 148.459 294.273V291.096H146.284C146.04 291.12 145.795 291.12 145.551 291.12C142.74 291.12 139.319 291.12 136.484 291.12C136.386 291.12 136.288 291.12 136.215 291.12C136.166 291.12 136.117 291.169 136.093 291.218C136.142 291.267 136.166 291.316 136.215 291.34C136.264 291.365 136.337 291.34 136.386 291.365C137.535 291.438 138.146 292.22 138.146 293.026C138.146 297.67 138.146 302.313 138.146 306.981C138.146 307.641 137.803 308.154 137.266 308.448C137.168 308.496 137.07 308.545 136.973 308.57C136.875 308.594 136.753 308.619 136.655 308.643C136.533 308.667 136.386 308.667 136.264 308.692C136.264 308.692 136.264 308.692 136.239 308.692C136.191 308.716 136.166 308.741 136.117 308.765C136.117 308.765 136.142 308.765 136.142 308.79L136.117 308.814C136.166 308.839 136.191 308.887 136.239 308.912C136.264 308.912 136.313 308.912 136.337 308.912H137.73H141.787H148.899C149.119 307.91 149.29 306.835 149.29 305.784C149.021 305.661 149.07 305.833 149.07 305.979Z" fill="white"/>
<path d="M202.885 308.57C202.665 308.521 202.396 308.521 202.176 308.472C201.394 308.301 200.783 307.885 200.295 307.372C198.364 305.417 195.48 302.436 193.574 300.48C193.256 300.163 192.938 299.845 192.621 299.527C192.523 299.429 192.474 299.356 192.425 299.307L192.059 298.916L192.107 298.867V298.843C192.132 298.819 192.132 298.819 192.156 298.794C193.916 296.863 195.7 294.957 197.435 293.026C198.291 292.073 199.317 291.438 200.686 291.365C200.759 291.365 200.832 291.291 200.906 291.267C200.832 291.218 200.759 291.169 200.686 291.169C198.902 291.169 197.093 291.169 195.309 291.169C195.236 291.169 195.138 291.218 195.065 291.267C195.138 291.316 195.236 291.365 195.309 291.389C195.651 291.413 195.944 291.511 196.091 291.829C196.238 292.147 196.115 292.391 195.92 292.635C195.529 293.1 195.138 293.564 194.747 294.028C193.696 295.275 192.645 296.546 191.594 297.792L190.079 299.381C190.079 298.33 190.079 297.279 190.079 296.252V291.071C188.637 291.071 187.195 291.071 185.753 291.071C185.655 291.071 185.558 291.145 185.46 291.193C185.558 291.218 185.631 291.291 185.729 291.291C186.829 291.389 187.537 292.024 187.537 292.953C187.537 297.621 187.537 302.289 187.537 306.957C187.537 307.47 187.317 307.885 186.902 308.228C186.56 308.521 186.144 308.594 185.704 308.643C185.631 308.643 185.533 308.716 185.46 308.741C185.533 308.79 185.631 308.839 185.704 308.863C185.753 308.887 185.802 308.863 185.851 308.863H188.784C189.786 308.863 190.788 308.863 191.814 308.863C191.887 308.863 191.961 308.887 192.034 308.863C192.083 308.839 192.132 308.79 192.156 308.741C192.107 308.716 192.083 308.668 192.034 308.643C191.985 308.619 191.912 308.643 191.863 308.643C190.812 308.545 190.103 307.885 190.103 307.006C190.103 305.026 190.103 303.071 190.103 301.091L190.494 300.676C192.303 302.533 194.869 305.246 196.604 307.006C196.946 307.348 197.289 307.666 197.704 307.934C198.486 308.423 199.39 308.692 200.392 308.741C201.297 308.814 202.201 308.814 203.129 308.863C203.154 308.814 203.178 308.79 203.178 308.741C203.032 308.692 202.983 308.594 202.885 308.57Z" fill="white"/>
</svg>
