<svg width="457" height="98" viewBox="0 0 457 98" fill="none" xmlns="http://www.w3.org/2000/svg">
<path d="M220.795 1L135.99 97.4955" stroke="black" stroke-width="1.17381" stroke-miterlimit="10"/>
<path d="M31.9951 41.329C31.7566 41.8052 31.3505 41.9457 30.3879 41.9457H21.2035C23.8352 43.9564 28.6128 45.2881 32.4985 45.7996L32.4631 46.2052C31.165 46.5492 30.379 47.599 30.0434 49.2393C28.1359 48.525 26.3256 47.5991 24.683 46.4791V53.6048C24.683 53.6753 23.7646 54.5926 21.1329 54.5926V52.9873H10.7563V53.7365C10.7563 53.9746 9.66128 54.795 7.88622 54.795H7.30334V46.0735C5.25452 47.3698 2.89665 48.4277 0.273816 49.1773L0 48.7983C3.44413 47.1933 6.42024 44.6707 8.53088 41.9457H0.309067L0.105969 41.267H9.05188C9.73188 40.3146 10.3147 39.3622 10.7916 38.4009H9.01663V38.7092C9.01663 38.7798 8.43376 39.9709 5.46651 39.9709V29.0972L9.25498 30.631H22.431L23.7645 28.894L27.4824 31.4518C27.3146 31.6899 26.8996 31.9281 26.3256 32.034V38.7445C26.3256 38.8151 25.3718 39.803 22.7401 39.803V38.4095H13.1849L15.949 39.027C15.8166 39.3974 15.4014 39.6439 14.3417 39.6703C13.9355 40.2171 13.5204 40.7289 13.0436 41.2756H26.6258L28.5068 38.9917L31.9951 41.329ZM9.02536 27.324H0.423876L0.256137 26.6453H9.02536V23.1006L13.8384 23.4795C13.7677 23.9557 13.5293 24.1583 12.5402 24.2994V26.654H19.4726V23.1092L24.3209 23.4881C24.2856 23.9996 24.0118 24.2022 22.9874 24.3433V26.6626H26.67L28.4803 24.1762L31.9598 26.7685C31.6861 27.1742 31.3152 27.3507 30.4232 27.3507H22.9786V29.2557C22.9786 29.291 22.6695 30.1109 19.4638 30.1109V27.3507H12.5314V29.4322C12.5314 29.5028 12.1252 30.2874 9.01663 30.2874V27.324H9.02536ZM22.7401 31.2752H9.01663V34.1767H22.7401V31.2752ZM9.02536 34.8553V37.7214H22.7489V34.8553H9.02536ZM21.6804 43.886C21.1329 43.2687 20.6206 42.6247 20.2144 41.9457H12.3989C11.6129 42.7658 10.7563 43.5771 9.76725 44.3355L11.1979 44.8824H20.9298L21.6804 43.886ZM21.1417 48.5951V45.5619H10.7652V48.5951H21.1417ZM10.7652 52.3078H21.1417V49.2746H10.7652V52.3078Z" fill="black"/>
<path d="M87.3577 33.5235C87.7993 32.43 88.3468 30.4196 88.6205 28.9909H67.2847C67.5231 31.857 66.1896 34.0704 63.973 34.0704C62.9133 34.0704 61.9595 33.5239 61.9595 32.4392C61.9595 31.6191 62.6041 30.9401 63.3901 30.5256C64.7236 29.9083 66.1896 28.2415 66.1896 26.3014H66.7018C66.9402 27.0157 67.108 27.6941 67.2139 28.3114H75.9214V22.959L81.1052 23.4352C81.0346 23.9467 80.7255 24.1849 79.6746 24.3524V28.3028H88.3822L90.3603 26.3625L93.7691 29.5989C93.4954 29.8723 93.1244 29.9693 92.4356 30.0046C91.2787 31.1951 89.2653 32.8354 87.6933 33.7526L87.3577 33.5235ZM87.6314 40.5518L89.3359 37.6857L93.5307 39.8646C93.3276 40.3408 92.886 40.5786 92.0294 40.6845L78.1028 42.5275V49.8564C78.1028 50.9499 78.2351 51.0819 79.6746 51.0819H87.2518C88.0377 51.0819 88.5146 51.0112 88.8943 50.4644C89.3006 49.9176 89.8835 48.1449 90.7048 45.6933H90.9785L90.9079 50.6677C92.3738 51.1791 92.577 51.417 92.577 51.9285C92.577 53.3924 91.4818 54.1418 87.1811 54.1418H79.6746C75.4798 54.1418 74.4555 53.3576 74.4555 49.7419V42.9951L62.2332 44.6357L61.9595 43.9562L74.4555 42.2898V35.6403C71.5236 36.2577 68.4503 36.7337 65.4831 37.0071L65.3153 36.4955C71.5236 35.0316 78.8004 32.1655 82.4123 29.8461L86.2008 32.9155C86.033 33.083 85.7239 33.2238 85.3177 33.2238C85.0086 33.2238 84.6378 33.1536 84.1609 32.9861C82.6949 33.5329 80.9905 34.079 79.1095 34.5552L79.3832 34.5905C79.3126 34.9962 79.1095 35.2349 78.1204 35.4113V41.8221L87.6314 40.5518Z" fill="black"/>
<path d="M149.608 31.452L154.695 31.8929C154.624 32.3691 154.35 32.6425 153.326 32.7748V53.3578C153.326 53.4283 152.778 54.5127 149.608 54.5127V50.4564H129.402V53.8607C129.402 53.9313 128.89 54.9889 125.782 54.9889V31.5398L130.798 31.9807C130.727 32.457 130.453 32.7656 129.402 32.8626V49.7682H137.598V23.6562L142.755 24.1325C142.684 24.644 142.314 24.9174 141.289 25.0497V49.7596H149.617V31.452H149.608Z" fill="black"/>
<path d="M183.456 52.1132C183.456 56.6196 183.624 58.5859 184.357 59.1415C185.011 59.6354 186.079 59.8477 189.285 59.8477C191.457 59.8477 193.268 59.8124 194.248 58.9305C194.778 58.4367 195.193 57.6687 195.317 57.0867C195.361 56.8397 195.44 56.6905 195.687 56.6905C195.89 56.6905 195.935 56.8136 195.935 57.1487C195.935 57.4838 195.643 59.3273 195.317 60.218C195.025 60.9235 194.901 61.0465 192.729 61.0465C189.197 61.0465 185.708 60.8614 181.725 60.8614C180.454 60.8614 179.217 60.9501 177.698 60.9501C177.248 60.9501 177.045 60.8881 177.045 60.7029C177.045 60.6147 177.124 60.5177 177.372 60.5177C177.743 60.5177 178.237 60.4555 178.599 60.3937C179.42 60.2703 179.624 59.6008 179.791 58.7101C179.994 57.4225 179.995 54.9966 179.995 52.0511V46.6548C179.995 41.8662 179.994 41.0103 179.915 40.0226C179.836 38.982 179.509 38.4885 178.149 38.2769C177.822 38.2152 177.124 38.1882 176.754 38.1882C176.586 38.1882 176.427 38.1265 176.427 38.003C176.427 37.8178 176.63 37.7559 177.08 37.7559C178.926 37.7559 181.513 37.8446 181.717 37.8446C181.92 37.8446 184.922 37.7559 186.15 37.7559C186.6 37.7559 186.803 37.8178 186.803 38.003C186.803 38.1265 186.636 38.1882 186.477 38.1882C186.185 38.1882 185.611 38.2152 185.125 38.2769C183.933 38.4268 183.606 38.9555 183.527 40.0226C183.448 41.0015 183.447 41.8662 183.447 46.6548V52.1132H183.456Z" fill="black"/>
<path d="M251.589 52.3068C251.589 55.2523 251.589 57.6782 251.774 58.9657C251.88 59.8564 252.101 60.5259 253.205 60.6494C253.717 60.7111 254.529 60.7734 254.856 60.7734C255.077 60.7734 255.148 60.8616 255.148 60.9586C255.148 61.1085 254.962 61.2057 254.556 61.2057C252.533 61.2057 250.22 61.117 250.034 61.117C249.849 61.117 247.535 61.2057 246.431 61.2057C246.025 61.2057 245.84 61.1438 245.84 60.9586C245.84 60.8704 245.91 60.7734 246.131 60.7734C246.458 60.7734 246.899 60.7111 247.235 60.6494C247.968 60.5259 248.153 59.8476 248.303 58.9657C248.489 57.6782 248.489 55.2523 248.489 52.3068V39.3258C246.687 39.3522 244.85 39.3525 243.049 39.3878C240.77 39.423 239.887 39.6341 239.296 40.3661C238.889 40.8864 238.783 41.0981 238.669 41.3186C238.563 41.5655 238.448 41.6278 238.298 41.6278C238.192 41.6278 238.112 41.5391 238.112 41.3539C238.112 41.0453 238.845 38.4083 238.925 38.1614C238.995 37.9762 239.146 37.5801 239.296 37.5801C239.552 37.5801 239.923 37.8887 240.912 37.9504C241.98 38.0386 243.376 38.1003 243.817 38.1003H257.603C258.777 38.1003 259.625 38.0386 260.217 37.9504C260.764 37.8887 261.1 37.8005 261.25 37.8005C261.435 37.8005 261.435 37.9857 261.435 38.1709C261.435 39.088 261.329 41.2046 261.329 41.5485C261.329 41.8219 261.223 41.9447 261.073 41.9447C260.888 41.9447 260.817 41.8567 260.782 41.4245C260.782 41.3011 260.746 41.213 260.746 41.0895C260.64 40.1724 259.757 39.4667 256.225 39.405C254.679 39.3697 253.134 39.3703 251.597 39.3438V52.3068H251.589Z" fill="black"/>
<path d="M360.255 60.3758C360.193 60.3405 360.105 60.3491 360.025 60.3491C358.78 60.2786 357.791 59.7233 356.917 58.9385C355.248 57.4393 353.958 55.6665 352.642 53.9116C351.865 52.8798 351.15 51.8217 350.099 51.0015C349.808 50.781 349.499 50.5782 349.154 50.3401C349.26 50.3048 349.295 50.2869 349.331 50.2781C349.401 50.2605 349.481 50.2516 349.56 50.2428C351.256 50.0664 352.51 49.2199 353.482 47.9588C354.488 46.6537 354.877 45.1896 354.762 43.5934C354.63 41.6444 353.746 40.1098 351.945 39.078C350.761 38.399 349.419 38.1259 348.05 38.1083C344.589 38.0642 341.118 38.073 337.656 38.073C337.559 38.073 337.462 38.1613 337.365 38.2142C337.462 38.2671 337.55 38.3466 337.656 38.3555C338.168 38.4172 338.663 38.4789 339.096 38.7964C339.767 39.2903 340.023 39.934 340.023 40.71C340.023 45.4281 340.023 50.146 340.023 54.8641C340.023 55.9576 340.014 57.0423 340.023 58.1358C340.041 59.3175 339.131 60.3141 337.956 60.3758C337.833 60.3846 337.7 60.3847 337.577 60.4111C337.497 60.4376 337.435 60.5081 337.365 60.561C337.444 60.6051 337.515 60.6672 337.594 60.6936C337.647 60.7112 337.718 60.6936 337.789 60.6936C340.341 60.6936 342.893 60.6936 345.454 60.6936C345.56 60.6936 345.666 60.702 345.763 60.6755C345.807 60.6667 345.887 60.5963 345.878 60.561C345.86 60.5081 345.807 60.4376 345.754 60.4111C345.693 60.3847 345.604 60.4019 345.525 60.393C344.023 60.2519 343.255 59.459 343.255 58.048C343.255 55.4905 343.255 52.9415 343.255 50.384C344.059 50.384 345.065 50.4015 346.134 50.4633C346.47 50.7543 346.779 51.0811 347.026 51.4338C348.359 53.3475 349.658 55.2877 350.991 57.2014C351.344 57.7129 351.759 58.1885 352.219 58.6207C353.428 59.7495 354.894 60.4378 356.599 60.5877C357.809 60.6935 359.027 60.6672 360.246 60.6936C360.317 60.6936 360.387 60.6053 360.458 60.5524C360.387 60.4995 360.334 60.4199 360.255 60.3758ZM345.472 49.2903C344.88 49.2903 344.112 49.273 343.246 49.2024C343.246 46.0806 343.246 42.9672 343.246 39.8454C343.246 39.7219 343.255 39.6071 343.246 39.4836C343.246 39.2896 343.343 39.2018 343.555 39.2106C344.871 39.2459 346.196 39.211 347.512 39.308C348.934 39.4138 349.949 40.1983 350.567 41.3447C351.327 42.7646 351.415 44.2991 351.035 45.8248C350.638 47.4474 349.596 48.62 347.83 49.0345C347.07 49.2109 346.266 49.2374 345.472 49.2903Z" fill="black"/>
<path d="M317.389 48.6818C317.018 48.5848 316.639 48.4875 316.268 48.3993C316.904 48.0642 317.548 47.817 318.087 47.4201C319.535 46.3531 320.056 44.8805 319.959 43.1873C319.889 41.8909 319.394 40.7707 318.352 39.8888C316.842 38.6189 314.978 38.1782 313.036 38.1165C310.174 38.0283 307.313 38.0812 304.452 38.0812C304.346 38.0812 304.24 38.1781 304.125 38.231C304.231 38.2751 304.328 38.3548 304.434 38.3636C305.988 38.443 306.792 39.4657 306.783 40.7268C306.739 45.242 306.765 49.7576 306.765 54.2728C306.765 55.6045 306.765 56.9269 306.765 58.2585C306.757 59.3961 306.006 60.208 304.796 60.3668C304.646 60.3844 304.487 60.384 304.337 60.4193C304.257 60.4369 304.196 60.5162 304.125 60.5692C304.204 60.6132 304.275 60.6753 304.355 60.7018C304.408 60.7194 304.478 60.7018 304.549 60.7018C307.543 60.7018 310.528 60.7106 313.521 60.7018C314.872 60.7018 316.206 60.5345 317.495 60.1377C318.643 59.7849 319.677 59.2375 320.498 58.3998C321.522 57.3591 321.964 56.1073 322.026 54.7052C322.14 51.9272 320.251 49.4491 317.389 48.6818ZM310.448 39.2102C311.437 39.2278 312.426 39.1922 313.389 39.4479C315.164 39.9153 316.056 41.124 316.312 42.6585C316.471 43.5845 316.462 44.5101 316.188 45.4273C315.853 46.5561 315.137 47.3321 314.104 47.8172C313.68 47.8701 311.932 48.0639 309.998 47.8258C309.998 45.0919 309.998 42.3678 309.989 39.6339C309.998 39.3164 310.086 39.2014 310.448 39.2102ZM317.743 56.9271C317.027 58.3116 315.817 59.1231 314.228 59.3083C312.921 59.4583 311.596 59.4139 310.28 59.4668C309.971 59.4756 310.007 59.2909 310.007 59.1146C310.007 55.8604 310.007 52.5974 310.007 49.3432C310.007 49.2639 310.007 49.1841 310.007 49.1047C310.501 49.0518 311.746 48.9458 313.407 48.9988C313.504 49.0076 313.583 49.0168 313.663 49.0168C313.981 49.0786 314.307 49.1403 314.616 49.2373C316.895 49.9428 318.193 51.565 318.281 53.7785C318.325 54.8632 318.255 55.9306 317.743 56.9271Z" fill="black"/>
<path d="M231.33 60.6683C229.864 60.5536 228.866 59.839 228.292 58.5867C226.137 53.9127 223.974 49.2393 221.819 44.5653C220.839 42.4311 219.849 40.3056 218.852 38.1802C218.799 38.0656 218.657 37.9771 218.507 37.8271C218.401 38.2064 218.357 38.4446 218.26 38.6651C217.818 39.7057 217.377 40.7466 216.9 41.7784C214.356 47.3519 211.804 52.9167 209.252 58.4902C208.864 59.3369 208.325 60.0687 207.353 60.4039C206.956 60.545 206.523 60.6151 206.091 60.6769C205.87 60.7121 205.79 60.7649 205.879 60.9766C208.219 60.9766 210.55 60.9766 212.882 60.9766C212.988 60.7032 212.82 60.6857 212.617 60.6769C211.548 60.6328 210.824 59.7597 211.292 58.6573C211.972 57.0611 212.652 55.465 213.35 53.8776C213.394 53.7718 213.579 53.6571 213.703 53.6571C216.502 53.6483 219.302 53.6483 222.11 53.6571C222.225 53.6571 222.384 53.772 222.437 53.869C222.622 54.257 222.781 54.6623 222.94 55.0592C223.461 56.3379 223.991 57.6169 224.486 58.9045C224.486 58.9045 224.486 58.9043 224.486 58.9131L225.316 60.9766C227.409 60.9766 229.511 60.9766 231.604 60.9766C231.71 60.6855 231.524 60.6859 231.33 60.6683ZM213.933 52.5461C215.284 49.389 216.626 46.2583 218.013 43.0306C219.337 46.2495 220.627 49.3802 221.925 52.5461C219.24 52.5461 216.617 52.5461 213.933 52.5461Z" fill="black"/>
<path d="M425.172 60.8616C425.084 60.7999 425.004 60.6943 424.907 60.6679C424.677 60.6149 424.421 60.6062 424.192 60.5533C422.999 60.2799 422.258 59.5475 421.781 58.5157C419.502 53.586 417.224 48.6569 414.945 43.7183C414.08 41.8399 413.206 39.9704 412.34 38.092C412.261 37.9244 412.217 37.73 411.943 37.8534C411.872 38.1092 411.819 38.3653 411.713 38.6122C411.263 39.6704 410.812 40.7199 410.336 41.7694C407.801 47.3164 405.266 52.8629 402.723 58.4011C402.529 58.8244 402.264 59.2394 401.955 59.5922C401.363 60.2889 400.533 60.5794 399.597 60.6412C399.403 60.6588 399.226 60.6675 399.332 60.9409C401.672 60.9409 404.013 60.9409 406.353 60.9409C406.468 60.6851 406.317 60.65 406.105 60.6412C404.984 60.5971 404.286 59.6981 404.763 58.5958C405.443 56.9996 406.123 55.3942 406.821 53.798C406.865 53.7009 407.033 53.5861 407.147 53.5861C409.973 53.5773 412.791 53.5773 415.617 53.5861C415.723 53.5861 415.89 53.6831 415.926 53.7713C416.182 54.3974 416.429 55.0329 416.685 55.659H416.694L418.814 60.9409C420.915 60.9409 423.008 60.9409 425.101 60.9409C425.128 60.9232 425.145 60.8969 425.172 60.8616ZM407.386 52.5018C408.746 49.3359 410.088 46.1961 411.475 42.9596C412.8 46.1873 414.089 49.327 415.396 52.5018C412.702 52.5018 410.071 52.5018 407.386 52.5018Z" fill="black"/>
<path d="M388.073 57.0687C388.064 57.9241 387.543 58.691 386.739 59.176C386.377 59.3965 385.918 59.5642 385.503 59.5731C383.984 59.5995 381.829 59.6 379.939 59.5911C379.233 59.5911 378.535 59.5823 377.829 59.5911C377.67 59.5911 377.573 59.5642 377.511 59.5024C377.458 59.4407 377.44 59.3531 377.44 59.2208C377.44 59.1415 377.44 59.0703 377.44 58.9909C377.44 58.4088 377.44 57.8359 377.44 57.2538C377.44 54.9874 377.449 52.721 377.44 50.4545C377.44 50.19 377.519 50.0926 377.811 50.1014C379.48 50.1103 381.909 50.1021 383.578 50.1109C384.346 50.1197 385.008 50.3843 385.379 51.0281C385.582 51.372 385.618 51.7952 385.741 52.1744C385.776 52.289 385.856 52.4036 385.918 52.5094C385.971 52.3948 386.024 52.2709 386.077 52.1563C386.086 52.1387 386.077 52.1121 386.077 52.0857C386.077 50.4101 386.077 48.7352 386.077 47.0596C386.077 46.9626 386.086 46.8654 386.059 46.7772C386.042 46.7243 385.962 46.6538 385.909 46.6626C385.856 46.6626 385.777 46.7329 385.759 46.7858C385.732 46.874 385.741 46.9801 385.741 47.0683C385.671 48.2323 384.787 49.0172 383.542 49.0172C381.9 49.0172 379.498 49.0082 377.855 49.0258C377.519 49.0258 377.449 48.9293 377.449 48.6382C377.458 45.631 377.458 42.6234 377.449 39.6162C377.449 39.3163 377.537 39.2278 377.855 39.2278C379.983 39.2366 382.624 39.2104 384.752 39.2545C385.167 39.2633 385.635 39.4398 385.988 39.6515C386.792 40.1277 387.057 40.9035 387.066 41.7589C387.066 41.9264 387.004 42.147 387.357 42.0853C387.357 40.736 387.357 39.4049 387.357 38.0557H384.576C384.267 38.0733 383.957 38.091 383.648 38.091C380.054 38.0998 375.7 38.091 372.106 38.091C371.991 38.091 371.877 38.0819 371.762 38.0996C371.7 38.1084 371.656 38.1789 371.594 38.2141C371.647 38.267 371.691 38.3461 371.753 38.3726C371.815 38.399 371.903 38.3819 371.982 38.3907C373.457 38.4965 374.226 39.4837 374.226 40.5067C374.226 46.4241 374.226 52.3414 374.226 58.2589C374.226 59.0878 373.793 59.7584 373.086 60.1199C372.972 60.1817 372.848 60.2257 372.715 60.2698C372.715 60.2698 372.706 60.2698 372.698 60.2698C372.565 60.3139 372.433 60.3406 372.283 60.3671C372.115 60.3936 371.947 60.3844 371.788 60.4196C371.779 60.4196 371.779 60.4282 371.771 60.4282C371.762 60.4282 371.762 60.4282 371.753 60.4282C371.744 60.4282 371.744 60.4377 371.744 60.4377C371.691 60.4642 371.647 60.5084 371.594 60.5437C371.603 60.5525 371.611 60.5521 371.62 60.5609C371.611 60.5697 371.603 60.5788 371.594 60.5876C371.647 60.6317 371.7 60.6933 371.762 60.7021C371.797 60.7109 371.841 60.7107 371.876 60.7107H373.66H378.818H387.87C388.152 59.4232 388.373 58.0567 388.373 56.725C388.002 56.6809 388.073 56.9099 388.073 57.0687Z" fill="black"/>
<path d="M289.023 57.0687C289.014 57.9241 288.493 58.691 287.69 59.176C287.328 59.3965 286.868 59.5642 286.453 59.5731C284.934 59.5995 282.78 59.6 280.89 59.5911C280.183 59.5911 279.486 59.5823 278.779 59.5911C278.62 59.5911 278.523 59.5642 278.461 59.5024C278.408 59.4407 278.391 59.3531 278.391 59.2208C278.391 59.1415 278.391 59.0703 278.391 58.9909C278.391 58.4088 278.391 57.8359 278.391 57.2538C278.391 54.9874 278.399 52.721 278.391 50.4545C278.391 50.19 278.47 50.0926 278.762 50.1014C280.431 50.1103 282.859 50.1021 284.528 50.1109C285.297 50.1197 285.959 50.3843 286.33 51.0281C286.533 51.372 286.568 51.7952 286.692 52.1744C286.727 52.289 286.807 52.4036 286.868 52.5094C286.921 52.3948 286.974 52.2709 287.027 52.1563C287.036 52.1387 287.027 52.1121 287.027 52.0857C287.027 50.4101 287.027 48.7352 287.027 47.0596C287.027 46.9626 287.036 46.8654 287.01 46.7772C286.992 46.7243 286.913 46.6538 286.86 46.6626C286.807 46.6626 286.727 46.7329 286.71 46.7858C286.683 46.874 286.692 46.9801 286.692 47.0683C286.621 48.2323 285.738 49.0172 284.493 49.0172C282.85 49.0172 280.448 49.0082 278.806 49.0258C278.479 49.0258 278.399 48.9293 278.399 48.6382C278.408 45.631 278.408 42.6234 278.399 39.6162C278.399 39.3163 278.488 39.2278 278.806 39.2278C280.934 39.2366 283.574 39.2104 285.703 39.2545C286.118 39.2633 286.586 39.4398 286.939 39.6515C287.743 40.1277 288.008 40.9035 288.017 41.7589C288.017 41.9264 287.955 42.147 288.308 42.0853C288.308 40.736 288.308 39.4049 288.308 38.0557H285.526C285.217 38.0733 284.908 38.091 284.599 38.091C281.005 38.0998 276.651 38.091 273.057 38.091C272.942 38.091 272.827 38.0819 272.712 38.0996C272.65 38.1084 272.606 38.1789 272.544 38.2141C272.597 38.267 272.642 38.3461 272.703 38.3726C272.765 38.399 272.854 38.3819 272.933 38.3907C274.408 38.4965 275.176 39.4837 275.176 40.5067C275.176 46.4241 275.176 52.3414 275.176 58.2589C275.176 59.0878 274.743 59.7584 274.037 60.1199C273.922 60.1817 273.798 60.2257 273.666 60.2698C273.657 60.2698 273.657 60.2698 273.648 60.2698C273.516 60.3139 273.383 60.3406 273.233 60.3671C273.065 60.3936 272.898 60.3844 272.739 60.4196C272.73 60.4196 272.73 60.4282 272.721 60.4282C272.712 60.4282 272.712 60.4282 272.703 60.4282C272.695 60.4282 272.695 60.4377 272.695 60.4377C272.642 60.4642 272.597 60.5084 272.544 60.5437C272.553 60.5525 272.562 60.5521 272.571 60.5609C272.562 60.5697 272.553 60.5788 272.544 60.5876C272.597 60.6317 272.65 60.6933 272.712 60.7021C272.748 60.7109 272.792 60.7107 272.827 60.7107H274.611H279.768H288.82C289.103 59.4232 289.323 58.0567 289.323 56.725C288.953 56.6809 289.023 56.9099 289.023 57.0687Z" fill="black"/>
<path d="M456.655 60.3759C456.364 60.3142 456.046 60.3052 455.754 60.2347C454.747 60.0142 453.988 59.4764 453.352 58.8326C450.879 56.3545 447.223 52.5358 444.768 50.0577C444.371 49.6521 443.965 49.2465 443.567 48.8408C443.435 48.7085 443.364 48.6289 443.329 48.5583L442.861 48.0735L442.931 48.0029L442.923 47.9676C442.949 47.9411 442.958 47.9236 442.993 47.8883C445.236 45.4455 447.497 43.0112 449.714 40.5508C450.818 39.325 452.116 38.5314 453.864 38.452C453.953 38.452 454.041 38.3645 454.129 38.3116C454.032 38.2675 453.935 38.1704 453.838 38.1704C451.551 38.1616 449.272 38.1616 446.985 38.1704C446.879 38.1704 446.773 38.2496 446.667 38.2849C446.773 38.3378 446.879 38.426 446.994 38.4348C447.426 38.4789 447.788 38.5932 447.992 38.9989C448.186 39.3957 448.018 39.7222 447.771 40.022C447.276 40.6217 446.782 41.213 446.287 41.8038C444.945 43.4001 443.611 44.9962 442.269 46.5836L440.335 48.6117C440.335 47.2801 440.335 45.9482 440.335 44.6166V38.0645C438.498 38.0645 436.652 38.0645 434.816 38.0645C434.692 38.0645 434.577 38.1614 434.454 38.2143C434.568 38.2584 434.674 38.3373 434.798 38.3461C436.184 38.4695 437.085 39.2724 437.094 40.4629C437.103 46.4068 437.103 52.3419 437.094 58.2858C437.094 58.9383 436.803 59.4589 436.29 59.8911C435.849 60.2526 435.319 60.3497 434.763 60.4026C434.657 60.4114 434.56 60.4903 434.462 60.5344C434.568 60.5873 434.674 60.649 434.789 60.6842C434.842 60.7019 434.913 60.6842 434.983 60.6842C436.229 60.6842 437.474 60.6842 438.719 60.6842C439.999 60.6842 441.289 60.6842 442.569 60.6842C442.658 60.6842 442.755 60.7021 442.834 60.6756C442.905 60.6492 442.949 60.5787 443.002 60.5258C442.949 60.4817 442.896 60.4289 442.834 60.4112C442.764 60.3848 442.684 60.4026 442.605 60.4026C441.271 60.288 440.344 59.4497 440.344 58.3297C440.344 55.8251 440.344 53.321 440.344 50.8164L440.838 50.2868C443.143 52.6414 446.42 56.0897 448.628 58.3297C449.051 58.7618 449.511 59.1768 450.04 59.5207C451.03 60.1557 452.204 60.4731 453.449 60.5525C454.606 60.6318 455.772 60.6582 456.929 60.7023C456.955 60.6582 456.973 60.6052 456.999 60.5611C456.849 60.4994 456.761 60.3936 456.655 60.3759Z" fill="black"/>
</svg>
