<svg width="229" height="57" viewBox="0 0 229 57" fill="none" xmlns="http://www.w3.org/2000/svg">
<g clip-path="url(#clip0_317_983)">
<rect width="229" height="57" fill="white"/>
<path d="M32.2599 0.0138175C36.5776 -0.120461 40.4404 0.729932 44.4597 2.30398C45.9064 2.87093 47.3307 3.56474 48.6059 4.48231C50.0898 5.55654 51.2457 6.51889 52.5582 8.31673C53.7886 9.99522 54.84 11.7707 55.6528 13.6953C56.5029 15.7095 57.0772 17.8057 57.5246 19.9393C57.89 21.67 58.0839 23.4306 58.2628 25.1911C58.412 26.6383 58.5089 28.0855 58.4642 29.5402C58.4045 31.4052 58.3523 33.2702 58.0764 35.1202C57.7185 37.5373 57.0026 39.8499 55.9959 42.073C55.3098 43.5873 54.6088 45.1017 53.6394 46.4594C50.6715 50.6295 46.7938 53.4642 41.8125 54.6876C39.7021 55.2024 37.5992 55.7321 35.4441 56.0454C33.6693 56.3065 31.8796 56.4557 30.0825 56.4855C28.3375 56.5154 26.6 56.4632 24.87 56.2468C21.037 55.7769 17.3308 54.8742 13.8484 53.1435C12.1407 52.293 10.6642 51.1367 9.26229 49.8462C7.24142 47.9886 5.95876 45.6761 4.98934 43.1471C3.84841 40.1781 2.96847 37.1419 2.46884 34.0013C2.26004 32.6734 2.18546 31.3231 2.08852 29.9878C2.02141 29.0702 1.98413 28.1527 2.0065 27.2351C2.04379 25.8476 2.11093 24.4525 2.22279 23.0724C2.37939 20.9911 2.78203 18.9546 3.34877 16.9553C4.34802 13.4342 6.15264 10.3906 8.66568 7.7647C10.3137 6.04146 12.1556 4.60168 14.348 3.6468C15.9811 2.93811 17.6441 2.16229 19.3666 1.69977C20.9326 1.28201 23.9975 0.640445 26.3837 0.379347C27.9497 0.207769 29.5232 0.125724 31.0892 0.0212847C31.4695 -0.00855502 31.8647 0.0138175 32.2599 0.0138175ZM10.4107 8.80156C10.448 8.7195 10.3659 8.70462 10.2913 8.74938C10.1944 8.80906 10.172 8.83887 10.09 8.91347C8.85214 10.0847 8.65823 10.3608 7.59933 11.6886C7.33833 12.0169 7.10715 12.3674 6.89089 12.7255C5.35473 15.3141 4.51212 18.134 4.1318 21.1031C4.01249 22.043 3.95283 22.9904 3.89317 23.9378C3.8186 25.0866 3.84097 26.2429 3.79623 27.3918C3.78131 27.7275 3.86332 28.2422 4.005 28.5481C4.38531 29.3761 4.79546 29.9282 5.4144 30.5921C6.15265 31.3978 7.56952 32.2034 8.55386 32.5093C9.87376 32.9121 12.0438 33.1732 14.0348 33.2031C16.1079 33.2329 18.3748 33.0688 20.9848 32.472C22.2973 32.1736 23.7141 31.6589 24.9595 31.1441C28.0616 29.8759 31.0445 28.3764 33.9527 26.7129C36.5552 25.2283 39.2025 23.4977 41.8199 22.0356C43.2964 21.2075 44.7282 20.6107 46.3986 20.1929C47.8304 19.8274 49.2771 19.6111 50.7386 19.5141C51.7081 19.4544 52.6849 19.4619 53.6543 19.3127C54.5567 19.1709 54.9593 18.4771 54.7654 17.664C54.497 16.5524 54.3404 15.5827 53.9228 14.5234C53.6469 13.837 53.3859 13.106 53.0727 12.4346C52.7297 11.6961 52.327 10.9874 51.7975 10.1518C50.3658 7.89149 48.7774 6.6531 46.5925 5.36254C45.3173 4.60908 43.9825 3.91536 42.5731 3.46031C40.7088 2.85605 38.7923 2.47553 36.861 2.18459C35.4143 1.96826 33.9676 1.7669 32.4986 1.78182C31.201 1.79674 29.8961 1.86382 28.606 1.9981C27.0475 2.14729 26.0034 2.30398 24.6239 2.58746C24.2287 2.66952 23.9602 2.77399 23.6097 2.90081C23.4457 2.96049 23.3264 3.16932 23.6097 3.229C24.0124 3.31852 24.3181 3.47524 24.5717 3.57222C24.8476 3.67666 25.3771 4.03472 25.7499 4.29581C27.0325 5.17609 28.2033 6.54122 29.0012 8.27193C29.553 9.47298 29.7618 10.7487 29.8588 12.0616C29.9632 13.4716 29.6947 14.777 29.3144 16.1198C28.7924 17.9922 27.6664 19.9393 26.0408 20.9762C22.1407 23.4828 17.4949 23.1918 13.6097 20.7077C11.7604 19.5215 10.3435 17.8431 9.89612 15.6648C9.35921 13.0612 9.05349 11.7632 10.1497 9.35368C10.2019 9.23432 10.3883 8.84632 10.4107 8.80156ZM36.2644 41.3195V41.312C34.8326 41.2822 33.4083 41.2374 31.9766 41.2225C30.858 41.2076 29.7394 41.23 28.6134 41.2374C26.7641 41.2449 24.9222 41.3493 23.0877 41.603C20.3883 41.976 17.7559 42.6399 15.2354 43.6917C13.6172 44.3706 12.0512 45.1464 10.7015 46.3102C10.3286 46.6384 10.187 47.0412 10.2839 47.5187C10.4256 48.1826 10.7089 48.7794 11.1414 49.2941C12.3644 50.7414 13.8484 51.8454 15.5411 52.666C16.9655 53.3598 18.4792 53.8074 20.0154 54.1282C21.4099 54.4265 22.8192 54.6728 24.2286 54.9115C25.0265 55.0532 25.8245 54.9115 26.6298 54.8369C28.4419 54.6653 30.0676 54.0536 31.4844 52.8824C31.9766 52.4721 32.4911 52.0991 33.028 51.7485C34.9594 50.4877 37.0623 49.6075 39.2324 48.854C40.7834 48.3169 42.6775 47.8693 44.2062 47.28C48.0615 46.2057 48.9489 44.8107 51.3128 43.2665C52.3419 42.5951 53.371 41.9088 54.2211 41.0061C54.4373 40.7749 54.6089 40.5063 54.7878 40.2377C54.8699 40.1184 54.8027 40.0438 54.6685 40.0587C54.4821 40.0811 54.2882 40.1035 54.1092 40.1557C52.1331 40.76 50.1197 41.1479 48.069 41.3642C45.9512 41.588 43.8185 41.5657 41.6932 41.4985C39.896 41.4463 38.0765 41.3792 36.2644 41.3195ZM35.5858 40.8719C36.682 40.8719 38.1287 40.8719 39.5679 40.8719C42.148 40.8719 44.7282 40.76 47.2935 40.4541C49.113 40.2378 50.8878 39.8499 52.6029 39.1934C53.9079 38.7011 55.0488 37.9774 55.9287 36.851C57.3605 35.0308 57.0697 32.0617 54.7654 30.6965C53.9079 30.1818 52.2673 28.9061 49.0608 29.7043C47.808 29.9505 46.6223 30.4802 45.4441 30.9651C43.1249 31.9125 40.8282 32.9868 38.4866 33.8745C33.2219 36.202 29.292 36.7615 24.4375 37.1121C22.3569 37.2613 20.2764 37.2314 18.2033 37.03C16.2869 36.8435 14.3928 36.5302 12.5136 36.1423C9.99307 35.6201 7.5322 34.9114 5.16831 33.882C5.04899 33.8297 4.92969 33.7849 4.80292 33.7551C4.63886 33.7103 4.52701 33.77 4.52701 33.9491C4.52701 34.3817 4.49717 34.8293 4.56428 35.2546C4.8924 37.3806 5.46663 39.447 6.23471 41.4612C6.59265 42.4011 6.99533 43.3262 7.39802 44.2512C7.62918 44.7883 8.01693 45.1614 8.62841 45.1464C8.91923 45.139 9.21754 45.0345 9.49346 44.9226C9.81411 44.7958 10.1198 44.6093 10.433 44.4601C13.5352 42.9681 16.8163 42.0655 20.2018 41.5135C23.5948 40.9614 27.0102 40.7302 30.4479 40.7675C32.0437 40.7898 33.6395 40.8346 35.5858 40.8719ZM9.89612 34.1877C9.88121 34.2176 9.8663 34.24 9.85885 34.2698C9.89613 34.2847 9.92597 34.2997 9.96326 34.3146C10.0453 34.3668 10.1273 34.4339 10.2168 34.4712C11.0967 34.8741 11.9916 35.2098 12.9312 35.4411C14.6165 35.8514 16.3167 36.1199 18.0467 36.1721C19.4039 36.2169 20.7537 36.2467 22.1108 36.0901C22.7969 36.008 23.6097 35.9632 24.2958 35.8812C25.6679 35.7171 26.9207 35.5529 28.2853 35.3291C31.0071 34.889 33.6619 34.2102 36.2719 33.3225C39.8214 32.1214 43.2964 30.9054 46.846 29.6969C50.3732 28.5107 52.2822 28.8241 54.9071 29.958C55.5261 30.2266 56.145 30.4876 56.7789 30.7263C57.271 30.9128 57.5171 30.7488 57.6141 30.2191C57.6439 30.0326 57.6663 29.8386 57.6812 29.6521C57.7931 27.8916 57.6812 26.146 57.3158 24.4302C57.0399 23.1247 56.3687 22.1772 54.9817 21.8788C53.7289 21.6103 52.4612 21.4611 51.186 21.3492C48.3822 21.103 46.3091 21.6477 45.2875 21.9386C43.5127 22.4384 42.2002 23.1098 40.7312 23.8856C39.3143 24.6316 37.8602 25.3254 36.5254 26.1982C33.0952 28.1079 30.2614 29.6148 27.1817 31.0247C24.3927 32.1885 20.8058 33.3821 18.5091 33.8372C17.2637 34.0833 15.9885 34.3071 14.7208 34.3518C13.2518 34.4041 12.5434 34.3817 11.052 34.2623C10.6567 34.2101 10.2764 34.2101 9.89612 34.1877ZM10.8432 13.2999C10.8805 14.3742 10.9551 15.3291 11.2682 16.2541C11.7231 17.5894 12.5359 18.6786 13.5203 19.6558C15.0191 21.1403 16.8312 21.7894 18.8968 21.7521C20.2167 21.7297 21.5143 21.4761 22.782 21.0881C24.2435 20.6405 25.4889 19.8573 26.4882 18.6711C27.7633 17.1493 28.2928 15.344 28.4121 13.4193C28.606 10.5174 27.4501 8.15259 25.2652 6.33236C21.738 3.38569 16.4882 3.68407 13.2518 6.97391C12.2973 7.9437 11.5367 9.04782 11.1937 10.3832C10.9476 11.3604 10.8656 12.3823 10.8432 13.2999ZM52.4016 44.7286C52.3792 44.7212 52.3643 44.7137 52.3419 44.7062C52.3493 44.4004 52.1331 44.1915 51.8348 44.2512C51.6335 44.2885 51.4322 44.3482 51.2532 44.4377C50.7088 44.7137 50.157 44.9972 49.6275 45.3031C47.2263 47.0189 45.0712 47.9962 42.6029 48.8018C40.8803 49.3613 39.1652 49.6896 37.4501 50.2938C35.6828 50.913 33.99 51.6814 32.5284 52.8973C31.5888 53.6806 30.6641 54.4863 29.7394 55.2845C29.6798 55.3292 29.65 55.4113 29.6052 55.471C29.6872 55.5008 29.7768 55.568 29.8588 55.5605C30.1794 55.5456 30.4926 55.5083 30.8058 55.4859C32.6402 55.3442 34.4747 55.2397 36.2943 54.9339C38.7551 54.5161 41.1637 53.9193 43.5053 53.054C47.1816 51.6963 50.0302 49.3464 51.9542 45.885C52.1555 45.5194 52.2599 45.1091 52.4016 44.7286Z" fill="white"/>
<path d="M87.2332 47.2056C86.0848 47.2056 84.9364 47.2056 83.7806 47.2056C83.7358 47.2056 83.691 47.2131 83.6538 47.2056C83.609 47.1907 83.5643 47.1608 83.5195 47.1309C83.5643 47.1011 83.609 47.0489 83.6612 47.0414C84.0266 47.0265 84.3547 46.9445 84.6306 46.6908C84.914 46.4297 85.0334 46.109 85.0334 45.7583C85.0408 42.461 85.0408 39.1563 85.0334 35.859C85.0334 35.1205 84.5561 34.658 83.7656 34.6058C83.7134 34.6058 83.6612 34.6058 83.6165 34.5908C83.5866 34.5759 83.5494 34.5312 83.5494 34.5088C83.5494 34.479 83.5941 34.4417 83.6314 34.4342C83.6836 34.4193 83.7432 34.4267 83.8029 34.4267C85.9878 34.4267 87.7403 34.4118 89.9252 34.4342C91.2079 34.4417 92.4607 34.6505 93.6091 35.21C94.4965 35.6427 95.2422 36.2395 95.8313 37.0078C96.3085 37.6345 96.6292 38.3208 96.8231 39.0593C97.0244 39.8202 97.0617 40.611 97.0021 41.3943C96.9349 42.4088 96.6516 43.3637 96.0923 44.2365C95.3839 45.3331 94.3846 46.1239 93.1169 46.6237C92.0729 47.034 90.9841 47.1907 89.8656 47.1981C88.8439 47.2131 88.2548 47.2056 87.2332 47.2056ZM86.8529 35.0534C86.8454 35.1205 86.838 35.1578 86.838 35.1877C86.838 38.9251 86.838 42.6625 86.8305 46.3999C86.8305 46.5565 86.8902 46.5864 87.0468 46.5864C88.0982 46.5789 88.7172 46.5938 89.7612 46.5789C90.2011 46.5714 90.6411 46.5342 91.0662 46.4447C92.6247 46.1015 93.6762 45.1765 94.3398 43.8412C94.8096 42.9087 94.9662 41.909 94.9812 40.887C94.9886 40.0962 94.8992 39.3129 94.6456 38.552C94.407 37.8135 94.0416 37.1347 93.4823 36.5603C92.4905 35.5308 91.2377 35.0608 89.7612 35.0534C88.7246 35.0534 88.1206 35.0534 87.0915 35.0534C87.0319 35.0534 86.9498 35.0534 86.8529 35.0534Z" fill="white"/>
<path d="M127.808 40.7077C128.188 40.0885 128.538 39.5141 128.889 38.9397C129.5 37.9475 130.104 36.9479 130.716 35.9557C130.872 35.6946 131.007 35.441 130.887 35.1352C130.753 34.8069 130.485 34.6428 130.119 34.6055C130.052 34.5981 129.993 34.5458 129.933 34.516C130 34.4862 130.067 34.4265 130.142 34.4265C131.476 34.419 132.819 34.419 134.154 34.4265C134.221 34.4265 134.28 34.4787 134.347 34.5011C134.288 34.5309 134.228 34.5906 134.169 34.5906C133.221 34.613 132.535 35.0755 132.051 35.7842C130.798 37.6268 129.582 39.4843 128.352 41.3344C128.292 41.4165 128.27 41.5358 128.27 41.6402C128.262 43.0128 128.292 44.3855 128.255 45.7581C128.24 46.4146 128.747 47.0039 129.545 47.0412C129.612 47.0412 129.672 47.086 129.739 47.1159C129.672 47.1457 129.605 47.2054 129.538 47.2054C128.069 47.2129 126.6 47.2129 125.13 47.2129C125.093 47.2129 125.056 47.2203 125.026 47.2054C124.989 47.1905 124.966 47.1532 124.929 47.1233C124.959 47.0935 124.996 47.0561 125.034 47.0487C125.175 47.0263 125.324 47.0338 125.459 46.9965C126.04 46.8697 126.443 46.3997 126.45 45.7955C126.465 44.4004 126.458 43.0129 126.45 41.6179C126.45 41.5358 126.421 41.4388 126.376 41.3717C125.183 39.5141 123.997 37.6492 122.796 35.8066C122.453 35.2844 121.984 34.8741 121.327 34.7025C121.119 34.6428 120.887 34.6428 120.664 34.6055C120.604 34.5981 120.544 34.5458 120.492 34.516C120.552 34.4862 120.619 34.4414 120.679 34.434C121.298 34.4265 121.924 34.4265 122.543 34.4265C123.55 34.4265 124.556 34.4265 125.556 34.4265C125.623 34.4265 125.69 34.419 125.749 34.434C125.779 34.4414 125.824 34.4862 125.824 34.5085C125.824 34.5384 125.787 34.5757 125.749 34.5906C125.72 34.6055 125.682 34.5981 125.645 34.5981C124.907 34.613 124.646 35.3217 124.944 35.814C125.384 36.5451 125.794 37.2836 126.219 38.0221C126.696 38.8502 127.174 39.6708 127.658 40.4914C127.696 40.5586 127.74 40.6107 127.808 40.7077Z" fill="white"/>
<path d="M172.334 47.027C172.297 47.012 172.252 47.012 172.207 47.012C171.506 46.9673 170.947 46.6614 170.447 46.2138C169.508 45.3633 168.777 44.3638 168.031 43.3716C167.591 42.7897 167.188 42.1854 166.592 41.7229C166.428 41.5961 166.249 41.4842 166.055 41.3499C166.115 41.3275 166.137 41.3201 166.152 41.3126C166.197 41.3052 166.234 41.2977 166.279 41.2902C167.233 41.1858 167.949 40.7084 168.493 39.9997C169.06 39.2612 169.284 38.4331 169.217 37.5229C169.142 36.4189 168.643 35.5461 167.628 34.9642C166.957 34.5763 166.204 34.4271 165.429 34.4122C163.467 34.3824 161.514 34.3973 159.552 34.3973C159.5 34.3973 159.44 34.4495 159.388 34.4719C159.44 34.5017 159.493 34.5464 159.552 34.5539C159.843 34.5912 160.127 34.6211 160.365 34.8001C160.745 35.0762 160.887 35.4491 160.887 35.8818C160.887 38.5524 160.887 41.2231 160.887 43.9012C160.887 44.5204 160.88 45.1395 160.887 45.7513C160.895 46.4226 160.38 46.9822 159.716 47.0195C159.642 47.027 159.567 47.0269 159.5 47.0418C159.455 47.0567 159.418 47.0941 159.381 47.1239C159.426 47.1463 159.463 47.1836 159.508 47.1985C159.537 47.2134 159.582 47.1985 159.612 47.1985C161.059 47.1985 162.498 47.1985 163.945 47.1985C164.004 47.1985 164.064 47.1985 164.116 47.1911C164.146 47.1836 164.183 47.1463 164.183 47.1239C164.176 47.0941 164.146 47.0567 164.116 47.0418C164.079 47.0269 164.034 47.0343 163.989 47.0343C163.139 46.9523 162.707 46.5048 162.707 45.7065C162.707 44.2593 162.707 42.812 162.707 41.3648C163.162 41.3648 163.728 41.3723 164.332 41.4096C164.519 41.5737 164.698 41.7602 164.839 41.9616C165.593 43.0433 166.323 44.1399 167.077 45.2291C167.278 45.5126 167.509 45.7886 167.77 46.0347C168.456 46.6688 169.284 47.0642 170.246 47.1463C170.932 47.2059 171.618 47.1911 172.312 47.206C172.349 47.206 172.394 47.1538 172.431 47.1239C172.408 47.0941 172.371 47.0493 172.334 47.027ZM163.974 40.7457C163.639 40.7457 163.206 40.7382 162.714 40.6934C162.714 38.9254 162.714 37.1574 162.714 35.3969C162.714 35.3297 162.714 35.2626 162.714 35.1954C162.714 35.0835 162.766 35.0388 162.886 35.0388C163.631 35.0537 164.377 35.0388 165.123 35.0985C165.921 35.1581 166.502 35.6058 166.853 36.2548C167.285 37.0605 167.33 37.9258 167.121 38.7912C166.898 39.7088 166.309 40.3726 165.309 40.6039C164.877 40.7009 164.422 40.7158 163.974 40.7457Z" fill="white"/>
<path d="M148.099 40.4024C147.89 40.3427 147.673 40.2979 147.465 40.2382C147.823 40.0517 148.188 39.91 148.494 39.6862C149.314 39.0819 149.605 38.2465 149.553 37.2916C149.508 36.5531 149.232 35.919 148.643 35.4192C147.793 34.6955 146.734 34.4494 145.638 34.4195C144.019 34.3673 142.401 34.3971 140.783 34.3971C140.723 34.3971 140.664 34.4494 140.597 34.4792C140.656 34.5016 140.709 34.5463 140.768 34.5538C141.648 34.5985 142.103 35.1804 142.096 35.8891C142.073 38.4479 142.088 40.9992 142.088 43.5579C142.088 44.3114 142.088 45.0649 142.088 45.8183C142.088 46.4673 141.656 46.9224 140.977 47.0119C140.895 47.0268 140.805 47.0193 140.716 47.0417C140.671 47.0491 140.634 47.094 140.597 47.1238C140.641 47.1462 140.679 47.1835 140.723 47.1984C140.753 47.2133 140.798 47.1984 140.828 47.1984C142.521 47.1984 144.206 47.2058 145.899 47.1984C146.659 47.1984 147.412 47.1014 148.143 46.8776C148.792 46.6762 149.374 46.3703 149.843 45.8929C150.425 45.3036 150.671 44.5948 150.708 43.7966C150.783 42.2375 149.717 40.8351 148.099 40.4024ZM144.176 35.0312C144.735 35.0387 145.295 35.0238 145.839 35.1655C146.838 35.4266 147.345 36.1129 147.494 36.9857C147.584 37.5079 147.576 38.0375 147.427 38.5523C147.241 39.1864 146.831 39.634 146.249 39.91C146.01 39.9399 145.019 40.0518 143.93 39.9175C143.93 38.3733 143.93 36.8217 143.93 35.2775C143.923 35.091 143.967 35.0312 144.176 35.0312ZM148.3 45.0723C147.897 45.8556 147.211 46.3181 146.316 46.4225C145.578 46.512 144.825 46.4822 144.079 46.512C143.908 46.5195 143.923 46.415 143.923 46.3106C143.923 44.468 143.923 42.618 143.923 40.7754C143.923 40.7307 143.923 40.6859 143.923 40.6411C144.206 40.6113 144.907 40.5516 145.846 40.5814C145.899 40.5889 145.943 40.5889 145.996 40.5964C146.175 40.6337 146.361 40.6635 146.532 40.7231C147.823 41.126 148.553 42.0436 148.606 43.2969C148.628 43.9011 148.591 44.5054 148.3 45.0723Z" fill="white"/>
<path d="M116.973 47.0415C116.145 46.9744 115.578 46.5716 115.258 45.8629C114.035 43.2146 112.819 40.5664 111.596 37.9181C111.037 36.7096 110.485 35.5011 109.918 34.3001C109.888 34.2329 109.814 34.1882 109.724 34.0986C109.665 34.315 109.635 34.4493 109.583 34.5761C109.329 35.1654 109.083 35.7547 108.815 36.3366C107.375 39.4921 105.936 42.6477 104.489 45.8033C104.273 46.2807 103.967 46.6984 103.416 46.8849C103.192 46.967 102.946 47.0042 102.707 47.0415C102.58 47.0639 102.536 47.0938 102.588 47.2132C103.908 47.2132 105.228 47.2132 106.548 47.2132C106.607 47.0565 106.51 47.049 106.398 47.0415C105.794 47.0192 105.384 46.5194 105.653 45.8928C106.033 44.9901 106.421 44.0875 106.816 43.1848C106.838 43.1252 106.95 43.058 107.017 43.058C108.598 43.0505 110.187 43.0505 111.768 43.058C111.827 43.058 111.924 43.1177 111.947 43.1774C112.051 43.4012 112.14 43.625 112.23 43.8562C112.521 44.5799 112.819 45.3034 113.102 46.0345C113.102 46.0345 113.102 46.0345 113.102 46.0419L113.572 47.2057C114.758 47.2057 115.944 47.2057 117.122 47.2057C117.181 47.0491 117.077 47.049 116.973 47.0415ZM107.129 42.4388C107.897 40.6485 108.65 38.8805 109.433 37.0528C110.179 38.8805 110.91 40.6485 111.648 42.4388C110.127 42.4388 108.65 42.4388 107.129 42.4388Z" fill="white"/>
<path d="M209.03 47.1606C208.978 47.1233 208.933 47.0636 208.881 47.0487C208.747 47.0188 208.605 47.0114 208.479 46.9815C207.8 46.8249 207.382 46.4071 207.114 45.8327C205.831 43.0352 204.541 40.2452 203.251 37.4552C202.759 36.3959 202.267 35.3291 201.782 34.2698C201.737 34.1728 201.707 34.0684 201.558 34.1356C201.514 34.2773 201.491 34.4265 201.432 34.5682C201.178 35.165 200.917 35.7618 200.649 36.3511C199.217 39.4918 197.785 42.6324 196.346 45.773C196.234 46.0118 196.085 46.243 195.913 46.4519C195.578 46.8473 195.108 47.0114 194.578 47.0487C194.467 47.0561 194.37 47.0636 194.429 47.2202C195.749 47.2202 197.077 47.2202 198.404 47.2202C198.471 47.0785 198.389 47.0561 198.262 47.0487C197.628 47.0263 197.233 46.5191 197.502 45.8924C197.889 44.9898 198.27 44.0796 198.665 43.177C198.687 43.1248 198.784 43.0576 198.851 43.0576C200.447 43.0502 202.043 43.0502 203.639 43.0576C203.699 43.0576 203.795 43.1098 203.81 43.1621C203.959 43.5201 204.094 43.8783 204.243 44.2289H204.25L205.451 47.2202C206.637 47.2202 207.822 47.2202 209.008 47.2202C209.008 47.1904 209.023 47.1755 209.03 47.1606ZM198.978 42.4161C199.746 40.6257 200.507 38.8428 201.29 37.0151C202.043 38.8428 202.766 40.6182 203.505 42.4161C201.983 42.4161 200.492 42.4161 198.978 42.4161Z" fill="white"/>
<path d="M188.06 45.1397C188.053 45.6246 187.762 46.0573 187.307 46.3333C187.106 46.4526 186.845 46.5571 186.606 46.5571C185.749 46.572 184.526 46.572 183.459 46.572C183.064 46.572 182.661 46.5645 182.266 46.572C182.177 46.572 182.117 46.5571 182.087 46.5198C182.057 46.4825 182.042 46.4377 182.042 46.3557C182.042 46.3109 182.042 46.2736 182.042 46.2288C182.042 45.9006 182.042 45.5724 182.042 45.2442C182.042 43.9611 182.05 42.6779 182.042 41.3948C182.042 41.2456 182.087 41.1934 182.251 41.1934C183.198 41.2008 184.57 41.1934 185.51 41.2008C185.942 41.2008 186.315 41.3576 186.532 41.7156C186.643 41.9096 186.666 42.1483 186.733 42.3646C186.755 42.4318 186.8 42.4914 186.83 42.5585C186.86 42.4914 186.89 42.4243 186.919 42.3572C186.927 42.3423 186.919 42.3273 186.919 42.3198C186.919 41.3724 186.919 40.4176 186.919 39.4702C186.919 39.418 186.927 39.3582 186.912 39.306C186.904 39.2762 186.852 39.2389 186.822 39.2389C186.793 39.2389 186.748 39.2762 186.733 39.306C186.718 39.3582 186.725 39.4105 186.725 39.4702C186.688 40.1267 186.189 40.5742 185.48 40.5742C184.548 40.5742 183.191 40.5668 182.266 40.5817C182.08 40.5817 182.035 40.5295 182.035 40.3653C182.042 38.6645 182.042 36.9636 182.035 35.2553C182.035 35.0912 182.087 35.0389 182.266 35.0389C183.474 35.0464 184.958 35.0315 186.166 35.0539C186.405 35.0613 186.666 35.1584 186.867 35.2777C187.322 35.5463 187.471 35.9864 187.479 36.4713C187.479 36.5608 187.441 36.6876 187.643 36.6578C187.643 35.8969 187.643 35.1359 187.643 34.375H186.069C185.898 34.3899 185.719 34.3974 185.54 34.3974C183.511 34.4049 181.043 34.3974 179.015 34.3974C178.948 34.3974 178.881 34.3899 178.821 34.4049C178.784 34.4123 178.761 34.4496 178.731 34.472C178.761 34.5018 178.784 34.5466 178.821 34.5615C178.858 34.5764 178.903 34.569 178.948 34.569C179.783 34.6286 180.215 35.1881 180.215 35.77C180.215 39.1195 180.215 42.469 180.215 45.826C180.215 46.2959 179.969 46.6764 179.574 46.8853C179.507 46.9151 179.44 46.945 179.365 46.9748H179.358C179.283 46.9972 179.209 47.0196 179.127 47.0271C179.037 47.042 178.94 47.042 178.843 47.0569C178.836 47.0569 178.836 47.0643 178.828 47.0643H178.821L178.814 47.0718C178.784 47.0867 178.754 47.1091 178.731 47.1315C178.739 47.1389 178.739 47.1389 178.746 47.1464C178.739 47.1538 178.739 47.1539 178.731 47.1613C178.761 47.1837 178.791 47.221 178.821 47.2284C178.843 47.2359 178.866 47.2359 178.888 47.2359H179.895H182.81H187.926C188.09 46.5048 188.209 45.7291 188.209 44.9756C188.023 44.9159 188.06 45.0427 188.06 45.1397Z" fill="white"/>
<path d="M226.83 47.0197C226.666 46.9824 226.487 46.9823 226.323 46.945C225.749 46.8182 225.324 46.5124 224.966 46.1543C223.571 44.7519 221.506 42.5884 220.111 41.186C219.888 40.9547 219.656 40.7235 219.433 40.4997C219.358 40.4251 219.321 40.3803 219.298 40.3355L219.03 40.0595L219.067 40.0148V39.9999C219.082 39.985 219.09 39.97 219.105 39.9551C220.372 38.5675 221.647 37.1949 222.9 35.7999C223.519 35.1062 224.257 34.6511 225.249 34.6064C225.301 34.6064 225.354 34.5542 225.398 34.5243C225.346 34.4945 225.286 34.4497 225.234 34.4423C223.944 34.4348 222.654 34.4348 221.357 34.4423C221.297 34.4423 221.237 34.487 221.178 34.5094C221.237 34.5392 221.297 34.5914 221.364 34.5989C221.61 34.6287 221.812 34.6884 221.923 34.9196C222.035 35.1434 221.938 35.3299 221.797 35.5015C221.521 35.8372 221.237 36.1729 220.954 36.5086C220.193 37.4112 219.44 38.3139 218.68 39.2165L217.583 40.3654C217.583 39.612 217.583 38.8585 217.583 38.105V34.3975C216.539 34.3975 215.503 34.3975 214.459 34.3975C214.392 34.3975 214.325 34.4497 214.25 34.4795C214.317 34.5093 214.377 34.5466 214.444 34.5541C215.227 34.6212 215.741 35.0837 215.741 35.7551C215.749 39.1196 215.741 42.484 215.741 45.8484C215.741 46.214 215.577 46.5124 215.287 46.7585C215.04 46.9599 214.735 47.0196 214.422 47.0495C214.362 47.0569 214.31 47.1018 214.25 47.1242C214.31 47.154 214.369 47.1838 214.436 47.2062C214.466 47.2211 214.511 47.2062 214.541 47.2062C215.242 47.2062 215.95 47.2062 216.651 47.2062C217.375 47.2062 218.105 47.2062 218.829 47.2062C218.881 47.2062 218.933 47.2137 218.978 47.1987C219.015 47.1838 219.045 47.1391 219.075 47.1092C219.045 47.0868 219.015 47.0495 218.978 47.042C218.941 47.0271 218.888 47.042 218.851 47.0345C218.098 46.9674 217.576 46.4975 217.576 45.8634C217.576 44.446 217.576 43.0286 217.576 41.6038L217.852 41.3054C219.149 42.6407 221.006 44.5952 222.259 45.8634C222.498 46.1096 222.759 46.3483 223.057 46.5348C223.616 46.8929 224.28 47.0719 224.988 47.1242C225.644 47.1689 226.301 47.1838 226.957 47.2062C226.972 47.1764 226.987 47.154 226.994 47.1242C226.942 47.0943 226.897 47.0346 226.83 47.0197Z" fill="white"/>
<path d="M87.1145 16.8887H85.4143V19.0669C85.4143 19.2087 84.8177 19.6862 83.8557 19.6862H83.5127V4.90801L85.6678 5.74352H86.9057L87.726 4.66186L89.8587 6.2359C89.717 6.39255 89.4187 6.5791 89.0235 6.6537V18.0748C89.0235 18.1121 88.5015 18.6716 87.107 18.6716V16.8887H87.1145ZM87.1145 6.14638H85.4143V11.04H87.1145V6.14638ZM85.4143 16.4933H87.1145V11.4429H85.4143V16.4933ZM100.828 18.2688L100.865 20.3426C101.544 20.6186 101.626 20.6857 101.626 21.0214C101.626 21.76 101.029 22.1032 99.5529 22.1032H97.5991C95.6826 22.1032 95.4217 21.8047 95.4217 19.9099V16.2173H93.8035C93.5649 18.9924 92.8042 21.0886 87.1965 22.4463L86.9803 22.1479C91.2308 20.5515 91.5887 18.6343 91.6484 16.2173H89.2547L89.1354 15.8144H98.576L99.5976 14.5388L101.514 15.8592C101.372 16.1352 101.134 16.2173 100.597 16.2173H97.3829V19.9099C97.3829 20.3873 97.3829 20.4321 97.7632 20.4321H99.5007C99.6573 20.4321 99.8213 20.4321 100 20.2307C100.179 19.9696 100.5 19.0894 100.716 18.2762H100.828V18.2688ZM94.9966 13.2557C93.975 13.6362 92.4836 14.1733 90.4031 14.8521C90.2838 15.1132 90.0824 15.2325 89.8661 15.2698L89.1279 13.3527L91.0071 13.2557V11.5175H89.4485L89.3292 11.1147H91.0071V9.11541L93.3262 9.33178C93.3039 9.5332 93.1472 9.63016 92.7073 9.68984V11.1072H92.9236L93.6245 10.1524L94.9817 11.1744C94.84 11.4355 94.579 11.5175 94.1017 11.5175H92.7073V13.1363L94.9668 12.9573L94.9966 13.2557ZM90.3881 6.20603L90.2688 5.80325H93.9825V3.68457L96.8981 3.94574C96.8758 4.24414 96.6819 4.38584 96.0406 4.4679V5.80325H97.4351L98.4716 4.56488L100.448 5.8405C100.306 6.11652 100.045 6.19856 99.5305 6.19856H96.0406V8.31724H98.4194L99.4783 6.99682L101.454 8.37689C101.313 8.63799 101.052 8.72002 100.515 8.72002H89.456L89.3591 8.31724H93.9899V6.19856H90.3881V6.20603ZM101.723 13.7928C101.581 14.0539 101.343 14.1359 100.843 14.1359H94.7132L94.5939 13.7332H97.01V11.5175H95.2725L95.1756 11.1147H97.01V9.16022L99.4261 9.37649C99.3888 9.59283 99.2471 9.69728 98.8072 9.75696V11.1147H99.2099L99.9705 10.0778L101.447 11.1744C101.29 11.4355 101.044 11.5175 100.552 11.5175H98.8146V13.7332H99.4336L100.231 12.6514L101.723 13.7928Z" fill="white"/>
<path d="M133.923 9.77903C134.184 9.13748 134.505 7.95877 134.661 7.12326H122.185C122.327 8.80174 121.544 10.0999 120.247 10.0999C119.628 10.0999 119.068 9.77905 119.068 9.14496C119.068 8.66752 119.449 8.26469 119.904 8.02597C120.679 7.66789 121.544 6.69059 121.544 5.54922H121.842C121.984 5.96698 122.081 6.36987 122.141 6.72795H127.234V3.59473L130.269 3.87074C130.232 4.16914 130.053 4.31094 129.434 4.40792V6.72795H134.527L135.683 5.58656L137.681 7.48141C137.525 7.63807 137.301 7.69771 136.906 7.72009C136.227 8.42132 135.049 9.37624 134.132 9.91335L133.923 9.77903ZM134.087 13.8969L135.086 12.2184L137.54 13.4941C137.42 13.7701 137.159 13.9118 136.66 13.9715L128.516 15.0532V19.3501C128.516 19.9916 128.598 20.0663 129.434 20.0663H133.863C134.326 20.0663 134.601 20.029 134.818 19.7082C135.056 19.3875 135.399 18.3505 135.877 16.9108H136.033L135.996 19.8275C136.853 20.1259 136.973 20.2677 136.973 20.5661C136.973 21.4239 136.331 21.8641 133.818 21.8641H129.426C126.973 21.8641 126.369 21.4016 126.369 19.2904V15.3366L119.225 16.299L119.068 15.8961L126.376 14.9189V11.0249C124.661 11.3829 122.864 11.6664 121.126 11.823L121.03 11.5246C124.661 10.6667 128.912 8.98828 131.03 7.63057L133.244 9.42844C133.147 9.52542 132.968 9.60747 132.722 9.60747C132.543 9.60747 132.32 9.57012 132.044 9.46568C131.186 9.78646 130.187 10.1073 129.091 10.3833L129.247 10.4056C129.21 10.6444 129.091 10.7861 128.509 10.8831V14.6355L134.087 13.8969Z" fill="white"/>
<path d="M170.336 8.56324L173.311 8.82432C173.274 9.10034 173.11 9.26451 172.513 9.34657V21.4092C172.513 21.4465 172.193 22.0881 170.336 22.0881V19.7084H158.516V21.7077C158.516 21.745 158.218 22.3641 156.398 22.3641V8.62289L159.337 8.88406C159.299 9.16008 159.135 9.34654 158.516 9.40622V19.313H163.304V4.0127L166.316 4.28871C166.279 4.58711 166.055 4.7512 165.459 4.8258V19.3056H170.328V8.56324H170.336Z" fill="white"/>
<path d="M85.1088 55.3667C85.243 55.3816 85.3549 55.4115 85.4518 55.4637C85.5487 55.5085 85.6308 55.5681 85.6904 55.6353C85.7501 55.7024 85.7948 55.777 85.8246 55.8666C85.8545 55.9561 85.8694 56.0456 85.8694 56.1426C85.8694 56.2545 85.8545 56.3515 85.8172 56.4485C85.7799 56.5454 85.7277 56.6275 85.6457 56.7021C85.5637 56.7767 85.4667 56.8289 85.3474 56.8736C85.2281 56.9184 85.0789 56.9333 84.9149 56.9333H83.334V53.8896H84.5644C84.7359 53.8896 84.8776 53.912 84.9969 53.9568C85.1162 54.0015 85.2132 54.0537 85.2952 54.1283C85.3698 54.2029 85.4294 54.2851 85.4667 54.382C85.504 54.479 85.5189 54.5834 85.5189 54.6878C85.5189 54.837 85.4891 54.9713 85.4219 55.0907C85.3623 55.2026 85.2504 55.2996 85.1088 55.3667ZM84.4749 55.3518C84.6017 55.3518 84.7135 55.3369 84.7956 55.2996C84.8776 55.2623 84.9447 55.2175 84.9895 55.1578C85.0342 55.0981 85.064 55.0236 85.0789 54.9415C85.0939 54.8595 85.1013 54.7699 85.1013 54.6804C85.1013 54.5908 85.0939 54.5013 85.0789 54.4193C85.064 54.3372 85.0342 54.2701 84.9895 54.203C84.9447 54.1433 84.8776 54.0911 84.7956 54.0612C84.7135 54.0239 84.6092 54.009 84.4749 54.009H83.7516V55.3518H84.4749V55.3518ZM84.8254 56.814C84.9522 56.814 85.064 56.799 85.146 56.7617C85.2281 56.7244 85.2952 56.6797 85.3399 56.62C85.3847 56.5603 85.4145 56.4857 85.4294 56.4037C85.4443 56.3216 85.4518 56.2321 85.4518 56.1426C85.4518 56.0531 85.4443 55.9636 85.4294 55.8815C85.4145 55.7994 85.3847 55.7323 85.3399 55.6651C85.2952 55.6054 85.2281 55.5532 85.146 55.5233C85.064 55.486 84.9596 55.4712 84.8254 55.4712H83.7516V56.814H84.8254V56.814Z" fill="white"/>
<path d="M94.3559 53.8896C94.5871 53.8896 94.8033 53.927 95.0047 54.009C95.206 54.0911 95.385 54.1955 95.5342 54.3372C95.6833 54.4715 95.8026 54.6356 95.8921 54.8221C95.9816 55.0086 96.0263 55.2026 96.0263 55.4115C96.0263 55.6204 95.9816 55.8218 95.8921 56.0008C95.8026 56.1798 95.6833 56.344 95.5342 56.4857C95.385 56.62 95.206 56.7319 95.0047 56.814C94.8033 56.8961 94.5871 56.9333 94.3559 56.9333C94.1248 56.9333 93.9085 56.8961 93.7072 56.814C93.5058 56.7319 93.3268 56.6274 93.1777 56.4857C93.0286 56.3514 92.9093 56.1873 92.8198 56.0008C92.7303 55.8143 92.6855 55.6204 92.6855 55.4115C92.6855 55.2026 92.7303 55.0012 92.8198 54.8221C92.9093 54.6356 93.0286 54.479 93.1777 54.3372C93.3268 54.2029 93.5058 54.0911 93.7072 54.009C93.916 53.927 94.1248 53.8896 94.3559 53.8896ZM94.3559 56.814C94.5722 56.814 94.7586 56.7767 94.9152 56.6946C95.0718 56.6125 95.1985 56.5081 95.3029 56.3813C95.4073 56.2544 95.482 56.0978 95.5342 55.9337C95.5864 55.7621 95.6087 55.5906 95.6087 55.419C95.6087 55.2474 95.5864 55.0758 95.5342 54.9042C95.482 54.7326 95.4073 54.5834 95.3029 54.4566C95.1985 54.3298 95.0718 54.2179 94.9152 54.1358C94.7586 54.0537 94.5722 54.0165 94.3559 54.0165C94.1397 54.0165 93.9532 54.0537 93.7966 54.1358C93.64 54.2179 93.5133 54.3223 93.4089 54.4566C93.3045 54.5909 93.2299 54.7401 93.1777 54.9042C93.1255 55.0758 93.1031 55.2474 93.1031 55.419C93.1031 55.598 93.1255 55.7696 93.1777 55.9337C93.2299 56.1053 93.3045 56.2544 93.4089 56.3813C93.5133 56.5081 93.64 56.62 93.7966 56.6946C93.9607 56.7767 94.1397 56.814 94.3559 56.814Z" fill="white"/>
<path d="M105.504 53.8896H105.638V55.8142C105.638 55.9709 105.601 56.1127 105.526 56.2544C105.451 56.3887 105.355 56.5081 105.235 56.6125C105.116 56.7095 104.974 56.7915 104.81 56.8512C104.646 56.9108 104.482 56.9407 104.303 56.9407H104.273C104.102 56.9407 103.93 56.9183 103.766 56.8661C103.602 56.8213 103.46 56.7467 103.341 56.6497C103.222 56.5528 103.125 56.4409 103.05 56.2991C102.976 56.1574 102.938 56.0007 102.938 55.8142V53.8896H103.356V55.7695C103.356 55.9262 103.386 56.0679 103.446 56.1947C103.505 56.3215 103.58 56.426 103.677 56.5155C103.774 56.605 103.886 56.6722 104.012 56.7169C104.139 56.7617 104.273 56.784 104.408 56.784H104.437C104.572 56.784 104.706 56.7542 104.833 56.6945C104.959 56.6349 105.071 56.5602 105.168 56.4707C105.265 56.3812 105.34 56.2768 105.399 56.1575C105.459 56.0381 105.489 55.9261 105.489 55.8142V53.8896H105.504Z" fill="white"/>
<path d="M115.563 54.009H114.266V56.9407H113.848V54.009H112.551V53.8896H115.556V54.009H115.563Z" fill="white"/>
<path d="M122.454 53.8896H122.872V56.9333H122.454V53.8896Z" fill="white"/>
<path d="M133.125 55.4115C133.125 55.5756 133.095 55.7323 133.043 55.8889C132.99 56.0381 132.908 56.1798 132.811 56.2992C132.714 56.426 132.595 56.5379 132.461 56.6275C132.327 56.7244 132.178 56.7915 132.013 56.8437L132.334 57.2839H132.178L131.887 56.8811C131.82 56.896 131.745 56.9109 131.67 56.9183C131.596 56.9258 131.521 56.9333 131.447 56.9333C131.216 56.9333 130.999 56.896 130.798 56.814C130.597 56.7319 130.418 56.6274 130.269 56.4857C130.119 56.3514 130 56.1873 129.911 56.0008C129.821 55.8143 129.776 55.6204 129.776 55.4115C129.776 55.2026 129.821 55.0012 129.911 54.8221C130 54.6356 130.119 54.479 130.269 54.3372C130.418 54.2029 130.597 54.0911 130.798 54.009C130.999 53.927 131.216 53.8896 131.447 53.8896C131.678 53.8896 131.894 53.927 132.095 54.009C132.297 54.0911 132.476 54.1955 132.625 54.3372C132.774 54.4715 132.893 54.6356 132.983 54.8221C133.08 55.0012 133.125 55.2026 133.125 55.4115ZM131.931 56.7244C132.066 56.6722 132.178 56.5976 132.274 56.5081C132.371 56.4186 132.453 56.3141 132.513 56.1947C132.573 56.0754 132.625 55.956 132.655 55.8143C132.685 55.6725 132.7 55.5383 132.7 55.404C132.7 55.2325 132.677 55.0608 132.625 54.8892C132.573 54.7177 132.498 54.5685 132.394 54.4417C132.289 54.3149 132.163 54.2029 132.006 54.1283C131.849 54.0463 131.663 54.009 131.447 54.009C131.23 54.009 131.044 54.0463 130.887 54.1283C130.731 54.2104 130.604 54.3149 130.5 54.4491C130.395 54.5834 130.321 54.7326 130.269 54.8967C130.216 55.0683 130.194 55.2399 130.194 55.4115C130.194 55.5905 130.216 55.7621 130.269 55.9262C130.321 56.0978 130.395 56.2469 130.5 56.3738C130.604 56.5006 130.731 56.6125 130.887 56.6871C131.044 56.7692 131.23 56.8065 131.447 56.8065C131.566 56.8065 131.685 56.7915 131.797 56.7542L131.477 56.3216H131.633L131.931 56.7244Z" fill="white"/>
<path d="M142.626 53.8896H142.76V55.8142C142.76 55.9709 142.723 56.1127 142.648 56.2544C142.574 56.3887 142.477 56.5081 142.357 56.6125C142.238 56.7095 142.096 56.7915 141.932 56.8512C141.768 56.9108 141.604 56.9407 141.425 56.9407H141.395C141.224 56.9407 141.052 56.9183 140.888 56.8661C140.724 56.8213 140.583 56.7467 140.463 56.6497C140.344 56.5528 140.247 56.4409 140.172 56.2991C140.098 56.1574 140.061 56.0007 140.061 55.8142V53.8896H140.478V55.7695C140.478 55.9262 140.508 56.0679 140.568 56.1947C140.627 56.3215 140.702 56.426 140.799 56.5155C140.896 56.605 141.008 56.6722 141.134 56.7169C141.261 56.7617 141.395 56.784 141.53 56.784H141.559C141.694 56.784 141.828 56.7542 141.955 56.6945C142.081 56.6349 142.193 56.5602 142.29 56.4707C142.387 56.3812 142.462 56.2768 142.521 56.1575C142.581 56.0381 142.611 55.9261 142.611 55.8142V53.8896H142.626Z" fill="white"/>
<path d="M150.097 54.009V55.3518H151.715V55.4712H150.097V56.814H152.088V56.9333H149.68V53.8896H152.088V54.009H150.097V54.009Z" fill="white"/>
<path d="M168.792 54.0009C168.666 54.0009 168.554 54.0083 168.442 54.0382C168.33 54.068 168.241 54.1053 168.159 54.1576C168.076 54.2098 168.009 54.2695 167.965 54.3441C167.92 54.4187 167.89 54.4933 167.89 54.5754C167.89 54.6574 167.905 54.732 167.95 54.7991C167.994 54.8662 168.054 54.9334 168.129 54.9931C168.203 55.0528 168.293 55.1049 168.39 55.1497C168.487 55.1945 168.584 55.2243 168.688 55.2542C168.852 55.2989 169.001 55.3512 169.135 55.4109C169.27 55.4706 169.374 55.5451 169.464 55.6271C169.553 55.7092 169.62 55.7987 169.665 55.8957C169.71 55.9927 169.732 56.0897 169.725 56.1941C169.717 56.2985 169.68 56.403 169.62 56.4925C169.56 56.582 169.471 56.6715 169.359 56.7387C169.255 56.8058 169.128 56.8581 168.986 56.8954C168.845 56.9327 168.695 56.9476 168.539 56.9476H168.531C168.382 56.9401 168.241 56.9178 168.106 56.8805C167.972 56.8432 167.853 56.7835 167.748 56.7164C167.696 56.6791 167.651 56.6417 167.614 56.6044C167.577 56.5671 167.54 56.5224 167.517 56.4776L167.51 56.4701L167.614 56.4179L167.622 56.4329C167.674 56.5075 167.741 56.582 167.83 56.6417C167.912 56.7014 168.009 56.7462 168.121 56.776C168.233 56.8058 168.338 56.8282 168.457 56.8282C168.584 56.8356 168.695 56.8208 168.8 56.7909C168.904 56.7611 169.001 56.7238 169.083 56.6716C169.165 56.6193 169.232 56.5597 169.277 56.4851C169.322 56.4179 169.352 56.3359 169.359 56.2538C169.359 56.1718 169.344 56.0972 169.299 56.03C169.255 55.9629 169.195 55.8957 169.121 55.836C169.046 55.7764 168.956 55.7242 168.859 55.6794C168.763 55.6347 168.666 55.6048 168.561 55.575C168.397 55.5377 168.248 55.4855 168.114 55.4183C167.98 55.3512 167.875 55.284 167.786 55.202C167.696 55.1199 167.629 55.0304 167.584 54.9409C167.54 54.8439 167.517 54.7469 167.525 54.6499C167.525 54.538 167.562 54.441 167.629 54.3441C167.696 54.2545 167.778 54.1725 167.89 54.1054C168.002 54.0382 168.121 53.986 168.263 53.9487C168.405 53.9114 168.554 53.8965 168.71 53.8965C168.867 53.8965 169.009 53.9188 169.143 53.9561C169.277 53.9934 169.396 54.0531 169.501 54.1277C169.553 54.165 169.598 54.2023 169.635 54.2396C169.672 54.2769 169.71 54.3217 169.739 54.3665L169.747 54.3739L169.642 54.4261L169.635 54.4186C169.583 54.344 169.516 54.2695 169.419 54.2024C169.337 54.1427 169.24 54.0979 169.135 54.068C169.024 54.0233 168.912 54.0084 168.792 54.0009Z" fill="white"/>
<path d="M179.635 54.009H178.337V56.9407H177.92V54.009H176.622V53.8896H179.627V54.009H179.635Z" fill="white"/>
<path d="M188.107 53.8896L189.583 56.9333H189.151L188.696 55.9933H187.122L186.667 56.9333H186.533L188.01 53.8896H188.107ZM188.636 55.874L187.905 54.3671L187.182 55.874H188.636Z" fill="white"/>
<path d="M199.53 53.8893H199.702L198.322 55.4335L198.262 55.5007V56.9329H197.845V55.5007L196.413 53.8818H196.95L198.233 55.3365L199.53 53.8893Z" fill="white"/>
<path d="M206.503 53.8896H206.921V56.9333H206.503V53.8896Z" fill="white"/>
<path d="M216.473 53.8896H216.607V56.9333H216.473L213.967 54.0388V56.9333H213.833V53.8896H214.37L216.465 56.3141V53.8896H216.473Z" fill="white"/>
<path d="M225.302 54.0233C225.108 54.0233 224.936 54.0606 224.765 54.1352C224.601 54.2098 224.452 54.3068 224.332 54.4336C224.213 54.5604 224.116 54.7021 224.049 54.8737C223.982 55.0378 223.945 55.2169 223.945 55.4109C223.945 55.6048 223.982 55.7838 224.049 55.9479C224.116 56.1121 224.213 56.2612 224.332 56.388C224.452 56.5149 224.593 56.6119 224.765 56.6865C224.929 56.7611 225.108 56.7984 225.302 56.7984C225.369 56.7984 225.451 56.7909 225.541 56.7685C225.63 56.7461 225.712 56.7238 225.794 56.6939C225.876 56.6641 225.943 56.6268 225.995 56.5895C226.048 56.5522 226.077 56.5148 226.077 56.4701V55.478H225.57V55.3586H226.495V56.2613C226.495 56.3508 226.458 56.4403 226.383 56.5224C226.309 56.6044 226.212 56.679 226.092 56.7386C225.973 56.7983 225.831 56.8506 225.675 56.8879C225.518 56.9252 225.354 56.9401 225.183 56.9401C224.959 56.9401 224.743 56.9028 224.541 56.8208C224.34 56.7387 224.168 56.6342 224.019 56.4925C223.87 56.3582 223.751 56.1941 223.669 56.0076C223.587 55.8211 223.542 55.6272 223.542 55.4183C223.542 55.2094 223.587 55.008 223.669 54.829C223.758 54.6425 223.87 54.4858 224.019 54.3441C224.168 54.2098 224.34 54.0979 224.541 54.0159C224.743 53.9338 224.959 53.8965 225.183 53.8965C225.451 53.8965 225.705 53.9487 225.936 54.0606C226.167 54.1725 226.353 54.3217 226.503 54.5082L226.406 54.5679C226.279 54.4038 226.122 54.2769 225.928 54.18C225.734 54.083 225.526 54.0233 225.302 54.0233Z" fill="white"/>
</g>
<defs>
<clipPath id="clip0_317_983">
<rect width="229" height="57" fill="white"/>
</clipPath>
</defs>
</svg>
