<?xml version="1.0" encoding="utf-8"?>
<!-- Generator: Adobe Illustrator 22.0.1, SVG Export Plug-In . SVG Version: 6.00 Build 0)  -->
<svg version="1.1" id="圖層_1" xmlns="http://www.w3.org/2000/svg" xmlns:xlink="http://www.w3.org/1999/xlink" x="0px" y="0px"
	 viewBox="0 0 1505.1 422.4" style="enable-background:new 0 0 1505.1 422.4;" xml:space="preserve">
<style type="text/css">
	.st0{clip-path:url(#SVGID_2_);fill:#FFFFFF;}
</style>
<g>
	<defs>
		<rect id="SVGID_1_" width="1505.1" height="422.4"/>
	</defs>
	<use xlink:href="#SVGID_1_"  style="overflow:visible;"/>
	<clipPath id="SVGID_2_">
		<use xlink:href="#SVGID_1_"  style="overflow:visible;"/>
	</clipPath>
	<path class="st0" d="M226.4,0.1c32.3-1,61.2,5.4,91.3,17.1c10.8,4.2,21.5,9.4,31,16.3c11.1,8,19.7,15.2,29.6,28.6
		c9.2,12.5,17.1,25.8,23.1,40.2c6.3,15,10.6,30.7,14,46.7c2.7,13,4.2,26.1,5.5,39.3c1.1,10.8,1.9,21.7,1.5,32.5
		c-0.4,13.9-0.8,27.9-2.9,41.7c-2.7,18.1-8.1,35.4-15.6,52c-5.1,11.3-10.4,22.6-17.6,32.8c-22.2,31.2-51.2,52.4-88.5,61.5
		c-15.8,3.9-31.5,7.8-47.6,10.2c-13.3,2-26.7,3-40.1,3.3c-13,0.2-26-0.2-39-1.8c-28.6-3.5-56.4-10.3-82.5-23.2
		c-12.8-6.3-23.8-15-34.3-24.7c-15.1-13.9-24.7-31.2-32-50.1c-8.5-22.2-15.1-44.9-18.8-68.4c-1.6-9.9-2.1-20-2.9-30
		c-0.5-6.8-0.8-13.7-0.6-20.6c0.3-10.4,0.8-20.8,1.6-31.1c1.2-15.5,4.2-30.8,8.4-45.7c7.5-26.3,21-49.1,39.8-68.7
		C62.2,45.1,76,34.4,92.3,27.2c12.2-5.3,24.7-11.1,37.5-14.5c11.7-3.1,34.7-7.9,52.5-9.9c11.7-1.3,23.5-1.9,35.2-2.7
		C220.5-0.1,223.4,0.1,226.4,0.1 M62.9,65.8c0.3-0.6-0.4-0.7-0.9-0.4c-0.7,0.5-0.9,0.7-1.5,1.2c-9.2,8.8-10.7,10.8-18.6,20.8
		c-1.9,2.4-3.7,5.1-5.3,7.8c-11.5,19.3-17.8,40.4-20.7,62.7c-0.9,7-1.4,14.1-1.8,21.2c-0.5,8.6-0.4,17.2-0.7,25.8
		c-0.1,2.5,0.5,6.3,1.5,8.6c2.8,6.2,5.9,10.3,10.5,15.3c5.5,6,16.1,12.1,23.5,14.3c9.9,3,26.1,5,41,5.2c15.5,0.2,32.5-1,52-5.5
		c9.8-2.2,20.4-6.1,29.7-9.9c23.2-9.5,45.5-20.7,67.3-33.1c19.5-11.1,39.3-24,58.8-35c11.1-6.2,21.8-10.6,34.3-13.8
		c10.7-2.7,21.5-4.4,32.5-5.1c7.3-0.5,14.6-0.4,21.8-1.5c6.7-1.1,9.7-6.3,8.3-12.3c-2-8.3-3.2-15.6-6.3-23.5c-2-5.1-4-10.6-6.3-15.6
		c-2.6-5.5-5.6-10.8-9.5-17.1c-10.7-16.9-22.6-26.1-39-35.8c-9.5-5.6-19.5-10.8-30.1-14.2c-13.9-4.5-28.3-7.3-42.7-9.5
		c-10.8-1.6-21.7-3.1-32.6-3c-9.7,0.1-19.5,0.6-29.1,1.6c-11.6,1.1-19.5,2.3-29.8,4.4c-2.9,0.6-5,1.4-7.6,2.3c-1.2,0.4-2.1,2,0,2.5
		c3,0.7,5.3,1.8,7.2,2.5c2.1,0.8,6,3.5,8.8,5.4c9.6,6.6,18.4,16.8,24.3,29.7c4.2,9,5.7,18.5,6.4,28.3c0.8,10.6-1.2,20.3-4,30.3
		c-3.9,14-12.3,28.5-24.5,36.3c-29.2,18.7-63.9,16.6-93-2C73,146.1,62.4,133.5,59,117.2C55,97.7,52.7,88,60.9,70
		C61.4,69,62.8,66.2,62.9,65.8 M256.3,308.9C256.3,308.9,256.3,308.9,256.3,308.9c-10.7-0.3-21.4-0.6-32.1-0.7
		c-8.4-0.1-16.8,0-25.1,0.1c-13.8,0.1-27.6,0.9-41.3,2.7c-20.2,2.8-39.9,7.7-58.7,15.6c-12.1,5.1-23.8,10.9-33.9,19.6
		c-2.8,2.4-3.9,5.4-3.1,9c1,5,3.2,9.4,6.4,13.3c9.2,10.8,20.2,19.1,32.9,25.2c10.7,5.2,22,8.5,33.5,11c10.5,2.2,21,4,31.5,5.9
		c6,1,12,0,17.9-0.6c13.5-1.3,25.7-5.8,36.3-14.6c3.7-3,7.6-5.9,11.5-8.5c14.4-9.4,30.2-16,46.4-21.6c11.6-4,25.8-7.3,37.2-11.8
		c28.8-8,35.5-18.5,53.1-30c7.7-5,15.4-10.1,21.7-16.9c1.6-1.7,2.9-3.8,4.2-5.7c0.6-0.9,0.1-1.5-0.9-1.4c-1.4,0.2-2.8,0.3-4.2,0.7
		c-14.8,4.5-29.9,7.4-45.2,9c-15.9,1.7-31.8,1.5-47.7,1C283.5,309.9,269.9,309.4,256.3,308.9 M251.2,305.6c8.2,0,19,0,29.8,0
		c19.3,0,38.6-0.8,57.8-3.1c13.6-1.6,26.9-4.5,39.7-9.4c9.8-3.7,18.3-9.1,24.9-17.5c10.7-13.6,8.5-35.8-8.7-46
		c-6.4-3.8-18.7-13.4-42.7-7.4c-9.4,1.8-18.2,5.8-27,9.4c-17.4,7.1-34.5,15.1-52,21.8c-39.4,17.4-68.7,21.6-105.1,24.2
		c-15.6,1.1-31.1,0.9-46.6-0.6c-14.3-1.4-28.5-3.8-42.6-6.7c-18.9-3.9-37.2-9.2-54.9-16.9c-0.9-0.4-1.8-0.7-2.7-0.9
		c-1.2-0.3-2.1,0.1-2.1,1.5c0,3.3-0.2,6.6,0.3,9.8C21.7,279.6,26,295,31.7,310c2.7,7,5.7,13.9,8.7,20.8c1.7,4,4.6,6.8,9.2,6.7
		c2.2-0.1,4.4-0.8,6.5-1.7c2.4-0.9,4.7-2.3,7-3.5c23.2-11.2,47.8-17.9,73.1-22c25.4-4.1,50.9-5.9,76.6-5.6
		C224.7,305,236.7,305.3,251.2,305.6 M59.1,255.6c-0.1,0.2-0.2,0.4-0.3,0.6c0.3,0.1,0.5,0.2,0.8,0.4c0.6,0.4,1.2,0.9,1.9,1.2
		c6.6,3,13.3,5.5,20.3,7.2c12.6,3,25.3,5.1,38.3,5.5c10.1,0.3,20.3,0.6,30.4-0.6c5.1-0.6,11.2-0.9,16.3-1.5
		c10.3-1.2,19.6-2.5,29.8-4.1c20.4-3.3,40.2-8.4,59.8-15c26.5-9,52.5-18.1,79.1-27.1c26.4-8.9,40.7-6.5,60.3,2c4.6,2,9.3,4,14,5.8
		c3.7,1.4,5.5,0.2,6.2-3.8c0.2-1.4,0.4-2.8,0.5-4.3c0.8-13.1,0-26.2-2.8-39.1c-2.1-9.7-7.1-16.9-17.5-19.1c-9.4-2-18.8-3.1-28.4-4
		c-21-1.8-36.5,2.3-44.1,4.4c-13.3,3.7-23.1,8.8-34.1,14.5c-10.6,5.6-21.5,10.7-31.4,17.3c-25.6,14.3-46.9,25.5-69.9,36.1
		c-20.9,8.7-47.7,17.6-64.8,21c-9.3,1.9-18.8,3.5-28.3,3.8c-11,0.4-16.3,0.2-27.4-0.7C64.8,255.8,61.9,255.8,59.1,255.6 M66.2,99.4
		c0.3,8,0.8,15.2,3.2,22.1c3.4,10,9.5,18.1,16.9,25.4c11.2,11.1,24.8,16,40.2,15.7c9.9-0.2,19.6-2.1,29.1-5
		c10.9-3.3,20.3-9.2,27.7-18.1c9.5-11.4,13.5-24.9,14.4-39.3c1.4-21.7-7.2-39.4-23.5-53c-26.4-22-65.6-19.8-89.8,4.8
		c-7.1,7.2-12.8,15.5-15.4,25.5C67,85,66.3,92.6,66.2,99.4 M377,334.4c-0.1-0.1-0.3-0.1-0.4-0.2c0-2.3-1.6-3.8-3.8-3.4
		c-1.5,0.3-3,0.7-4.3,1.4c-4.1,2.1-8.2,4.2-12.2,6.5c-18,12.8-34.1,20.2-52.6,26.1c-12.9,4.2-25.7,6.6-38.5,11.1
		c-13.2,4.6-25.9,10.4-36.8,19.4c-7,5.8-13.9,11.9-20.9,17.8c-0.4,0.4-0.7,0.9-1,1.4c0.6,0.2,1.3,0.7,1.9,0.7
		c2.4-0.1,4.7-0.4,7.1-0.5c13.7-1,27.4-1.8,41-4.1c18.4-3.1,36.4-7.6,53.9-14.1c27.5-10.2,48.8-27.7,63.2-53.6
		C375.2,340.3,376,337.3,377,334.4"/>
	<path class="st0" d="M609.5,175.6h-14.9v19.1c0,1.2-5.3,5.4-13.7,5.4h-3V70.3l19,7.4h10.9l7.2-9.5l18.8,13.9
		c-1.2,1.4-3.9,3-7.4,3.7v100.4c0,0.4-4.6,5.3-16.8,5.3V175.6z M609.5,81.2h-14.9v43h14.9V81.2z M594.6,172.1h14.9v-44.4h-14.9
		V172.1z M730.1,187.7l0.4,18.3c6,2.5,6.7,3,6.7,6c0,6.5-5.3,9.5-18.3,9.5h-17.2c-16.9,0-19.1-2.6-19.1-19.3v-32.5h-14.2
		c-2.1,24.4-8.8,42.8-58.1,54.8l-1.9-2.6c37.4-14,40.5-30.9,41.1-52.1h-21.1l-1.1-3.5h83l9-11.2l16.8,11.6c-1.2,2.5-3.3,3.2-8.1,3.2
		h-28.3v32.5c0,4.2,0,4.6,3.3,4.6h15.3c1.4,0,2.8,0,4.4-1.8c1.6-2.3,4.4-10,6.3-17.2H730.1z M678.8,143.7c-9,3.3-22.1,8.1-40.4,14
		c-1.1,2.3-2.8,3.3-4.7,3.7l-6.5-16.9l16.5-0.9v-15.3H630l-1.1-3.5h14.7v-17.6l20.4,1.9c-0.2,1.8-1.6,2.6-5.4,3.2v12.5h1.9l6.1-8.4
		l11.9,9c-1.2,2.3-3.5,3-7.7,3h-12.3v14.2l19.8-1.6L678.8,143.7z M638.3,81.7l-1.1-3.5h32.6V59.6l25.6,2.3c-0.2,2.6-1.9,3.9-7.5,4.6
		v11.8h12.3l9.1-10.9l17.4,11.2c-1.2,2.5-3.5,3.2-8.1,3.2H688v18.6h20.9l9.3-11.6l17.4,12.1c-1.2,2.3-3.5,3-8.2,3H630l-0.9-3.5h40.7
		V81.7H638.3z M738,148.4c-1.2,2.3-3.3,3-7.7,3h-53.9l-1.1-3.5h21.2v-19.5h-15.3l-0.9-3.5h16.1v-17.2l21.2,1.9
		c-0.4,1.9-1.6,2.8-5.4,3.3v11.9h3.5l6.7-9.1l13,9.7c-1.4,2.3-3.5,3-7.9,3h-15.3v19.5h5.4l7-9.5L738,148.4z"/>
	<path class="st0" d="M1021.1,113.1c2.3-5.6,5.1-16,6.5-23.3H917.9c1.2,14.7-5.6,26.2-17,26.2c-5.4,0-10.4-2.8-10.4-8.4
		c0-4.2,3.3-7.7,7.4-9.8c6.8-3.2,14.4-11.8,14.4-21.8h2.6c1.2,3.7,2.1,7.2,2.6,10.4h44.8V58.7l26.7,2.5c-0.4,2.6-1.9,3.9-7.4,4.7
		v20.4h44.8l10.2-10l17.6,16.7c-1.4,1.4-3.3,1.9-6.8,2.1c-6,6.1-16.3,14.6-24.4,19.3L1021.1,113.1z M1022.5,149.3l8.8-14.7
		l21.6,11.2c-1.1,2.5-3.3,3.7-7.7,4.2l-71.6,9.5v37.7c0,5.6,0.7,6.3,8.1,6.3h39c4,0,6.5-0.4,8.4-3.2c2.1-2.8,5.1-11.9,9.3-24.6h1.4
		l-0.3,25.6c7.5,2.6,8.6,3.9,8.6,6.5c0,7.5-5.6,11.4-27.7,11.4h-38.6c-21.6,0-26.9-4-26.9-22.6v-34.8l-62.8,8.4l-1.4-3.5l64.2-8.6
		V124c-15.1,3.2-30.9,5.6-46.2,7l-0.9-2.6c31.9-7.5,69.3-22.3,87.9-34.2l19.5,15.8c-0.9,0.9-2.5,1.6-4.6,1.6c-1.6,0-3.5-0.4-6-1.2
		c-7.5,2.8-16.3,5.6-26,8.1l1.4,0.2c-0.4,2.1-1.4,3.3-6.5,4.2v33L1022.5,149.3z"/>
	<path class="st0" d="M1341.2,102.4l26.2,2.3c-0.4,2.5-1.8,3.9-7,4.6v106c0,0.3-2.8,6-19.1,6v-20.9h-103.9v17.6
		c0,0.4-2.6,5.8-18.6,5.8V102.9l25.8,2.3c-0.4,2.5-1.8,4-7.2,4.6v87.1h42.1V62.4l26.5,2.5c-0.4,2.6-2.3,4-7.5,4.7v127.3h42.8V102.4z
		"/>
	<path class="st0" d="M586.3,363.7c-6.5,0-13.1,0-19.6,0c-0.2,0-0.5,0.1-0.7,0c-0.3-0.1-0.5-0.3-0.8-0.4c0.3-0.2,0.5-0.5,0.8-0.5
		c2.1-0.1,3.9-0.6,5.5-2c1.6-1.5,2.3-3.3,2.3-5.3c0-18.7,0-37.5,0-56.2c0-4.2-2.7-6.8-7.2-7.1c-0.3,0-0.6,0-0.8-0.1
		c-0.2-0.1-0.4-0.3-0.4-0.5c0-0.1,0.3-0.4,0.5-0.4c0.3-0.1,0.7,0,1,0c12.4,0,22.4-0.1,34.8,0c7.3,0.1,14.4,1.2,20.9,4.4
		c5,2.5,9.3,5.8,12.6,10.2c2.7,3.6,4.5,7.5,5.6,11.7c1.1,4.3,1.3,8.8,1,13.3c-0.4,5.8-2,11.2-5.2,16.1c-4,6.2-9.7,10.7-16.9,13.5
		c-5.9,2.3-12.1,3.2-18.5,3.3C595.4,363.8,592.1,363.7,586.3,363.7 M584.2,294.7c0,0.4-0.1,0.6-0.1,0.8c0,21.2,0,42.4,0,63.7
		c0,0.9,0.4,1.1,1.2,1.1c6,0,9.5,0.1,15.4-0.1c2.5,0,5-0.3,7.4-0.8c8.9-1.9,14.8-7.2,18.6-14.8c2.7-5.3,3.6-11,3.6-16.8
		c0-4.5-0.5-9-1.9-13.3c-1.4-4.2-3.5-8.1-6.6-11.3c-5.6-5.9-12.8-8.5-21.1-8.5c-5.9,0-9.3,0-15.2,0H584.2z"/>
	<path class="st0" d="M816.7,326.8c2.2-3.5,4.2-6.8,6.1-10c3.5-5.6,6.9-11.3,10.4-16.9c0.9-1.5,1.7-2.9,1-4.7
		c-0.8-1.9-2.3-2.8-4.4-3c-0.4,0-0.7-0.3-1.1-0.5c0.4-0.2,0.8-0.5,1.2-0.5c7.6,0,15.2,0,22.8,0c0.4,0,0.7,0.3,1.1,0.4
		c-0.3,0.2-0.7,0.5-1,0.5c-5.4,0.1-9.3,2.8-12,6.8c-7.1,10.4-14,21-21,31.5c-0.3,0.5-0.4,1.1-0.5,1.7c0,7.8,0.1,15.6-0.1,23.4
		c-0.1,3.7,2.8,7.1,7.3,7.3c0.4,0,0.7,0.3,1.1,0.4c-0.4,0.2-0.8,0.5-1.1,0.5c-8.3,0-16.7,0-25,0c-0.2,0-0.4,0.1-0.6,0
		c-0.2-0.1-0.4-0.3-0.5-0.5c0.2-0.1,0.4-0.4,0.6-0.4c0.8-0.1,1.6-0.1,2.4-0.3c3.3-0.7,5.6-3.4,5.6-6.8c0.1-7.9,0-15.8,0-23.7
		c0-0.5-0.2-1-0.4-1.4c-6.8-10.6-13.5-21.1-20.3-31.6c-1.9-3-4.6-5.3-8.3-6.3c-1.2-0.3-2.5-0.3-3.8-0.5c-0.4-0.1-0.7-0.3-1-0.5
		c0.4-0.2,0.7-0.4,1.1-0.4c3.5,0,7.1,0,10.6,0c5.7,0,11.4,0,17.1,0c0.4,0,0.7,0,1.1,0.1c0.2,0,0.4,0.3,0.4,0.4
		c0,0.2-0.2,0.4-0.4,0.5c-0.2,0.1-0.4,0.1-0.6,0.1c-4.2,0.1-5.7,4.1-4,6.9c2.5,4.1,4.8,8.4,7.3,12.5c2.7,4.7,5.4,9.4,8.2,14
		C816.1,326,816.3,326.3,816.7,326.8"/>
	<path class="st0" d="M1069.6,362.7c-0.2-0.1-0.5-0.1-0.7-0.1c-4-0.2-7.2-2-10-4.5c-5.3-4.8-9.5-10.5-13.7-16.1
		c-2.5-3.3-4.8-6.7-8.2-9.4c-0.9-0.7-1.9-1.4-3-2.1c0.3-0.1,0.4-0.2,0.6-0.2c0.2,0,0.5-0.1,0.7-0.1c5.4-0.6,9.5-3.3,12.6-7.3
		c3.2-4.2,4.5-8.9,4.1-14c-0.4-6.3-3.3-11.2-9-14.5c-3.8-2.2-8.1-3.1-12.5-3.1c-11.1-0.2-22.2-0.1-33.4-0.1c-0.3,0-0.6,0.3-0.9,0.4
		c0.3,0.2,0.6,0.4,0.9,0.5c1.6,0.2,3.2,0.4,4.6,1.4c2.2,1.6,3,3.7,3,6.2c0,15.2,0,30.3,0,45.5c0,3.5,0,7,0,10.5
		c0.1,3.8-2.9,7-6.6,7.2c-0.4,0-0.8,0-1.2,0.1c-0.3,0.1-0.5,0.3-0.7,0.5c0.2,0.1,0.5,0.3,0.7,0.4c0.2,0.1,0.4,0,0.6,0
		c8.2,0,16.4,0,24.6,0c0.3,0,0.7,0,1-0.1c0.2,0,0.4-0.3,0.4-0.4c0-0.2-0.2-0.4-0.4-0.5c-0.2-0.1-0.5,0-0.7-0.1
		c-4.8-0.5-7.3-3-7.3-7.5c0-8.2,0-16.4,0-24.6c2.6,0,5.8,0,9.2,0.3c1.1,0.9,2.1,2,2.9,3.1c4.3,6.1,8.4,12.4,12.7,18.5
		c1.1,1.6,2.5,3.2,3.9,4.6c3.9,3.6,8.6,5.9,14.1,6.3c3.9,0.3,7.8,0.3,11.7,0.3c0.2,0,0.5-0.3,0.7-0.4
		C1070,363,1069.8,362.8,1069.6,362.7 M1022.1,327c-1.9,0-4.4-0.1-7.1-0.3v-30.1c0-0.4,0-0.8,0-1.2c0-0.6,0.3-0.9,1-0.9
		c4.2,0.1,8.5,0,12.7,0.3c4.6,0.3,7.8,2.9,9.8,6.5c2.5,4.6,2.7,9.5,1.5,14.4c-1.3,5.2-4.6,9-10.3,10.3
		C1027.3,326.8,1024.7,326.9,1022.1,327"/>
	<path class="st0" d="M932,325.1c-1.2-0.3-2.4-0.6-3.6-0.9c2-1.1,4.1-1.9,5.8-3.1c4.7-3.4,6.3-8.2,6-13.6c-0.2-4.2-1.8-7.8-5.2-10.6
		c-4.8-4.1-10.8-5.5-17.1-5.7c-9.2-0.3-18.4-0.1-27.6-0.1c-0.3,0-0.7,0.3-1,0.5c0.3,0.1,0.7,0.4,1,0.4c5,0.3,7.6,3.5,7.5,7.6
		c-0.1,14.5-0.1,29-0.1,43.5c0,4.3,0,8.5,0,12.8c0,3.7-2.5,6.3-6.3,6.8c-0.5,0.1-1,0.1-1.5,0.2c-0.3,0.1-0.5,0.3-0.7,0.5
		c0.2,0.1,0.5,0.3,0.7,0.4c0.2,0.1,0.4,0,0.6,0c9.6,0,19.2,0,28.8,0c4.3,0,8.6-0.5,12.8-1.8c3.7-1.1,7-2.9,9.6-5.6
		c3.3-3.4,4.7-7.4,4.9-11.9C947.2,335.5,941.1,327.5,932,325.1 M909.7,294.6c3.2,0,6.3,0,9.4,0.8c5.7,1.5,8.6,5.4,9.4,10.3
		c0.5,3,0.5,6-0.4,8.9c-1.1,3.6-3.4,6.1-6.7,7.7c-1.3,0.2-7,0.8-13.2,0c0-8.8,0-17.6,0-26.3C908.2,294.9,908.5,294.6,909.7,294.6
		 M933.1,351.6c-2.3,4.5-6.2,7.1-11.3,7.7c-4.2,0.5-8.5,0.3-12.7,0.5c-1,0-0.9-0.6-0.9-1.1c0-10.5,0-20.9,0-31.4v-0.8
		c1.6-0.2,5.6-0.5,10.9-0.3c0.3,0,0.6,0,0.8,0.1c1,0.2,2.1,0.4,3.1,0.7c7.3,2.3,11.5,7.5,11.8,14.6
		C935,344.9,934.7,348.3,933.1,351.6"/>
	<path class="st0" d="M755.2,362.8c-4.7-0.4-7.9-2.7-9.8-6.7c-6.9-15-13.9-30.1-20.8-45.1c-3.2-6.9-6.3-13.7-9.5-20.5
		c-0.2-0.4-0.6-0.6-1.1-1.1c-0.4,1.2-0.5,2-0.8,2.7c-1.4,3.3-2.8,6.7-4.4,10c-8.2,17.9-16.4,35.8-24.5,53.7c-1.2,2.7-3,5.1-6.1,6.2
		c-1.3,0.4-2.7,0.7-4,0.9c-0.7,0.1-1,0.3-0.7,1H696c0.3-0.9-0.2-0.9-0.8-1c-3.4-0.1-5.8-3-4.2-6.5c2.2-5.1,4.4-10.3,6.6-15.4
		c0.1-0.3,0.7-0.7,1.1-0.7c9,0,18,0,27,0c0.4,0,0.9,0.4,1,0.7c0.6,1.3,1.1,2.6,1.6,3.8c1.7,4.1,3.4,8.2,5,12.4c0,0,0,0,0,0l2.7,6.6
		H756C756.4,362.8,755.8,362.8,755.2,362.8 M699.3,336.6c4.3-10.2,8.6-20.2,13.1-30.6c4.3,10.4,8.4,20.4,12.6,30.6H699.3z"/>
	<path class="st0" d="M1278,363.4c-0.3-0.2-0.5-0.5-0.9-0.6c-0.8-0.2-1.5-0.2-2.3-0.4c-3.8-0.9-6.2-3.2-7.7-6.5
		c-7.3-15.9-14.6-31.7-21.9-47.6c-2.8-6-5.6-12-8.4-18.1c-0.2-0.5-0.4-1.2-1.3-0.8c-0.2,0.8-0.4,1.7-0.7,2.4
		c-1.4,3.4-2.9,6.8-4.4,10.1c-8.1,17.8-16.3,35.7-24.5,53.5c-0.6,1.4-1.5,2.7-2.5,3.8c-1.9,2.2-4.6,3.2-7.6,3.4
		c-0.6,0-1.2,0.1-0.8,1h22.6c0.4-0.8-0.1-0.9-0.8-1c-3.6-0.1-5.8-3-4.3-6.6c2.2-5.1,4.4-10.3,6.6-15.4c0.1-0.3,0.7-0.7,1-0.7
		c9.1,0,18.1,0,27.2,0c0.3,0,0.9,0.3,1,0.6c0.8,2,1.6,4,2.4,6.1l0,0l6.8,17h20.2C1277.9,363.6,1277.9,363.5,1278,363.4
		 M1220.9,336.5c4.4-10.2,8.7-20.3,13.1-30.7c4.3,10.4,8.4,20.5,12.6,30.7H1220.9z"/>
	<path class="st0" d="M1158.9,352c0,2.8-1.7,5.2-4.3,6.8c-1.2,0.7-2.6,1.3-4,1.3c-4.9,0.1-11.8,0.1-17.9,0.1v0c-2.3,0-4.5,0-6.8,0
		c-0.5,0-0.8-0.1-1-0.3c-0.2-0.2-0.2-0.5-0.2-0.9c0-0.2,0-0.5,0-0.7c0-1.9,0-3.7,0-5.6h0c0-7.3,0-14.6,0-21.9c0-0.8,0.3-1.1,1.2-1.1
		c5.4,0,13.2,0,18.5,0c2.5,0,4.6,0.9,5.8,2.9c0.6,1.1,0.8,2.5,1.2,3.7c0.1,0.4,0.4,0.7,0.6,1.1c0.2-0.4,0.3-0.8,0.5-1.1
		c0-0.1,0-0.2,0-0.2c0-5.4,0-10.8,0-16.2c0-0.3,0-0.6-0.1-0.9c-0.1-0.2-0.3-0.4-0.5-0.4c-0.2,0-0.4,0.2-0.5,0.4
		c-0.1,0.3,0,0.6-0.1,0.9c-0.2,3.7-3.1,6.3-7.1,6.3c-5.3,0-13,0-18.3,0c-1.1,0-1.3-0.3-1.3-1.2c0-9.7,0-19.3,0-29
		c0-1,0.3-1.2,1.3-1.2c6.8,0,15.3,0,22.1,0.1c1.3,0,2.8,0.6,4,1.3c2.6,1.5,3.4,4,3.5,6.8c0,0.5-0.2,1.2,0.9,1.1v-13h-8.9
		c-1,0.1-2,0.1-3,0.1c-11.5,0-25.5,0-37.1,0c-0.4,0-0.8,0-1.1,0c-0.2,0-0.4,0.2-0.5,0.4c0.2,0.2,0.3,0.4,0.5,0.5
		c0.2,0.1,0.5,0,0.7,0.1c4.7,0.3,7.2,3.5,7.2,6.8c0,19,0,38,0,57.1c0,2.7-1.4,4.8-3.6,6c0,0,0,0,0,0c-0.4,0.2-0.8,0.4-1.2,0.5l0,0
		c-0.4,0.1-0.9,0.2-1.3,0.3c-0.5,0.1-1.1,0.1-1.6,0.2c0,0,0,0-0.1,0c0,0,0,0,0,0c0,0,0,0,0,0c-0.2,0.1-0.3,0.2-0.5,0.3
		c0,0,0.1,0,0.1,0.1c0,0-0.1,0.1-0.1,0.1c0.2,0.1,0.3,0.3,0.5,0.4c0.1,0,0.3,0,0.4,0h5.7h16.6h29.1c0.9-4.1,1.6-8.5,1.6-12.8
		C1158.7,350.7,1158.9,351.4,1158.9,352"/>
	<path class="st0" d="M1379.1,362.6c-0.9-0.2-2-0.2-2.9-0.4c-3.2-0.7-5.7-2.4-7.7-4.5c-7.9-8-19.7-20.2-27.5-28.2
		c-1.3-1.3-2.6-2.6-3.9-3.9c-0.4-0.4-0.6-0.7-0.8-0.9l-1.5-1.6l0.2-0.2l0-0.1c0.1-0.1,0.1-0.1,0.2-0.2c7.2-7.9,14.5-15.7,21.6-23.6
		c3.5-3.9,7.7-6.5,13.3-6.8c0.3,0,0.6-0.3,0.9-0.4c-0.3-0.2-0.6-0.4-0.9-0.4c-7.3,0-14.7,0-22,0c-0.3,0-0.7,0.2-1,0.4
		c0.3,0.2,0.7,0.4,1,0.5c1.4,0.1,2.6,0.5,3.2,1.8c0.6,1.3,0.1,2.3-0.7,3.3c-1.6,1.9-3.2,3.8-4.8,5.7c-4.3,5.1-8.6,10.3-12.9,15.4
		l-6.2,6.5c0-4.3,0-8.6,0-12.8h0V291c-5.9,0-11.8,0-17.7,0c-0.4,0-0.8,0.3-1.2,0.5c0.4,0.1,0.7,0.4,1.1,0.4c4.5,0.4,7.4,3,7.4,6.8
		c0,19.1,0,38.2,0,57.3c0,2.1-0.9,3.8-2.6,5.2c-1.4,1.2-3.1,1.5-4.9,1.7c-0.3,0-0.7,0.3-1,0.4c0.3,0.2,0.7,0.4,1,0.5
		c0.2,0.1,0.4,0,0.6,0h12c4.1,0,8.2,0,12.4,0c0.3,0,0.6,0.1,0.9,0c0.2-0.1,0.4-0.3,0.5-0.5c-0.2-0.1-0.3-0.3-0.5-0.4
		c-0.2-0.1-0.5,0-0.7,0c-4.3-0.4-7.2-3.1-7.2-6.7c0-8.1,0-16.1,0-24.2l1.6-1.7c7.4,7.6,17.9,18.7,25,25.9c1.4,1.4,2.8,2.7,4.5,3.8
		c3.2,2,6.9,3.1,11,3.3c3.7,0.3,7.4,0.3,11.2,0.5c0.1-0.2,0.2-0.3,0.2-0.5C1379.7,363.1,1379.5,362.7,1379.1,362.6"/>
</g>
</svg>
