<svg width="222" height="283" viewBox="0 0 222 283" fill="none" xmlns="http://www.w3.org/2000/svg">
<g clip-path="url(#clip0_317_980)">
<rect width="222" height="283" fill="white"/>
<g opacity="0.7">
<path d="M2.56467 273.09C2.75493 273.112 2.92235 273.158 3.05934 273.227C3.19632 273.295 3.31048 273.379 3.4018 273.47C3.49313 273.562 3.55401 273.684 3.59967 273.805C3.63772 273.927 3.66055 274.064 3.66055 274.201C3.66055 274.361 3.63772 274.506 3.58445 274.643C3.53118 274.78 3.44746 274.902 3.34092 275.001C3.23438 275.1 3.08978 275.184 2.91474 275.244C2.73971 275.305 2.53423 275.336 2.2907 275.336H0V270.942H1.7732C2.01673 270.942 2.22221 270.973 2.39724 271.034C2.57228 271.095 2.71688 271.178 2.82342 271.277C2.92996 271.376 3.01368 271.498 3.06695 271.635C3.12022 271.772 3.14305 271.925 3.14305 272.077C3.14305 272.29 3.09739 272.48 3.00607 272.656C2.92235 272.854 2.77015 272.991 2.56467 273.09ZM1.65143 273.067C1.84169 273.067 1.9939 273.044 2.10805 272.991C2.22982 272.937 2.32114 272.869 2.38202 272.785C2.45051 272.701 2.48857 272.595 2.51901 272.48C2.54945 272.366 2.55706 272.237 2.55706 272.1C2.55706 271.963 2.54184 271.841 2.51901 271.727C2.49618 271.612 2.45051 271.506 2.38202 271.422C2.31353 271.331 2.22221 271.262 2.10805 271.209C1.98629 271.156 1.83408 271.133 1.65143 271.133H0.601213V273.074H1.65143V273.067ZM2.15371 275.176C2.34397 275.176 2.49618 275.153 2.61033 275.1C2.7321 275.047 2.82342 274.978 2.8843 274.894C2.95279 274.803 2.99085 274.704 3.02129 274.582C3.04412 274.468 3.05934 274.338 3.05934 274.201C3.05934 274.064 3.04412 273.942 3.02129 273.828C2.99846 273.714 2.95279 273.607 2.8843 273.524C2.81581 273.432 2.72449 273.364 2.61033 273.318C2.48857 273.265 2.33636 273.242 2.15371 273.242H0.601213V275.184H2.15371V275.176Z" fill="white" stroke="white" stroke-width="0.25" stroke-miterlimit="10"/>
<path d="M15.8902 270.957C16.2174 270.957 16.5295 271.01 16.8263 271.125C17.1231 271.239 17.3742 271.391 17.5873 271.597C17.808 271.795 17.9754 272.031 18.1048 272.297C18.2342 272.564 18.2951 272.853 18.2951 273.15C18.2951 273.455 18.2342 273.736 18.1048 274.003C17.9754 274.269 17.808 274.505 17.5873 274.703C17.3666 274.901 17.1155 275.061 16.8263 275.175C16.5371 275.29 16.2251 275.35 15.8902 275.35C15.563 275.35 15.2509 275.29 14.9541 275.175C14.6573 275.061 14.4062 274.901 14.1931 274.703C13.9724 274.505 13.805 274.269 13.6756 274.003C13.5462 273.736 13.4854 273.455 13.4854 273.15C13.4854 272.845 13.5462 272.564 13.6756 272.297C13.805 272.031 13.9724 271.795 14.1931 271.597C14.4138 271.399 14.6649 271.239 14.9541 271.125C15.2433 271.01 15.5554 270.957 15.8902 270.957ZM15.8902 275.175C16.2022 275.175 16.4686 275.114 16.6893 275C16.9176 274.886 17.1002 274.734 17.2524 274.543C17.397 274.353 17.5112 274.14 17.5797 273.896C17.6482 273.652 17.6862 273.409 17.6862 273.15C17.6862 272.899 17.6482 272.647 17.5797 272.404C17.5112 272.16 17.397 271.947 17.2524 271.757C17.1079 271.566 16.9176 271.414 16.6893 271.3C16.461 271.185 16.1946 271.125 15.8902 271.125C15.5782 271.125 15.3118 271.185 15.0911 271.3C14.8628 271.414 14.6802 271.566 14.528 271.757C14.3834 271.947 14.2692 272.16 14.2007 272.404C14.1322 272.647 14.0942 272.899 14.0942 273.15C14.0942 273.409 14.1322 273.652 14.2007 273.896C14.2692 274.14 14.3834 274.353 14.528 274.543C14.6726 274.734 14.8628 274.886 15.0911 275C15.3118 275.122 15.5782 275.175 15.8902 275.175Z" fill="white" stroke="white" stroke-width="0.25" stroke-miterlimit="10"/>
<path d="M31.9476 270.957H32.1379V273.736C32.1379 273.957 32.0846 274.17 31.9781 274.368C31.8715 274.566 31.7345 274.734 31.5595 274.878C31.3845 275.023 31.179 275.137 30.9431 275.221C30.7071 275.305 30.4712 275.35 30.2125 275.35H30.1744C29.9233 275.35 29.6798 275.312 29.4438 275.244C29.2079 275.175 29.0101 275.076 28.8274 274.939C28.6524 274.802 28.5078 274.635 28.4088 274.437C28.3099 274.239 28.249 274.003 28.249 273.736V270.957H28.8502V273.668C28.8502 273.896 28.8883 274.102 28.972 274.284C29.0557 274.467 29.1699 274.62 29.3069 274.741C29.4514 274.871 29.6113 274.962 29.7939 275.031C29.9766 275.099 30.1668 275.13 30.3647 275.13H30.4103C30.6082 275.13 30.7985 275.084 30.9811 275C31.1638 274.916 31.3312 274.81 31.4682 274.673C31.6052 274.536 31.7193 274.391 31.803 274.224C31.8867 274.056 31.9324 273.889 31.9324 273.729V270.957H31.9476Z" fill="white" stroke="white" stroke-width="0.25" stroke-miterlimit="10"/>
<path d="M46.4377 271.132H44.5732V275.351H43.9719V271.132H42.1074V270.965H46.4377V271.132V271.132Z" fill="white" stroke="white" stroke-width="0.25" stroke-miterlimit="10"/>
<path d="M56.3691 270.957H56.9704V275.35H56.3691V270.957Z" fill="white" stroke="white" stroke-width="0.25" stroke-miterlimit="10"/>
<path d="M71.7418 273.15C71.7418 273.386 71.7037 273.614 71.6276 273.835C71.5515 274.048 71.4373 274.246 71.3004 274.429C71.1558 274.612 70.9883 274.772 70.7981 274.901C70.6002 275.038 70.3871 275.145 70.1588 275.213L70.623 275.853H70.3947L69.9762 275.267C69.8772 275.289 69.7707 275.312 69.6718 275.32C69.5728 275.327 69.4587 275.343 69.3521 275.343C69.0249 275.343 68.7129 275.282 68.4161 275.168C68.1193 275.053 67.8681 274.893 67.655 274.695C67.4343 274.497 67.2669 274.261 67.1375 273.995C67.0081 273.728 66.9473 273.447 66.9473 273.142C66.9473 272.838 67.0081 272.556 67.1375 272.289C67.2669 272.023 67.4343 271.787 67.655 271.589C67.8757 271.391 68.1269 271.231 68.4161 271.117C68.7052 271.003 69.0173 270.949 69.3521 270.949C69.6794 270.949 69.9914 271.003 70.2882 271.117C70.585 271.231 70.8361 271.383 71.0492 271.589C71.2699 271.787 71.4373 272.023 71.5667 272.289C71.6809 272.563 71.7418 272.845 71.7418 273.15ZM70.0294 275.046C70.2197 274.97 70.3871 274.871 70.5241 274.734C70.6611 274.604 70.7752 274.452 70.8666 274.284C70.9579 274.117 71.0264 273.934 71.0721 273.736C71.1177 273.538 71.1405 273.34 71.1405 273.142C71.1405 272.891 71.1025 272.64 71.034 272.396C70.9655 272.152 70.8514 271.939 70.7068 271.749C70.5622 271.558 70.3719 271.406 70.1436 271.292C69.9153 271.178 69.6489 271.117 69.3445 271.117C69.0325 271.117 68.7661 271.178 68.5454 271.292C68.3171 271.406 68.1345 271.558 67.9823 271.749C67.8377 271.939 67.7235 272.152 67.655 272.396C67.5865 272.64 67.5485 272.891 67.5485 273.142C67.5485 273.401 67.5865 273.645 67.655 273.888C67.7235 274.132 67.8377 274.345 67.9823 274.536C68.1269 274.726 68.3171 274.878 68.5454 274.992C68.7737 275.107 69.0401 275.168 69.3445 275.168C69.5195 275.168 69.687 275.145 69.8544 275.099L69.3978 274.475H69.6185L70.0294 275.046Z" fill="white" stroke="white" stroke-width="0.25" stroke-miterlimit="10"/>
<path d="M85.433 270.957H85.6232V273.736C85.6232 273.957 85.57 274.17 85.4634 274.368C85.3569 274.566 85.2199 274.734 85.0449 274.878C84.8698 275.023 84.6643 275.137 84.4284 275.221C84.1925 275.305 83.9566 275.35 83.6978 275.35H83.6598C83.4086 275.35 83.1651 275.312 82.9292 275.244C82.6933 275.175 82.4954 275.076 82.3128 274.939C82.1377 274.802 81.9931 274.635 81.8942 274.437C81.7953 274.239 81.7344 274.003 81.7344 273.736V270.957H82.3356V273.668C82.3356 273.896 82.3736 274.102 82.4574 274.284C82.5411 274.467 82.6552 274.62 82.7922 274.741C82.9368 274.871 83.0966 274.962 83.2793 275.031C83.4619 275.099 83.6522 275.13 83.85 275.13H83.8957C84.0936 275.13 84.2838 275.084 84.4665 275C84.6491 274.916 84.8165 274.81 84.9535 274.673C85.0905 274.536 85.2047 274.391 85.2884 274.224C85.3721 274.056 85.4178 273.889 85.4178 273.729V270.957H85.433Z" fill="white" stroke="white" stroke-width="0.25" stroke-miterlimit="10"/>
<path d="M96.194 271.132V273.074H98.5303V273.241H96.194V275.183H99.0631V275.35H95.5928V270.957H99.0631V271.125H96.194V271.132Z" fill="white" stroke="white" stroke-width="0.25" stroke-miterlimit="10"/>
<path d="M123.135 271.125C122.96 271.117 122.792 271.14 122.632 271.178C122.473 271.216 122.336 271.277 122.221 271.346C122.107 271.422 122.008 271.505 121.94 271.612C121.871 271.711 121.833 271.825 121.826 271.947C121.818 272.061 121.848 272.168 121.917 272.274C121.985 272.373 122.069 272.472 122.176 272.556C122.282 272.64 122.412 272.716 122.549 272.777C122.686 272.838 122.83 272.891 122.982 272.922C123.218 272.983 123.431 273.059 123.622 273.15C123.812 273.242 123.964 273.348 124.101 273.462C124.231 273.584 124.329 273.706 124.398 273.843C124.466 273.98 124.497 274.125 124.489 274.269C124.482 274.422 124.428 274.566 124.337 274.703C124.246 274.84 124.116 274.955 123.964 275.054C123.812 275.153 123.629 275.229 123.424 275.282C123.218 275.335 123.005 275.358 122.777 275.351H122.769C122.549 275.343 122.343 275.313 122.153 275.252C121.963 275.191 121.788 275.115 121.635 275.008C121.559 274.955 121.498 274.901 121.438 274.841C121.384 274.787 121.331 274.726 121.293 274.658L121.285 274.643L121.438 274.574L121.445 274.589C121.521 274.696 121.62 274.802 121.742 274.886C121.864 274.97 122.001 275.031 122.153 275.084C122.305 275.13 122.473 275.16 122.64 275.16C122.815 275.168 122.982 275.153 123.142 275.107C123.302 275.061 123.431 275.008 123.553 274.932C123.667 274.856 123.766 274.772 123.835 274.665C123.903 274.566 123.941 274.452 123.949 274.33C123.957 274.216 123.926 274.11 123.858 274.003C123.789 273.904 123.705 273.805 123.599 273.721C123.492 273.637 123.363 273.561 123.226 273.5C123.089 273.439 122.944 273.386 122.792 273.356C122.556 273.295 122.336 273.219 122.153 273.127C121.963 273.036 121.803 272.929 121.673 272.815C121.544 272.701 121.445 272.571 121.377 272.434C121.308 272.297 121.278 272.16 121.285 272.016C121.293 271.856 121.339 271.711 121.43 271.582C121.521 271.445 121.651 271.33 121.803 271.231C121.955 271.132 122.138 271.056 122.343 271.003C122.549 270.95 122.762 270.927 122.99 270.927C123.211 270.934 123.416 270.957 123.614 271.018C123.812 271.079 123.979 271.155 124.132 271.262C124.208 271.315 124.269 271.368 124.322 271.422C124.375 271.475 124.428 271.536 124.466 271.604L124.474 271.62L124.322 271.688L124.314 271.673C124.238 271.566 124.139 271.46 124.01 271.368C123.896 271.285 123.759 271.224 123.599 271.178C123.439 271.132 123.302 271.132 123.135 271.125Z" fill="white" stroke="white" stroke-width="0.25" stroke-miterlimit="10"/>
<path d="M138.759 271.132H136.894V275.351H136.293V271.132H134.429V270.965H138.759V271.132V271.132Z" fill="white" stroke="white" stroke-width="0.25" stroke-miterlimit="10"/>
<path d="M150.958 270.957L153.089 275.35H152.473L151.81 273.995H149.543L148.88 275.35H148.683L150.813 270.957H150.958ZM151.719 273.82L150.669 271.65L149.626 273.82H151.719Z" fill="white" stroke="white" stroke-width="0.25" stroke-miterlimit="10"/>
<path d="M167.418 270.957H167.669L165.683 273.188L165.599 273.279V275.35H164.998V273.287L162.936 270.957H163.704L165.561 273.051L167.418 270.957Z" fill="white" stroke="white" stroke-width="0.25" stroke-miterlimit="10"/>
<path d="M177.464 270.957H178.065V275.35H177.464V270.957Z" fill="white" stroke="white" stroke-width="0.25" stroke-miterlimit="10"/>
<path d="M191.833 270.957H192.023V275.35H191.833L188.225 271.185V275.35H188.035V270.957H188.811L191.833 274.444V270.957Z" fill="white" stroke="white" stroke-width="0.25" stroke-miterlimit="10"/>
<path d="M204.549 271.163C204.275 271.163 204.017 271.216 203.781 271.323C203.545 271.43 203.332 271.567 203.164 271.749C202.989 271.932 202.852 272.138 202.753 272.381C202.654 272.625 202.601 272.884 202.601 273.158C202.601 273.432 202.654 273.691 202.753 273.935C202.852 274.178 202.989 274.384 203.164 274.567C203.339 274.749 203.545 274.886 203.781 274.993C204.017 275.1 204.275 275.153 204.549 275.153C204.648 275.153 204.763 275.138 204.892 275.115C205.021 275.084 205.143 275.054 205.257 275.008C205.371 274.963 205.47 274.917 205.546 274.856C205.622 274.803 205.661 274.742 205.661 274.688V273.257H204.93V273.089H206.262V274.391C206.262 274.521 206.208 274.643 206.102 274.765C205.995 274.886 205.851 274.985 205.676 275.077C205.501 275.168 205.295 275.237 205.067 275.29C204.839 275.343 204.603 275.366 204.359 275.366C204.032 275.366 203.728 275.305 203.438 275.191C203.149 275.077 202.898 274.917 202.685 274.719C202.472 274.521 202.304 274.285 202.183 274.018C202.061 273.752 202 273.47 202 273.166C202 272.861 202.061 272.579 202.183 272.313C202.304 272.046 202.472 271.81 202.685 271.612C202.898 271.414 203.149 271.254 203.438 271.14C203.728 271.026 204.032 270.973 204.359 270.973C204.747 270.973 205.113 271.049 205.44 271.209C205.767 271.369 206.041 271.582 206.262 271.856L206.125 271.94C205.942 271.704 205.714 271.521 205.44 271.376C205.166 271.232 204.869 271.163 204.549 271.163Z" fill="white" stroke="white" stroke-width="0.25" stroke-miterlimit="10"/>
<path d="M5.35765 245.414C3.6986 245.414 2.03956 245.414 0.380515 245.414C0.319632 245.414 0.25114 245.429 0.190257 245.406C0.121765 245.383 0.0608824 245.338 0 245.299C0.0684927 245.254 0.136985 245.178 0.205478 245.178C0.730588 245.155 1.21004 245.033 1.59816 244.675C2.00912 244.302 2.17654 243.837 2.17654 243.327C2.18415 238.568 2.18415 233.809 2.17654 229.043C2.17654 227.977 1.48401 227.314 0.350074 227.231C0.273971 227.223 0.197868 227.231 0.136985 227.208C0.0913235 227.193 0.0380515 227.124 0.0380515 227.086C0.0380515 227.048 0.106544 226.995 0.152206 226.979C0.228309 226.957 0.319632 226.972 0.403346 226.972C3.55401 226.972 6.08824 226.957 9.2389 226.979C11.0882 226.995 12.8918 227.292 14.5509 228.106C15.8294 228.731 16.9101 229.591 17.7548 230.703C18.4397 231.609 18.904 232.599 19.1856 233.665C19.4747 234.769 19.528 235.896 19.4443 237.03C19.3454 238.492 18.942 239.878 18.1353 241.127C17.1156 242.711 15.6696 243.845 13.8431 244.568C12.3439 245.162 10.7686 245.383 9.15518 245.398C7.6864 245.421 6.83404 245.414 5.35765 245.414ZM4.81732 227.87C4.80971 227.969 4.8021 228.015 4.8021 228.068C4.8021 233.459 4.8021 238.858 4.79449 244.249C4.79449 244.477 4.88581 244.523 5.10651 244.515C6.62096 244.508 7.51136 244.53 9.02581 244.5C9.65746 244.485 10.2967 244.439 10.9132 244.302C13.1658 243.815 14.6726 242.467 15.6315 240.548C16.3089 239.2 16.5372 237.761 16.5524 236.284C16.5676 235.142 16.4306 234.007 16.0729 232.911C15.7229 231.845 15.1978 230.863 14.3987 230.033C12.9756 228.548 11.1567 227.863 9.03342 227.863C7.5418 227.863 6.66662 227.863 5.175 227.863C5.06846 227.87 4.9543 227.87 4.81732 227.87Z" fill="white"/>
<path d="M63.8959 236.033C64.4439 235.142 64.9538 234.312 65.456 233.49C66.3388 232.05 67.214 230.619 68.0968 229.187C68.3251 228.814 68.5154 228.441 68.3403 228C68.1501 227.52 67.762 227.284 67.2292 227.231C67.1379 227.223 67.0466 227.147 66.9553 227.101C67.0542 227.055 67.1531 226.979 67.2521 226.979C69.1851 226.972 71.1105 226.972 73.0435 226.979C73.1348 226.979 73.2338 227.055 73.3251 227.094C73.2414 227.139 73.1577 227.223 73.074 227.223C71.7041 227.261 70.7148 227.924 70.0222 228.944C68.2186 231.601 66.4606 234.281 64.695 236.954C64.6113 237.076 64.5809 237.243 64.5809 237.388C64.5733 239.368 64.6113 241.348 64.558 243.327C64.5352 244.271 65.2658 245.124 66.4149 245.178C66.5063 245.185 66.6052 245.246 66.6965 245.284C66.5976 245.33 66.5063 245.406 66.4073 245.406C64.2917 245.414 62.1684 245.414 60.0527 245.414C59.9995 245.414 59.9386 245.429 59.9005 245.406C59.8473 245.383 59.8092 245.33 59.7635 245.284C59.8092 245.246 59.8549 245.185 59.9081 245.178C60.1136 245.147 60.3267 245.155 60.5246 245.109C61.3693 244.926 61.9477 244.249 61.9553 243.373C61.9705 241.363 61.9629 239.353 61.9553 237.342C61.9553 237.221 61.9096 237.091 61.8488 236.985C60.1288 234.304 58.4241 231.616 56.6814 228.951C56.1867 228.198 55.5018 227.604 54.5657 227.352C54.2613 227.269 53.9264 227.269 53.6144 227.215C53.5231 227.2 53.447 227.132 53.3633 227.086C53.4546 227.048 53.5459 226.972 53.6373 226.972C54.5353 226.964 55.4333 226.964 56.3313 226.964C57.7849 226.964 59.2308 226.964 60.6844 226.964C60.7757 226.964 60.8746 226.957 60.966 226.979C61.0116 226.987 61.0725 227.048 61.0725 227.094C61.0725 227.132 61.0116 227.185 60.966 227.208C60.9279 227.231 60.867 227.223 60.8138 227.223C59.7559 227.246 59.3754 228.266 59.8016 228.982C60.4332 230.033 61.0269 231.106 61.6433 232.165C62.3358 233.353 63.0207 234.54 63.7133 235.728C63.7437 235.812 63.797 235.888 63.8959 236.033Z" fill="white"/>
<path d="M128.134 245.147C128.081 245.124 128.012 245.132 127.951 245.124C126.939 245.063 126.125 244.614 125.417 243.974C124.063 242.748 123.005 241.302 121.932 239.87C121.3 239.033 120.714 238.165 119.862 237.495C119.626 237.312 119.375 237.152 119.093 236.954C119.177 236.923 119.207 236.908 119.238 236.901C119.299 236.885 119.359 236.878 119.42 236.87C120.805 236.725 121.825 236.033 122.617 235.005C123.439 233.939 123.751 232.743 123.667 231.434C123.56 229.842 122.837 228.586 121.369 227.741C120.402 227.185 119.306 226.964 118.195 226.949C115.372 226.911 112.541 226.926 109.717 226.926C109.633 226.926 109.557 227.002 109.474 227.04C109.55 227.078 109.626 227.147 109.71 227.154C110.128 227.208 110.531 227.253 110.882 227.512C111.429 227.916 111.643 228.441 111.643 229.081C111.643 232.934 111.643 236.794 111.643 240.647C111.643 241.538 111.635 242.429 111.643 243.319C111.658 244.286 110.912 245.094 109.953 245.147C109.847 245.154 109.74 245.155 109.641 245.177C109.58 245.193 109.527 245.253 109.474 245.299C109.535 245.337 109.595 245.383 109.656 245.406C109.702 245.421 109.763 245.406 109.808 245.406C111.894 245.406 113.979 245.406 116.057 245.406C116.14 245.406 116.224 245.413 116.308 245.391C116.346 245.383 116.407 245.322 116.399 245.299C116.391 245.253 116.346 245.2 116.3 245.177C116.247 245.155 116.178 245.17 116.117 245.162C114.892 245.048 114.268 244.393 114.268 243.243C114.268 241.157 114.268 239.071 114.268 236.977C114.923 236.977 115.745 236.992 116.612 237.038C116.886 237.281 117.137 237.54 117.335 237.83C118.423 239.39 119.481 240.974 120.569 242.543C120.859 242.954 121.201 243.35 121.574 243.7C122.556 244.622 123.758 245.185 125.143 245.307C126.133 245.391 127.129 245.375 128.119 245.391C128.18 245.391 128.233 245.314 128.294 245.276C128.241 245.238 128.195 245.177 128.134 245.147ZM116.072 236.086C115.592 236.086 114.961 236.071 114.26 236.01C114.26 233.459 114.26 230.908 114.26 228.365C114.26 228.266 114.268 228.167 114.26 228.068C114.26 227.908 114.337 227.84 114.512 227.847C115.585 227.87 116.665 227.847 117.738 227.931C118.895 228.015 119.725 228.662 120.227 229.591C120.851 230.748 120.92 232.005 120.607 233.253C120.28 234.578 119.435 235.538 117.997 235.873C117.381 236.017 116.726 236.04 116.072 236.086Z" fill="white"/>
<path d="M93.1724 235.583C92.868 235.499 92.556 235.431 92.2592 235.355C92.7767 235.081 93.3094 234.883 93.7432 234.555C94.9304 233.679 95.349 232.476 95.2729 231.098C95.212 230.04 94.8086 229.119 93.9563 228.403C92.7234 227.36 91.2014 227.002 89.6184 226.956C87.2897 226.888 84.9533 226.926 82.6169 226.926C82.5256 226.926 82.4419 227.002 82.3506 227.047C82.4343 227.085 82.518 227.146 82.6017 227.154C83.865 227.223 84.5271 228.052 84.5195 229.08C84.4891 232.766 84.5043 236.459 84.5043 240.152C84.5043 241.24 84.5043 242.322 84.5043 243.411C84.4967 244.34 83.8803 245.002 82.8985 245.139C82.7768 245.154 82.6474 245.154 82.5256 245.185C82.4647 245.2 82.4115 245.261 82.3506 245.307C82.4115 245.345 82.4724 245.39 82.5408 245.413C82.5865 245.428 82.6474 245.413 82.693 245.413C85.1283 245.413 87.5712 245.421 90.0065 245.413C91.11 245.413 92.1907 245.276 93.2485 244.949C94.1846 244.659 95.0293 244.218 95.699 243.532C96.5362 242.68 96.8939 241.659 96.9471 240.51C97.0461 238.233 95.5012 236.207 93.1724 235.583ZM87.5104 227.839C88.3171 227.855 89.1237 227.824 89.9076 228.037C91.3536 228.418 92.0765 229.408 92.2896 230.664C92.419 231.418 92.4114 232.179 92.1907 232.926C91.9167 233.847 91.3307 234.479 90.4936 234.883C90.1511 234.928 88.7204 235.081 87.1451 234.89C87.1451 232.659 87.1451 230.428 87.1375 228.197C87.1451 227.931 87.2136 227.839 87.5104 227.839ZM93.4616 242.322C92.8832 243.456 91.8939 244.119 90.5925 244.271C89.5271 244.393 88.4464 244.355 87.3734 244.4C87.1222 244.408 87.1527 244.263 87.1527 244.111C87.1527 241.446 87.1527 238.789 87.1527 236.124C87.1527 236.055 87.1527 235.994 87.1527 235.926C87.556 235.88 88.5682 235.796 89.9228 235.842C89.9989 235.85 90.0674 235.857 90.1359 235.857C90.3947 235.91 90.661 235.956 90.9122 236.032C92.7691 236.611 93.8345 237.936 93.903 239.748C93.9335 240.639 93.8802 241.507 93.4616 242.322Z" fill="white"/>
<path d="M48.265 245.169C47.0702 245.078 46.2559 244.492 45.7841 243.471C44.0261 239.649 42.2605 235.827 40.5025 232.012C39.7034 230.268 38.8967 228.532 38.0824 226.788C38.0368 226.689 37.9302 226.621 37.8009 226.499C37.7095 226.811 37.6791 227.002 37.5954 227.184C37.2301 228.037 36.8724 228.882 36.4919 229.727C34.4143 234.281 32.3367 238.834 30.2591 243.38C29.9394 244.073 29.5056 244.667 28.7142 244.948C28.3869 245.063 28.0368 245.116 27.6868 245.169C27.5041 245.2 27.4432 245.245 27.5193 245.413C29.4219 245.413 31.3321 245.413 33.2271 245.413C33.3184 245.192 33.1738 245.177 33.014 245.169C32.1388 245.131 31.5528 244.415 31.9333 243.517C32.4889 242.215 33.0444 240.913 33.6076 239.611C33.6456 239.527 33.7978 239.428 33.8968 239.428C36.1799 239.421 38.4629 239.421 40.7536 239.428C40.845 239.428 40.9743 239.519 41.02 239.603C41.1722 239.923 41.3016 240.25 41.431 240.578C41.8495 241.629 42.2833 242.672 42.6867 243.723C42.6867 243.723 42.6867 243.723 42.6867 243.73L43.364 245.413C45.0763 245.413 46.781 245.413 48.4933 245.413C48.5694 245.185 48.4172 245.185 48.265 245.169ZM34.0642 238.53C35.1677 235.948 36.2636 233.39 37.3899 230.755C38.4706 233.39 39.5208 235.941 40.5786 238.53C38.3945 238.53 36.256 238.53 34.0642 238.53Z" fill="white"/>
<path d="M181.08 245.337C181.004 245.283 180.943 245.2 180.859 245.177C180.669 245.131 180.463 245.131 180.273 245.085C179.299 244.865 178.698 244.263 178.31 243.425C176.453 239.397 174.596 235.362 172.731 231.334C172.024 229.803 171.316 228.273 170.608 226.735C170.547 226.598 170.509 226.438 170.288 226.545C170.228 226.75 170.189 226.963 170.106 227.161C169.74 228.022 169.368 228.882 168.979 229.735C166.917 234.265 164.847 238.796 162.769 243.326C162.61 243.669 162.397 244.012 162.145 244.301C161.658 244.865 160.981 245.108 160.22 245.162C160.06 245.169 159.916 245.184 160.007 245.405C161.917 245.405 163.827 245.405 165.737 245.405C165.829 245.2 165.715 245.169 165.54 245.162C164.626 245.123 164.056 244.392 164.444 243.486C164.999 242.177 165.555 240.875 166.126 239.573C166.164 239.489 166.301 239.397 166.392 239.397C168.698 239.39 170.996 239.39 173.302 239.397C173.386 239.397 173.523 239.474 173.553 239.55C173.766 240.06 173.964 240.578 174.177 241.095H174.185L175.912 245.413C177.625 245.413 179.337 245.413 181.042 245.413C181.049 245.39 181.065 245.367 181.08 245.337ZM166.575 238.499C167.678 235.91 168.782 233.344 169.908 230.702C170.989 233.336 172.046 235.903 173.104 238.499C170.912 238.499 168.766 238.499 166.575 238.499Z" fill="white"/>
<path d="M150.821 242.421C150.814 243.121 150.388 243.753 149.733 244.142C149.436 244.317 149.063 244.461 148.721 244.469C147.48 244.492 145.723 244.484 144.185 244.484C143.614 244.484 143.036 244.477 142.465 244.484C142.336 244.484 142.252 244.461 142.207 244.416C142.161 244.37 142.146 244.294 142.146 244.18C142.146 244.119 142.146 244.058 142.146 243.997C142.146 243.525 142.146 243.053 142.146 242.581C142.146 240.73 142.153 238.88 142.146 237.022C142.146 236.809 142.207 236.733 142.45 236.733C143.812 236.74 145.791 236.733 147.153 236.74C147.777 236.748 148.318 236.961 148.622 237.487C148.782 237.768 148.82 238.111 148.919 238.423C148.949 238.522 149.01 238.606 149.063 238.697C149.109 238.598 149.155 238.507 149.193 238.408C149.2 238.393 149.193 238.37 149.193 238.347C149.193 236.976 149.193 235.606 149.193 234.235C149.193 234.159 149.2 234.075 149.178 233.999C149.162 233.954 149.094 233.9 149.056 233.9C149.01 233.9 148.949 233.954 148.934 233.999C148.911 234.075 148.926 234.152 148.919 234.235C148.858 235.187 148.143 235.827 147.123 235.827C145.783 235.827 143.82 235.819 142.481 235.834C142.214 235.834 142.146 235.758 142.146 235.515C142.153 233.055 142.153 230.603 142.146 228.144C142.146 227.9 142.214 227.832 142.481 227.832C144.216 227.839 146.369 227.816 148.105 227.855C148.447 227.862 148.82 228.007 149.117 228.182C149.771 228.578 149.984 229.202 149.999 229.903C149.999 230.04 149.946 230.223 150.235 230.169C150.235 229.073 150.235 227.976 150.235 226.88H147.968C147.716 226.895 147.465 226.91 147.207 226.91C144.277 226.918 140.723 226.91 137.793 226.91C137.701 226.91 137.602 226.903 137.511 226.918C137.465 226.926 137.42 226.979 137.374 227.009C137.42 227.055 137.45 227.116 137.503 227.139C137.557 227.162 137.625 227.146 137.686 227.154C138.888 227.238 139.513 228.045 139.513 228.89C139.513 233.725 139.513 238.56 139.513 243.395C139.513 244.073 139.162 244.621 138.584 244.918C138.493 244.964 138.386 245.01 138.28 245.04H138.272C138.165 245.07 138.051 245.101 137.937 245.124C137.8 245.147 137.663 245.139 137.534 245.162C137.526 245.162 137.526 245.169 137.519 245.169C137.519 245.169 137.511 245.169 137.503 245.169L137.496 245.177C137.45 245.2 137.412 245.23 137.374 245.261C137.382 245.268 137.389 245.268 137.397 245.276C137.389 245.284 137.382 245.291 137.374 245.299C137.42 245.329 137.458 245.383 137.511 245.39C137.541 245.398 137.572 245.398 137.61 245.398H139.064H143.272H150.654C150.89 244.347 151.065 243.228 151.065 242.139C150.768 242.109 150.821 242.291 150.821 242.421Z" fill="white"/>
<path d="M206.756 245.139C206.513 245.086 206.262 245.078 206.018 245.025C205.196 244.842 204.572 244.4 204.055 243.882C202.038 241.857 199.055 238.743 197.053 236.71C196.726 236.375 196.399 236.047 196.071 235.712C195.965 235.606 195.912 235.537 195.873 235.476L195.493 235.08L195.546 235.019L195.539 234.997C195.554 234.974 195.569 234.958 195.592 234.936C197.418 232.941 199.268 230.953 201.071 228.943C201.969 227.946 203.027 227.291 204.458 227.222C204.534 227.222 204.603 227.146 204.679 227.108C204.595 227.07 204.519 226.994 204.435 226.994C202.571 226.986 200.706 226.986 198.842 226.994C198.758 226.994 198.666 227.055 198.583 227.085C198.674 227.131 198.758 227.199 198.849 227.207C199.199 227.245 199.496 227.337 199.663 227.672C199.823 227.999 199.686 228.258 199.481 228.509C199.077 228.996 198.674 229.484 198.271 229.963C197.175 231.266 196.087 232.568 194.991 233.87L193.415 235.53C193.415 234.441 193.415 233.352 193.415 232.263V226.91C191.916 226.91 190.417 226.91 188.91 226.91C188.811 226.91 188.712 226.986 188.613 227.032C188.705 227.07 188.796 227.131 188.895 227.139C190.029 227.238 190.759 227.9 190.767 228.867C190.775 233.725 190.767 238.575 190.767 243.433C190.767 243.966 190.531 244.393 190.105 244.743C189.747 245.04 189.313 245.116 188.864 245.162C188.781 245.169 188.697 245.23 188.613 245.268C188.705 245.314 188.788 245.36 188.88 245.39C188.925 245.405 188.986 245.39 189.032 245.39C190.044 245.39 191.064 245.39 192.076 245.39C193.126 245.39 194.169 245.39 195.219 245.39C195.295 245.39 195.371 245.405 195.44 245.382C195.493 245.36 195.531 245.299 195.577 245.261C195.531 245.23 195.493 245.177 195.44 245.162C195.386 245.146 195.318 245.154 195.249 245.154C194.161 245.063 193.408 244.377 193.408 243.464C193.408 241.415 193.408 239.367 193.408 237.319L193.811 236.885C195.691 238.811 198.362 241.629 200.166 243.464C200.508 243.814 200.889 244.157 201.315 244.438C202.122 244.956 203.08 245.215 204.1 245.283C205.044 245.344 205.995 245.367 206.939 245.405C206.962 245.367 206.977 245.329 207 245.291C206.924 245.245 206.848 245.162 206.756 245.139Z" fill="white"/>
<path d="M33.5851 200.984H30.8986V204.425C30.8986 204.646 29.955 205.408 28.4329 205.408H27.8926V182.024L31.302 183.349H33.2578L34.5516 181.643L37.9306 184.141C37.7099 184.392 37.238 184.681 36.6064 184.803V202.88C36.6064 202.941 35.7845 203.824 33.5775 203.824V200.984H33.5851ZM33.5851 183.981H30.8986V191.725H33.5851V183.981ZM30.8986 200.352H33.5851V192.357H30.8986V200.352ZM55.282 203.169L55.3429 206.458C56.416 206.9 56.5453 206.999 56.5453 207.532C56.5453 208.705 55.594 209.238 53.2577 209.238H50.1603C47.1314 209.238 46.7204 208.766 46.7204 205.758V199.91H44.1634C43.7829 204.304 42.5804 207.623 33.7068 209.771L33.3568 209.299C40.0843 206.771 40.655 203.74 40.7464 199.91H36.9564L36.7662 199.278H51.7052L53.3186 197.253L56.3475 199.339C56.1268 199.781 55.7463 199.91 54.8939 199.91H49.8102V205.758C49.8102 206.519 49.8102 206.58 50.4114 206.58H53.1588C53.4099 206.58 53.661 206.58 53.9502 206.26C54.2318 205.849 54.7417 204.456 55.0842 203.161H55.282V203.169ZM46.0583 195.235C44.445 195.836 42.0782 196.689 38.7905 197.763C38.6003 198.174 38.2882 198.364 37.9382 198.425L36.7662 195.395L39.7342 195.235V192.486H37.2761L37.0858 191.854H39.7418V188.694L43.4024 189.044C43.3719 189.364 43.1208 189.517 42.4206 189.616V191.862H42.7707L43.8742 190.347L46.0203 191.961C45.7996 192.372 45.3886 192.501 44.6276 192.501H42.413V195.06L45.9822 194.778L46.0583 195.235ZM38.7601 184.08L38.5698 183.448H44.445V180.098L49.0568 180.509C49.0264 180.981 48.7067 181.202 47.7022 181.331V183.448H49.9168L51.5606 181.491L54.6884 183.516C54.4677 183.958 54.0568 184.088 53.2349 184.088H47.7022V187.438H51.4617L53.1359 185.352L56.2638 187.529C56.0431 187.94 55.6321 188.07 54.7797 188.07H37.2761L37.1163 187.438H44.445V184.088H38.7601V184.08ZM56.7051 196.088C56.4845 196.499 56.1039 196.628 55.3125 196.628H45.617L45.4267 195.996H49.2471V192.486H46.4997L46.3399 191.854H49.2471V188.755L53.0674 189.105C53.0065 189.456 52.7858 189.608 52.0857 189.707V191.854H52.7174L53.9198 190.209L56.2561 191.946C56.005 192.357 55.6245 192.486 54.833 192.486H52.0857V195.996H53.0674L54.3307 194.291L56.7051 196.088Z" fill="white"/>
<path d="M107.648 189.738C108.059 188.725 108.561 186.86 108.82 185.535H89.0785C89.2992 188.192 88.0664 190.241 86.0116 190.241C85.0299 190.241 84.1471 189.738 84.1471 188.725C84.1471 187.964 84.7483 187.332 85.4712 186.959C86.7041 186.388 88.0588 184.842 88.0588 183.037H88.5306C88.7513 183.7 88.9111 184.332 89.0024 184.903H97.0541V179.938L101.856 180.38C101.795 180.852 101.506 181.073 100.532 181.233V184.895H108.584L110.418 183.091L113.576 186.091C113.325 186.342 112.975 186.441 112.343 186.472C111.27 187.576 109.406 189.091 107.952 189.951L107.648 189.738ZM107.899 196.248L109.474 193.591L113.355 195.616C113.165 196.058 112.754 196.279 111.963 196.378L99.0785 198.083V204.875C99.0785 205.888 99.2078 206.01 100.532 206.01H107.541C108.264 206.01 108.713 205.949 109.056 205.439C109.436 204.936 109.969 203.292 110.73 201.015H110.981L110.92 205.629C112.275 206.101 112.465 206.322 112.465 206.802C112.465 208.157 111.453 208.858 107.473 208.858H100.524C96.6432 208.858 95.6919 208.134 95.6919 204.784V198.525L84.383 200.04L84.1318 199.408L95.6919 197.863V191.703C92.975 192.274 90.1364 192.715 87.389 192.967L87.2292 192.494C92.975 191.139 99.7025 188.482 103.051 186.334L106.559 189.182C106.4 189.342 106.118 189.464 105.737 189.464C105.456 189.464 105.106 189.403 104.664 189.243C103.31 189.746 101.727 190.256 99.9917 190.697L100.243 190.728C100.182 191.109 99.9917 191.329 99.0708 191.489V197.429L107.899 196.248Z" fill="white"/>
<path d="M165.251 187.812L169.954 188.223C169.893 188.664 169.642 188.916 168.691 189.045V208.134C168.691 208.195 168.189 209.208 165.251 209.208V205.446H146.553V208.606C146.553 208.667 146.081 209.649 143.204 209.649V187.911L147.846 188.322C147.786 188.763 147.534 189.045 146.553 189.144V204.814H154.132V180.608L158.904 181.05C158.843 181.522 158.493 181.773 157.55 181.903V204.814H165.259V187.812H165.251Z" fill="white"/>
<path d="M108.713 0.0348335C119.87 -0.30781 129.862 1.89273 140.25 5.95877C143.994 7.42833 147.67 9.21769 150.965 11.5934C154.793 14.365 157.784 16.8625 161.178 21.4996C164.352 25.8321 167.076 30.4235 169.169 35.4033C171.361 40.6039 172.845 46.0329 174.002 51.5456C174.938 56.0305 175.448 60.5762 175.919 65.1296C176.308 68.8682 176.566 72.6221 176.452 76.3759C176.308 81.1958 176.171 86.0156 175.455 90.805C174.519 97.064 172.67 103.034 170.075 108.782C168.302 112.704 166.49 116.61 163.987 120.128C156.315 130.91 146.3 138.242 133.408 141.394C127.952 142.727 122.51 144.09 116.947 144.912C112.351 145.59 107.739 145.963 103.097 146.047C98.5913 146.123 94.1012 145.978 89.6263 145.43C79.7254 144.204 70.1364 141.874 61.1258 137.405C56.7042 135.212 52.8915 132.212 49.269 128.877C44.0407 124.08 40.7302 118.095 38.2188 111.554C35.2736 103.886 32.9982 96.0284 31.7044 87.904C31.1641 84.4775 30.9662 80.9902 30.7227 77.5181C30.5552 75.1576 30.4563 72.7743 30.5096 70.4063C30.6009 66.8123 30.7912 63.2184 31.0651 59.6397C31.4761 54.264 32.5111 49.0025 33.9799 43.8247C36.5674 34.7256 41.2325 26.86 47.7241 20.0605C51.9782 15.5985 56.7499 11.8827 62.4043 9.42328C66.628 7.58823 70.9279 5.58567 75.3723 4.39783C79.4209 3.3166 87.3509 1.64907 93.5 0.979008C97.5411 0.537378 101.613 0.324177 105.669 0.0500621C106.673 -0.026081 107.701 0.0348335 108.713 0.0348335ZM52.2294 22.7559C52.3207 22.5351 52.1076 22.5047 51.9326 22.6189C51.6814 22.7788 51.6281 22.8473 51.4075 23.0453C48.2111 26.0682 47.7012 26.7763 44.9691 30.218C44.2994 31.0631 43.6906 31.9692 43.1351 32.8982C39.1625 39.5836 36.9936 46.8857 35.9966 54.5609C35.677 56.9899 35.5324 59.4341 35.3802 61.8783C35.1975 64.8555 35.2508 67.8327 35.1214 70.8099C35.0834 71.6703 35.2889 73.0028 35.6541 73.7947C36.6359 75.9343 37.7013 77.3582 39.2919 79.0866C41.202 81.1729 44.8626 83.2592 47.3968 84.0435C50.8062 85.0867 56.4074 85.7644 61.5672 85.8481C66.9324 85.9319 72.7848 85.4979 79.5275 83.9598C82.9141 83.1831 86.5822 81.8506 89.7938 80.5333C97.8074 77.2516 105.524 73.3683 113.043 69.0814C119.771 65.2438 126.62 60.7818 133.378 56.9899C137.206 54.8426 140.897 53.3122 145.22 52.2233C148.926 51.2868 152.662 50.7081 156.445 50.472C158.956 50.3121 161.475 50.3426 163.979 49.9543C166.308 49.5888 167.343 47.7918 166.848 45.6902C166.163 42.812 165.745 40.2993 164.664 37.5734C163.956 35.7992 163.279 33.9033 162.472 32.1748C161.582 30.2636 160.539 28.4362 159.177 26.2814C155.478 20.426 151.369 17.2432 145.714 13.8929C142.419 11.9436 138.956 10.1466 135.326 8.96642C130.509 7.40549 125.562 6.42324 120.57 5.66942C116.833 5.09835 113.081 4.58819 109.299 4.63388C105.943 4.67956 102.571 4.83946 99.2305 5.20495C95.2047 5.58567 92.4954 5.98922 88.9338 6.72781C87.914 6.94101 87.2215 7.21513 86.3235 7.53493C85.8973 7.68722 85.5929 8.22022 86.3311 8.38773C87.3813 8.62378 88.1576 9.01972 88.8197 9.27099C89.5426 9.54511 90.9049 10.4664 91.8638 11.1365C95.1819 13.4056 98.2108 16.9462 100.266 21.4158C101.704 24.5301 102.221 27.8195 102.48 31.2154C102.754 34.8627 102.054 38.2282 101.08 41.7003C99.7252 46.5354 96.8105 51.5685 92.6172 54.264C82.5412 60.7361 70.5169 59.9975 60.4789 53.5634C55.7073 50.5025 52.0391 46.1623 50.8747 40.5201C49.4897 33.7815 48.6906 30.4312 51.5292 24.2103C51.6966 23.8676 52.1837 22.8701 52.2294 22.7559ZM119.063 106.81C119.063 106.803 119.063 106.795 119.063 106.78C115.364 106.704 111.673 106.589 107.975 106.551C105.083 106.521 102.183 106.567 99.2914 106.582C94.5122 106.605 89.7557 106.879 85.0145 107.534C78.0283 108.501 71.2399 110.206 64.7179 112.925C60.5246 114.676 56.4835 116.686 53.0056 119.701C52.0315 120.547 51.6738 121.582 51.9326 122.831C52.2902 124.544 53.0284 126.09 54.1548 127.415C57.3206 131.153 61.1486 134.009 65.5322 136.125C69.2232 137.915 73.1196 139.072 77.1074 139.917C80.7223 140.686 84.3676 141.318 88.0054 141.943C90.0754 142.301 92.1377 141.943 94.2001 141.752C98.8805 141.318 103.089 139.727 106.75 136.689C108.013 135.638 109.36 134.663 110.737 133.765C115.722 130.498 121.171 128.222 126.772 126.288C130.783 124.902 135.684 123.752 139.641 122.222C149.603 119.442 151.901 115.833 158.005 111.843C160.668 110.1 163.317 108.333 165.516 105.996C166.072 105.402 166.521 104.694 166.985 104.016C167.19 103.711 167.031 103.506 166.688 103.551C166.201 103.605 165.714 103.666 165.25 103.803C160.143 105.371 154.93 106.369 149.634 106.932C144.154 107.511 138.659 107.458 133.157 107.29C128.446 107.138 123.751 106.97 119.063 106.81ZM117.313 105.668C120.136 105.668 123.873 105.668 127.617 105.668C134.291 105.668 140.95 105.386 147.586 104.595C152.282 104.031 156.871 103.026 161.308 101.343C164.679 100.064 167.624 98.1985 169.907 95.2899C173.606 90.5842 172.853 82.909 166.909 79.3683C164.679 78.0434 160.44 74.7464 152.16 76.8099C148.926 77.4495 145.859 78.8201 142.815 80.0612C136.818 82.5054 130.882 85.2847 124.832 87.5918C111.217 93.5995 101.072 95.0538 88.5229 95.9675C83.1424 96.3635 77.7695 96.2797 72.4043 95.7467C67.4576 95.2594 62.5641 94.4447 57.6936 93.4472C51.1791 92.1071 44.8245 90.272 38.7135 87.607C38.4091 87.4776 38.0894 87.3634 37.7698 87.2796C37.3512 87.1654 37.0544 87.3101 37.0544 87.7898C37.0621 88.9167 36.9783 90.0588 37.1458 91.1629C37.9981 96.6681 39.4821 102.006 41.4608 107.199C42.3893 109.628 43.4319 112.018 44.4593 114.402C45.0529 115.788 46.0574 116.747 47.6327 116.709C48.3862 116.686 49.1624 116.42 49.8778 116.138C50.7149 115.81 51.4912 115.331 52.2979 114.942C60.3191 111.074 68.8046 108.744 77.5412 107.32C86.3083 105.897 95.1438 105.295 104.025 105.394C108.15 105.447 112.275 105.562 117.313 105.668ZM50.9052 88.3761C50.8747 88.4446 50.8367 88.5131 50.8062 88.5816C50.8899 88.6197 50.9889 88.6578 51.065 88.7035C51.2857 88.8405 51.4836 89.0081 51.7119 89.107C53.9797 90.1426 56.3085 91.0258 58.7286 91.6121C63.0816 92.6629 67.4728 93.3634 71.9552 93.5081C75.456 93.6223 78.9567 93.7061 82.4498 93.3025C84.2154 93.0969 86.3235 92.9751 88.0891 92.7695C91.6431 92.3431 94.8774 91.9091 98.401 91.3456C105.441 90.2111 112.297 88.4522 119.055 86.1603C128.226 83.0537 137.214 79.909 146.376 76.7947C155.486 73.7261 160.433 74.5333 167.213 77.48C168.811 78.1729 170.417 78.8506 172.046 79.4673C173.324 79.947 173.964 79.5282 174.2 78.1577C174.283 77.6703 174.337 77.1754 174.367 76.6881C174.649 72.1424 174.359 67.6347 173.416 63.1803C172.7 59.8148 170.973 57.3477 167.373 56.5787C164.131 55.8858 160.866 55.4975 157.563 55.2081C150.318 54.5685 144.961 55.9848 142.32 56.731C137.731 58.0254 134.337 59.7615 130.547 61.7564C126.886 63.6829 123.127 65.4722 119.679 67.7413C110.821 72.683 103.485 76.5663 95.5319 80.2288C88.3174 83.244 79.048 86.3202 73.1272 87.5004C69.9081 88.1476 66.6204 88.7111 63.3404 88.8329C59.5505 88.97 57.7164 88.9091 53.858 88.5969C52.8762 88.4446 51.8869 88.437 50.9052 88.3761ZM53.3709 34.3754C53.4622 37.147 53.6525 39.6216 54.4592 42.0125C55.6236 45.4694 57.7392 48.2715 60.2811 50.7994C64.1471 54.6447 68.8426 56.3198 74.1774 56.2208C77.5945 56.1523 80.9506 55.5051 84.223 54.5C87.9977 53.3426 91.2245 51.3248 93.7968 48.2486C97.0844 44.3197 98.4543 39.6445 98.7815 34.6723C99.2762 27.1798 96.293 21.0579 90.6461 16.3447C81.5214 8.73037 67.9675 9.49942 59.6037 17.997C57.138 20.5021 55.1745 23.3499 54.2918 26.822C53.6373 29.3728 53.409 31.9997 53.3709 34.3754ZM160.79 115.635C160.745 115.62 160.691 115.597 160.646 115.582C160.661 114.79 160.105 114.257 159.329 114.394C158.819 114.486 158.294 114.638 157.83 114.874C156.414 115.59 154.999 116.313 153.629 117.112C147.427 121.552 141.848 124.08 135.463 126.151C131.004 127.597 126.574 128.443 122.145 129.996C117.579 131.602 113.203 133.59 109.428 136.719C106.993 138.737 104.611 140.823 102.214 142.879C102.069 143.001 101.985 143.207 101.871 143.367C102.092 143.45 102.313 143.61 102.533 143.603C103.355 143.572 104.17 143.473 104.992 143.412C109.733 143.054 114.474 142.78 119.17 141.988C125.524 140.907 131.749 139.361 137.815 137.123C147.32 133.605 154.679 127.536 159.649 118.582C160.143 117.668 160.41 116.618 160.79 115.635Z" fill="white"/>
</g>
</g>
<defs>
<clipPath id="clip0_317_980">
<rect width="222" height="283" fill="white"/>
</clipPath>
</defs>
</svg>
