<svg width="237" height="73" viewBox="0 0 237 73" fill="none" xmlns="http://www.w3.org/2000/svg">
<path d="M38.8823 0.0175143C44.428 -0.15418 49.39 0.944662 54.5579 2.95348C56.4122 3.6746 58.2494 4.56741 59.8805 5.75209C61.7863 7.12565 63.2628 8.36184 64.9626 10.6625C66.5422 12.8087 67.8986 15.0922 68.9287 17.5646C70.0104 20.1401 70.7487 22.8356 71.3324 25.5828C71.796 27.8148 72.0536 30.064 72.2768 32.3303C72.4656 34.1846 72.603 36.0561 72.5343 37.9104C72.4656 40.2969 72.397 42.7006 72.0364 45.07C71.5728 48.1777 70.6457 51.148 69.358 53.9981C68.4823 55.9383 67.5723 57.8784 66.3362 59.6297C62.5245 64.9865 57.5454 68.6264 51.1412 70.1889C48.4285 70.8585 45.7329 71.5281 42.9686 71.9401C40.6851 72.2835 38.3844 72.4552 36.0837 72.5067C33.8516 72.5411 31.6196 72.4724 29.3876 72.1977C24.4772 71.5967 19.7041 70.4292 15.2228 68.2144C13.0252 67.1327 11.1365 65.639 9.33374 63.9735C6.74116 61.587 5.0929 58.6167 3.83953 55.3717C2.38013 51.5601 1.24695 47.6626 0.611685 43.6278C0.336975 41.928 0.251128 40.1939 0.113772 38.477C0.0279254 37.3095 -0.0235828 36.1248 0.010756 34.9401C0.0622642 33.1545 0.148111 31.3688 0.285466 29.6004C0.491499 26.9391 1.00658 24.3122 1.7277 21.754C3.0154 17.2384 5.33327 13.3238 8.56112 9.9586C10.6901 7.74375 13.0595 5.90662 15.8581 4.67042C17.9528 3.76044 20.099 2.76462 22.2966 2.18086C24.3055 1.64861 28.2544 0.824476 31.3106 0.481088C33.3194 0.257886 35.3454 0.154869 37.3542 0.0175143C37.8693 -0.0168245 38.3672 0.0175143 38.8823 0.0175143ZM10.8103 11.2978C10.8618 11.1948 10.7416 11.1776 10.6558 11.2291C10.5356 11.315 10.5013 11.3493 10.3982 11.4352C8.81866 12.9461 8.56112 13.2895 7.20474 15.0064C6.87852 15.4185 6.56947 15.882 6.29476 16.3456C4.32028 19.6593 3.2386 23.2821 2.74069 27.1108C2.58617 28.3127 2.50032 29.5317 2.43164 30.7507C2.34579 32.2273 2.36296 33.7039 2.31146 35.1804C2.29429 35.6097 2.3973 36.2621 2.569 36.657C3.04974 37.7215 3.58199 38.4255 4.37178 39.2839C5.3161 40.3141 7.13606 41.3614 8.40659 41.7392C10.1064 42.2542 12.8878 42.5976 15.446 42.632C18.1073 42.6663 21.0261 42.4603 24.3741 41.6877C26.0567 41.3099 27.8767 40.6403 29.4735 39.9879C33.4568 38.3568 37.2855 36.4338 41.0285 34.3048C44.3765 32.399 47.776 30.1842 51.1241 28.2955C53.0299 27.231 54.867 26.4756 57.0132 25.9261C58.8503 25.4626 60.7046 25.1707 62.5932 25.0505C63.8466 24.9647 65.1 24.9818 66.3362 24.793C67.4865 24.6041 68.0016 23.7113 67.7612 22.6811C67.4178 21.2561 67.2118 20.0027 66.6795 18.6463C66.3362 17.7707 65.9928 16.8264 65.5979 15.9679C65.1515 15.0236 64.6364 14.1136 63.9668 13.0319C62.1297 10.1303 60.0865 8.55071 57.2707 6.88527C55.6396 5.92379 53.9227 5.03098 52.1027 4.44722C49.7162 3.6746 47.2438 3.19385 44.7714 2.81613C42.9171 2.54142 41.0456 2.28388 39.1742 2.30104C37.5087 2.31821 35.8261 2.40406 34.1779 2.57575C32.1862 2.76462 30.8298 2.97065 29.0614 3.33121C28.5635 3.43422 28.2029 3.57158 27.7565 3.7261C27.5505 3.79478 27.396 4.06949 27.7565 4.15534C28.2716 4.27553 28.6665 4.46439 28.9927 4.58458C29.3533 4.72193 30.0229 5.1855 30.5036 5.51172C32.1519 6.6449 33.6628 8.39618 34.6758 10.611C35.3969 12.1563 35.6544 13.7874 35.7746 15.47C35.912 17.2899 35.5686 18.9554 35.0878 20.6723C34.4182 23.076 32.976 25.5656 30.8813 26.9048C25.8679 30.1155 19.9101 29.7549 14.9138 26.5614C12.5444 25.0848 10.7245 22.9215 10.1407 20.1229C9.45393 16.7748 9.05903 15.1094 10.4669 12.0189C10.5528 11.8472 10.7931 11.3665 10.8103 11.2978ZM44.0159 53.0366C42.1788 52.9851 40.3417 52.9336 38.5046 52.9164C37.0623 52.8993 35.6201 52.9164 34.195 52.9336C31.8257 52.9508 29.4563 53.0881 27.1041 53.3972C23.6359 53.8779 20.2535 54.7192 17.0256 56.0756C14.9481 56.9513 12.9393 57.9471 11.2052 59.4408C10.7245 59.8529 10.5356 60.368 10.673 60.9861C10.8446 61.8445 11.2224 62.6 11.7718 63.2696C13.3514 65.1239 15.24 66.5489 17.4205 67.5963C19.2577 68.4891 21.1978 69.0557 23.1723 69.4849C24.9751 69.8626 26.7779 70.1717 28.5806 70.4979C29.6108 70.6696 30.641 70.4979 31.654 70.3949C33.9718 70.1717 36.0665 69.3991 37.8865 67.8882C38.5217 67.3731 39.1913 66.8752 39.8609 66.4288C42.3333 64.8148 45.0461 63.6817 47.8275 62.7202C49.8192 62.0334 52.2572 61.4668 54.2146 60.6942C59.1593 59.3206 60.3097 57.5178 63.3315 55.5434C64.6535 54.6849 65.9756 53.8092 67.0573 52.6417C67.332 52.3499 67.5552 51.9893 67.7784 51.6631C67.8814 51.5085 67.7956 51.4055 67.6239 51.4227C67.3835 51.457 67.1431 51.4742 66.9027 51.5429C64.3617 52.3155 61.7691 52.8134 59.1422 53.0881C56.4122 53.38 53.6823 53.3457 50.9524 53.2598C48.686 53.2083 46.351 53.1225 44.0159 53.0366ZM43.1403 52.47C44.5482 52.47 46.4025 52.47 48.2568 52.47C51.5705 52.47 54.8842 52.3327 58.1807 51.9378C60.5157 51.6631 62.7993 51.1652 64.9969 50.3239C66.6795 49.6886 68.1389 48.7614 69.2721 47.3192C71.1092 44.9842 70.7315 41.1726 67.7784 39.4213C66.6795 38.7689 64.5677 37.1206 60.447 38.1508C58.8331 38.4598 57.3222 39.1466 55.8113 39.7647C52.8238 40.9837 49.8879 42.3573 46.8832 43.5076C40.1185 46.4951 35.0878 47.2162 28.8382 47.6626C26.1598 47.8515 23.4985 47.8171 20.8372 47.5596C18.382 47.3192 15.944 46.9071 13.5231 46.4092C10.2781 45.7396 7.13606 44.8297 4.09707 43.5076C3.94255 43.4389 3.78802 43.3874 3.6335 43.3531C3.42747 43.3016 3.27294 43.3703 3.27294 43.6106C3.27294 44.1772 3.2386 44.7438 3.32445 45.2932C3.73652 48.006 4.4748 50.6501 5.45346 53.2255C5.91703 54.4273 6.43211 55.612 6.94719 56.7967C7.23907 57.4835 7.73699 57.9642 8.52678 57.9471C8.90451 57.9299 9.28223 57.8097 9.64279 57.6552C10.0549 57.5007 10.4498 57.2603 10.8446 57.0543C14.8279 55.1313 19.0516 53.9809 23.3955 53.277C27.7565 52.573 32.1347 52.264 36.5472 52.3155C38.5904 52.367 40.6507 52.4185 43.1403 52.47ZM10.1579 43.8853C10.1407 43.9197 10.1235 43.954 10.1064 43.9884C10.1579 44.0055 10.1922 44.0227 10.2437 44.057C10.3467 44.1257 10.4498 44.2116 10.5699 44.2631C11.7031 44.7781 12.8535 45.2074 14.0553 45.4993C16.2187 46.0143 18.3992 46.3749 20.6312 46.4436C22.3653 46.4951 24.1166 46.5466 25.8507 46.3406C26.7263 46.2375 27.7737 46.186 28.6493 46.083C30.4178 45.877 32.0145 45.6538 33.7658 45.3791C37.2684 44.8125 40.6679 43.9368 44.0331 42.8037C48.583 41.2584 53.047 39.696 57.6141 38.1508C62.1468 36.6227 64.602 37.0347 67.9672 38.4941C68.757 38.8375 69.564 39.1809 70.371 39.49C71.0062 39.7303 71.3153 39.5243 71.4355 38.8375C71.4698 38.5972 71.5041 38.3568 71.5213 38.0992C71.6587 35.8501 71.5213 33.6009 71.0406 31.386C70.68 29.7206 69.8215 28.4844 68.0359 28.1067C66.422 27.7633 64.8081 27.5744 63.1598 27.4199C59.5542 27.1108 56.893 27.8148 55.5881 28.1753C53.3046 28.8106 51.622 29.6862 49.7333 30.6649C47.9134 31.6264 46.0419 32.502 44.3422 33.6352C39.9468 36.0904 36.2897 38.0134 32.3407 39.8334C28.7523 41.3271 24.1509 42.8552 21.215 43.4389C19.6182 43.7651 17.9871 44.0399 16.356 44.0914C14.4674 44.16 13.5574 44.1257 11.6516 43.9712C11.1365 43.9197 10.6386 43.9197 10.1579 43.8853ZM11.3769 17.0667C11.4284 18.4403 11.5143 19.6765 11.9263 20.8612C12.5101 22.5781 13.5574 23.9688 14.8279 25.2222C16.7509 27.128 19.086 27.9693 21.73 27.9178C23.4298 27.8835 25.0953 27.5572 26.7263 27.0593C28.5978 26.4927 30.2117 25.4797 31.4823 23.9517C33.1134 21.9943 33.8001 19.6765 33.9547 17.2041C34.195 13.4783 32.7185 10.4393 29.9199 8.1043C25.3871 4.32703 18.6567 4.70476 14.5017 8.92843C13.2827 10.1646 12.304 11.5897 11.8576 13.3066C11.5143 14.5943 11.3941 15.8992 11.3769 17.0667ZM64.7394 57.4148C64.7222 57.3977 64.6879 57.3977 64.6707 57.3805C64.6707 56.9856 64.396 56.728 64.0183 56.7967C63.7607 56.8482 63.5032 56.9169 63.28 57.0371C62.5761 57.3977 61.8721 57.7582 61.1853 58.1531C58.0948 60.3508 55.3306 61.6213 52.1542 62.6343C49.9394 63.3554 47.7417 63.7675 45.544 64.5401C43.2776 65.3299 41.0971 66.3257 39.2257 67.871C38.0238 68.8668 36.8391 69.9141 35.6373 70.9271C35.5686 70.9958 35.5171 71.0817 35.4656 71.1675C35.5686 71.2019 35.6888 71.2877 35.7918 71.2877C36.2039 71.2705 36.5988 71.219 37.0108 71.2019C39.363 71.0302 41.7152 70.8928 44.0503 70.4979C47.2094 69.9657 50.2999 69.193 53.3046 68.077C58.0262 66.3257 61.6832 63.3211 64.1556 58.8742C64.4304 58.4278 64.5677 57.9127 64.7394 57.4148Z" fill="white"/>
<path d="M104.658 30.1499H102.1V33.4293C102.1 33.6353 101.19 34.3564 99.7475 34.3564H99.2324V12.0705L102.495 13.3411H104.366L105.602 11.71L108.83 14.0965C108.624 14.3369 108.161 14.6116 107.56 14.7318V31.9699C107.56 32.0385 106.77 32.8798 104.675 32.8798V30.1499H104.658ZM104.658 13.942H102.1V21.3248H104.658V13.942ZM102.1 29.549H104.658V21.9258H102.1V29.549ZM125.364 32.2274L125.433 35.3694C126.463 35.7986 126.583 35.8845 126.583 36.3996C126.583 37.5156 125.673 38.0307 123.441 38.0307H120.488C117.587 38.0307 117.209 37.5843 117.209 34.717V29.1369H114.771C114.41 33.3262 113.26 36.4854 104.795 38.5457L104.469 38.0993C110.89 35.6956 111.423 32.794 111.526 29.1541H107.903L107.714 28.5532H121.965L123.51 26.6302L126.394 28.6218C126.188 29.0511 125.828 29.1712 125.004 29.1712H120.145V34.7513C120.145 35.4724 120.145 35.5411 120.711 35.5411H123.338C123.579 35.5411 123.819 35.5411 124.094 35.232C124.368 34.8372 124.849 33.5151 125.175 32.2789H125.364V32.2274ZM116.556 24.6729C115.011 25.2395 112.762 26.0636 109.62 27.0766C109.431 27.4715 109.139 27.6432 108.813 27.7118L107.697 24.8102L110.53 24.6557V22.0288H108.178L107.989 21.4278H110.513V18.406L114.015 18.7323C113.981 19.0413 113.741 19.1787 113.088 19.2817V21.4278H113.414L114.462 19.9856L116.505 21.5309C116.299 21.9258 115.904 22.0459 115.183 22.0459H113.071V24.484L116.47 24.2093L116.556 24.6729ZM109.603 14.0278L109.414 13.4269H115.011V10.2334L119.406 10.6283C119.372 11.0747 119.08 11.2979 118.119 11.4181V13.4441H120.231L121.793 11.5726L124.78 13.4956C124.574 13.9248 124.18 14.045 123.39 14.045H118.136V17.2385H121.724L123.321 15.2469L126.309 17.3244C126.103 17.7193 125.708 17.8394 124.901 17.8394H108.178L108.023 17.2385H115.011V14.0278H109.603ZM126.721 25.4798C126.515 25.8747 126.154 25.9949 125.399 25.9949H116.144L115.955 25.394H119.595V22.0459H116.968L116.814 21.445H119.578V18.4919L123.218 18.8181C123.149 19.1443 122.943 19.2988 122.291 19.3847V21.4278H122.892L124.042 19.8654L126.274 21.5309C126.034 21.9258 125.673 22.0459 124.918 22.0459H122.291V25.394H123.218L124.42 23.7629L126.721 25.4798Z" fill="white"/>
<path d="M175.328 19.4188C175.722 18.4573 176.203 16.6717 176.444 15.4183H157.609C157.815 17.9422 156.647 19.9167 154.69 19.9167C153.763 19.9167 152.904 19.4359 152.904 18.4745C152.904 17.7533 153.471 17.1524 154.175 16.7918C155.342 16.2424 156.647 14.7659 156.647 13.0489H157.094C157.3 13.6842 157.454 14.2851 157.54 14.8345H165.232V10.0786L169.816 10.5078C169.747 10.9543 169.49 11.1775 168.546 11.3148V14.8174H176.238L177.989 13.1004L181.011 15.9677C180.77 16.2081 180.444 16.2939 179.843 16.3283C178.813 17.3756 177.044 18.835 175.654 19.642L175.328 19.4188ZM175.568 25.6341L177.079 23.1102L180.787 25.0332C180.599 25.4624 180.221 25.6684 179.465 25.7543L167.172 27.3854V33.8582C167.172 34.8197 167.292 34.9399 168.563 34.9399H175.259C175.946 34.9399 176.375 34.8712 176.701 34.3905C177.062 33.9097 177.577 32.3473 178.298 30.1668H178.538L178.487 34.5622C179.774 35.0086 179.963 35.2318 179.963 35.6782C179.963 36.9659 179.002 37.6355 175.207 37.6355H168.58C164.871 37.6355 163.961 36.9487 163.961 33.7552V27.7803L153.179 29.2225L152.939 28.6216L163.961 27.145V21.2902C161.369 21.8397 158.656 22.2517 156.029 22.4921L155.875 22.0457C161.352 20.758 167.773 18.2169 170.967 16.1737L174.315 18.8865C174.16 19.041 173.885 19.1612 173.525 19.1612C173.25 19.1612 172.924 19.0925 172.495 18.9552C171.207 19.4359 169.696 19.9167 168.031 20.3459L168.271 20.3803C168.202 20.7408 168.031 20.9468 167.155 21.1014V26.7673L175.568 25.6341Z" fill="white"/>
<path d="M230.287 17.5816L234.785 17.9765C234.717 18.4058 234.476 18.6461 233.583 18.7663V36.9659C233.583 37.0174 233.103 37.996 230.304 37.996V34.4076H212.465V37.4295C212.465 37.4981 212.019 38.4253 209.271 38.4253V17.6675L213.701 18.0624C213.632 18.4916 213.392 18.7491 212.465 18.8522V33.8067H219.693V10.7139L224.243 11.1431C224.175 11.5895 223.848 11.8299 222.955 11.9501V33.8067H230.304V17.5816H230.287Z" fill="white"/>
<path d="M100.674 62.4457C99.5585 62.4457 98.4253 62.4457 97.3093 62.4457C97.275 62.4457 97.2234 62.4628 97.1891 62.4457C97.1376 62.4285 97.1033 62.3942 97.0518 62.377C97.1033 62.3427 97.1376 62.2912 97.1891 62.2912C97.5497 62.274 97.8587 62.1881 98.1334 61.9478C98.4081 61.6902 98.5283 61.3812 98.5283 61.0378C98.5283 57.8271 98.5283 54.5993 98.5283 51.3886C98.5283 50.6675 98.0647 50.2211 97.2921 50.1696C97.2406 50.1696 97.1891 50.1696 97.1548 50.1524C97.1204 50.1352 97.0861 50.1009 97.0861 50.0665C97.0861 50.0494 97.1376 49.9979 97.1719 49.9979C97.2235 49.9807 97.2921 49.9979 97.3436 49.9979C99.4726 49.9979 101.19 49.9807 103.319 49.9979C104.572 50.015 105.791 50.2039 106.907 50.7533C107.765 51.1826 108.504 51.7491 109.07 52.5046C109.534 53.1227 109.843 53.7923 110.032 54.5134C110.221 55.2517 110.255 56.0243 110.204 56.7969C110.135 57.7928 109.86 58.7199 109.311 59.5612C108.624 60.6257 107.645 61.3983 106.409 61.8791C105.396 62.274 104.332 62.4285 103.233 62.4457C102.237 62.4628 101.67 62.4457 100.674 62.4457ZM100.314 50.5988C100.314 50.6675 100.297 50.7018 100.297 50.7361C100.297 54.3761 100.297 58.016 100.297 61.6731C100.297 61.8276 100.365 61.8619 100.503 61.8619C101.533 61.8619 102.134 61.8791 103.147 61.8448C103.576 61.8448 104.005 61.7932 104.417 61.7074C105.946 61.3812 106.959 60.4712 107.611 59.1663C108.075 58.2563 108.229 57.2777 108.229 56.2819C108.229 55.5092 108.143 54.7366 107.903 53.9983C107.662 53.2772 107.302 52.6076 106.77 52.0582C105.808 51.0452 104.572 50.5988 103.147 50.5988C102.134 50.5988 101.55 50.5988 100.537 50.5988H100.314V50.5988Z" fill="white"/>
<path d="M140.234 56.1099C140.611 55.5089 140.955 54.9423 141.281 54.3929C141.882 53.4314 142.466 52.4528 143.067 51.4913C143.221 51.2338 143.359 50.9934 143.238 50.6843C143.101 50.3581 142.843 50.2036 142.483 50.1693C142.414 50.1693 142.363 50.1177 142.294 50.0834C142.363 50.0491 142.431 49.9976 142.5 49.9976C143.805 49.9976 145.11 49.9976 146.415 49.9976C146.483 49.9976 146.535 50.0491 146.604 50.0662C146.552 50.1006 146.483 50.1521 146.432 50.1521C145.505 50.1693 144.835 50.6328 144.372 51.3196C143.152 53.1052 141.968 54.9252 140.766 56.728C140.714 56.8138 140.697 56.9168 140.68 57.0198C140.68 58.3591 140.697 59.6983 140.663 61.0375C140.646 61.6727 141.144 62.2565 141.916 62.2908C141.985 62.2908 142.036 62.3424 142.105 62.3595C142.036 62.3939 141.968 62.4454 141.916 62.4454C140.491 62.4454 139.049 62.4454 137.624 62.4454C137.59 62.4454 137.555 62.4625 137.521 62.4454C137.487 62.4282 137.452 62.3939 137.435 62.3595C137.469 62.3424 137.504 62.2908 137.538 62.2908C137.675 62.2737 137.813 62.2737 137.95 62.2393C138.517 62.1192 138.912 61.6556 138.912 61.0718C138.929 59.7154 138.912 58.3591 138.912 57.0027C138.912 56.9168 138.877 56.831 138.843 56.7623C137.675 54.9423 136.525 53.1396 135.358 51.3368C135.031 50.8217 134.568 50.4268 133.933 50.2551C133.726 50.2036 133.503 50.2036 133.28 50.1693C133.211 50.1521 133.16 50.1177 133.108 50.0834C133.177 50.0491 133.229 50.0147 133.297 50.0147C133.898 50.0147 134.516 50.0147 135.117 50.0147C136.096 50.0147 137.075 50.0147 138.053 50.0147C138.122 50.0147 138.173 50.0147 138.242 50.0319C138.276 50.0319 138.311 50.0834 138.311 50.1006C138.311 50.1349 138.276 50.1692 138.242 50.1864C138.208 50.2036 138.173 50.2036 138.139 50.2036C137.418 50.2208 137.16 50.9075 137.452 51.3883C137.881 52.0922 138.276 52.8305 138.706 53.5345C139.169 54.3414 139.633 55.1484 140.114 55.9382C140.131 55.9725 140.165 56.024 140.234 56.1099Z" fill="white"/>
<path d="M183.655 62.2736C183.621 62.2564 183.569 62.2564 183.535 62.2564C182.848 62.2221 182.299 61.913 181.818 61.4838C180.908 60.6597 180.187 59.681 179.466 58.7195C179.036 58.1529 178.642 57.5692 178.058 57.1056C177.903 56.9854 177.732 56.8652 177.543 56.745C177.594 56.7279 177.611 56.7107 177.646 56.7107C177.68 56.7107 177.732 56.6935 177.766 56.6935C178.693 56.5905 179.397 56.1269 179.929 55.4402C180.479 54.719 180.702 53.9121 180.633 53.0364C180.565 51.9548 180.067 51.1135 179.088 50.5469C178.436 50.1691 177.697 50.0146 176.942 50.0146C175.036 49.9803 173.13 49.9975 171.207 49.9975C171.156 49.9975 171.104 50.049 171.053 50.0661C171.104 50.1005 171.156 50.1348 171.207 50.152C171.482 50.1863 171.757 50.2207 171.997 50.3924C172.375 50.6671 172.512 51.0276 172.512 51.4569C172.512 54.0666 172.512 56.6592 172.512 59.2689C172.512 59.8699 172.512 60.4708 172.512 61.0717C172.529 61.7242 172.014 62.2736 171.379 62.3079C171.31 62.3079 171.242 62.3079 171.173 62.3251C171.121 62.3423 171.087 62.3766 171.053 62.4109C171.087 62.4281 171.139 62.4624 171.173 62.4796C171.207 62.4968 171.242 62.4796 171.276 62.4796C172.684 62.4796 174.092 62.4796 175.5 62.4796C175.551 62.4796 175.62 62.4796 175.671 62.4624C175.706 62.4624 175.74 62.4109 175.74 62.3938C175.74 62.3594 175.706 62.3251 175.671 62.3079C175.637 62.2907 175.585 62.3079 175.551 62.2907C174.727 62.2049 174.298 61.7757 174.298 61.003C174.298 59.5951 174.298 58.1873 174.298 56.7794C174.744 56.7794 175.294 56.7794 175.877 56.8309C176.066 56.9854 176.238 57.1743 176.375 57.3631C177.114 58.4105 177.817 59.4921 178.556 60.5395C178.745 60.8142 178.985 61.0889 179.225 61.3293C179.895 61.9474 180.702 62.3423 181.646 62.4109C182.316 62.4624 182.985 62.4624 183.655 62.4624C183.689 62.4624 183.741 62.4109 183.775 62.3938C183.724 62.3251 183.689 62.2907 183.655 62.2736ZM175.5 56.1441C175.173 56.1441 174.744 56.1269 174.281 56.0926V50.9246C174.281 50.8559 174.281 50.7872 174.281 50.7186C174.281 50.6156 174.332 50.564 174.452 50.564C175.173 50.5812 175.912 50.564 176.633 50.6156C177.423 50.6671 177.972 51.1135 178.315 51.7316C178.745 52.5214 178.779 53.3627 178.573 54.204C178.35 55.0968 177.783 55.7492 176.804 55.9724C176.392 56.1098 175.946 56.1269 175.5 56.1441Z" fill="white"/>
<path d="M160.029 55.818C159.823 55.7665 159.617 55.715 159.411 55.6635C159.754 55.4747 160.115 55.3373 160.407 55.1313C161.214 54.5475 161.489 53.7234 161.437 52.7962C161.403 52.0751 161.128 51.457 160.544 50.9763C159.72 50.2723 158.69 50.032 157.608 49.9976C156.029 49.9461 154.449 49.9805 152.87 49.9805C152.818 49.9805 152.749 50.032 152.698 50.0663C152.749 50.0835 152.818 50.135 152.87 50.135C153.728 50.1865 154.174 50.7359 154.157 51.4398C154.14 53.9294 154.14 56.419 154.14 58.9085C154.14 59.6468 154.14 60.3679 154.14 61.1062C154.14 61.7415 153.711 62.1879 153.058 62.2737C152.973 62.2909 152.887 62.2909 152.801 62.3081C152.749 62.3252 152.715 62.3596 152.681 62.3939C152.715 62.4111 152.767 62.4454 152.801 62.4626C152.835 62.4798 152.87 62.4626 152.904 62.4626C154.552 62.4626 156.2 62.4626 157.849 62.4626C158.587 62.4626 159.325 62.3768 160.046 62.1536C160.682 61.9647 161.248 61.6556 161.695 61.1921C162.261 60.6083 162.502 59.9215 162.536 59.1489C162.639 57.6037 161.592 56.2301 160.029 55.818ZM156.2 50.5814C156.75 50.5814 157.282 50.5814 157.814 50.7187C158.793 50.9763 159.291 51.6459 159.428 52.4872C159.514 53.0023 159.514 53.5173 159.36 54.0153C159.171 54.6334 158.776 55.0626 158.209 55.3373C157.986 55.3716 157.007 55.4747 155.943 55.3373C155.943 53.8264 155.943 52.3155 155.943 50.8217C155.943 50.6329 155.994 50.5814 156.2 50.5814ZM160.218 60.3679C159.823 61.1406 159.154 61.587 158.278 61.69C157.557 61.7758 156.818 61.7415 156.097 61.7758C155.926 61.7758 155.943 61.6728 155.943 61.587C155.943 59.7842 155.943 57.9986 155.943 56.1958V56.0584C156.218 56.0241 156.904 55.9726 157.814 56.0069C157.866 56.0069 157.917 56.0069 157.952 56.0241C158.123 56.0584 158.312 56.0928 158.484 56.1443C159.737 56.5392 160.458 57.432 160.51 58.651C160.544 59.2176 160.493 59.8013 160.218 60.3679Z" fill="white"/>
<path d="M129.674 62.2908C128.867 62.2221 128.318 61.8272 127.992 61.1405C126.807 58.5651 125.605 55.9725 124.42 53.3971C123.871 52.2124 123.339 51.0449 122.789 49.8773C122.755 49.8087 122.686 49.7743 122.6 49.6885C122.532 49.8945 122.515 50.0319 122.463 50.1521C122.223 50.7186 121.982 51.3024 121.708 51.869C120.3 54.9423 118.892 58.0156 117.501 61.089C117.295 61.5525 116.986 61.9646 116.454 62.1535C116.231 62.2221 115.99 62.2736 115.767 62.308C115.647 62.3252 115.595 62.3595 115.647 62.4797H119.51C119.561 62.3252 119.476 62.3252 119.373 62.308C118.789 62.2908 118.377 61.7929 118.651 61.192C119.029 60.3163 119.407 59.4235 119.785 58.5479C119.802 58.4964 119.905 58.4277 119.974 58.4277C121.519 58.4277 123.064 58.4277 124.609 58.4277C124.678 58.4277 124.764 58.4964 124.781 58.5479C124.884 58.7711 124.97 58.9943 125.056 59.2003C125.348 59.9043 125.639 60.6082 125.914 61.3293L126.378 62.4625H129.812C129.88 62.2908 129.777 62.2908 129.674 62.2908ZM120.077 57.7924C120.815 56.0412 121.553 54.3242 122.326 52.5386C123.064 54.3242 123.768 56.0412 124.489 57.7924H120.077Z" fill="white"/>
<path d="M219.436 62.3942C219.384 62.3598 219.35 62.3083 219.281 62.2911C219.144 62.2568 219.024 62.2568 218.887 62.2225C218.234 62.0679 217.822 61.673 217.564 61.1065C216.311 58.3765 215.058 55.6638 213.804 52.9338C213.324 51.9037 212.843 50.8735 212.362 49.8262C212.328 49.7403 212.293 49.6201 212.139 49.6888C212.105 49.8262 212.07 49.9807 212.019 50.1009C211.778 50.6846 211.521 51.2684 211.263 51.835C209.873 54.8911 208.465 57.9645 207.057 61.0206C206.954 61.261 206.799 61.4842 206.628 61.6731C206.301 62.0508 205.838 62.2225 205.323 62.2568C205.22 62.2568 205.117 62.274 205.185 62.4285H209.066C209.134 62.2912 209.048 62.274 208.928 62.2568C208.31 62.2396 207.932 61.7417 208.19 61.1236C208.568 60.248 208.945 59.3552 209.323 58.4795C209.34 58.428 209.443 58.3594 209.495 58.3594C211.057 58.3594 212.603 58.3594 214.165 58.3594C214.216 58.3594 214.319 58.4109 214.337 58.4624C214.474 58.8058 214.611 59.1491 214.749 59.5097L215.916 62.4285H219.384C219.419 62.4285 219.419 62.4113 219.436 62.3942ZM209.632 57.7756C210.388 56.0243 211.126 54.2902 211.881 52.5046C212.62 54.2902 213.324 56.0243 214.045 57.7756H209.632Z" fill="white"/>
<path d="M198.987 60.4366C198.987 60.9174 198.695 61.3294 198.249 61.6042C198.043 61.7243 197.802 61.8274 197.562 61.8274C196.721 61.8445 195.536 61.8445 194.489 61.8445C194.094 61.8445 193.716 61.8445 193.321 61.8445C193.235 61.8445 193.184 61.8274 193.149 61.793C193.115 61.7587 193.115 61.7072 193.115 61.6385C193.115 61.6042 193.115 61.5526 193.115 61.5183C193.115 61.1921 193.115 60.883 193.115 60.5568C193.115 59.3035 193.115 58.0501 193.115 56.7967C193.115 56.6594 193.167 56.6079 193.321 56.6079C194.248 56.6079 195.588 56.6079 196.498 56.6079C196.927 56.6079 197.287 56.7624 197.493 57.1058C197.596 57.2946 197.631 57.535 197.699 57.741C197.717 57.8097 197.768 57.8612 197.802 57.9299C197.837 57.8612 197.854 57.7925 197.888 57.741C197.888 57.7239 197.888 57.7067 197.888 57.7067C197.888 56.7796 197.888 55.8524 197.888 54.9253C197.888 54.8737 197.888 54.8222 197.871 54.7707C197.854 54.7364 197.82 54.7021 197.785 54.7021C197.751 54.7021 197.717 54.7364 197.699 54.7707C197.682 54.8222 197.699 54.8737 197.682 54.9253C197.648 55.5605 197.15 56.0069 196.463 56.0069C195.553 56.0069 194.231 56.0069 193.321 56.0069C193.132 56.0069 193.098 55.9554 193.098 55.8009C193.098 54.1355 193.098 52.4872 193.098 50.8218C193.098 50.6501 193.149 50.6157 193.321 50.6157C194.489 50.6157 195.948 50.6157 197.116 50.6329C197.339 50.6329 197.596 50.7359 197.802 50.8561C198.249 51.1137 198.386 51.5429 198.403 52.0236C198.403 52.1095 198.369 52.2297 198.558 52.2125V49.9805H197.03C196.858 49.9976 196.686 49.9976 196.515 49.9976C194.54 49.9976 192.136 49.9976 190.145 49.9976C190.076 49.9976 190.007 49.9976 189.956 49.9976C189.922 49.9976 189.887 50.032 189.87 50.0663C189.904 50.1007 189.922 50.135 189.956 50.1522C189.99 50.1693 190.042 50.1522 190.076 50.1693C190.883 50.2208 191.312 50.7703 191.312 51.3369C191.312 54.599 191.312 57.8612 191.312 61.1406C191.312 61.6042 191.072 61.9647 190.694 62.1707C190.626 62.2051 190.557 62.2394 190.488 62.2566C190.42 62.2738 190.334 62.2909 190.265 62.3081C190.179 62.3253 190.076 62.3253 189.99 62.3424C189.99 62.3424 189.99 62.3424 189.973 62.3424C189.939 62.3596 189.922 62.3768 189.887 62.3939C189.887 62.3939 189.904 62.3939 189.904 62.4111L189.887 62.4283C189.922 62.4455 189.939 62.4798 189.973 62.497C189.99 62.497 190.025 62.497 190.042 62.497H191.02H193.871H198.867C199.021 61.793 199.142 61.0376 199.142 60.2993C198.953 60.2134 198.987 60.3336 198.987 60.4366Z" fill="white"/>
<path d="M236.794 62.2567C236.639 62.2223 236.45 62.2223 236.296 62.188C235.746 62.0678 235.317 61.7759 234.974 61.4154C233.617 60.0418 231.591 57.9472 230.252 56.5736C230.029 56.3504 229.806 56.1272 229.582 55.904C229.514 55.8353 229.479 55.7838 229.445 55.7495L229.187 55.4748L229.222 55.4404V55.4232C229.239 55.4061 229.239 55.4061 229.256 55.3889C230.492 54.0325 231.746 52.6933 232.965 51.3369C233.566 50.6673 234.287 50.2209 235.248 50.1694C235.3 50.1694 235.351 50.1179 235.403 50.1007C235.351 50.0664 235.3 50.0321 235.248 50.0321C233.995 50.0321 232.724 50.0321 231.471 50.0321C231.42 50.0321 231.351 50.0664 231.299 50.1007C231.351 50.1351 231.42 50.1694 231.471 50.1866C231.711 50.2037 231.917 50.2724 232.02 50.4956C232.123 50.7188 232.038 50.8905 231.9 51.0622C231.626 51.3884 231.351 51.7147 231.076 52.0409C230.338 52.9165 229.6 53.8093 228.861 54.685L227.797 55.801C227.797 55.0627 227.797 54.3244 227.797 53.6033V49.9634C226.784 49.9634 225.771 49.9634 224.758 49.9634C224.689 49.9634 224.62 50.0149 224.552 50.0492C224.62 50.0664 224.672 50.1179 224.741 50.1179C225.513 50.1866 226.011 50.633 226.011 51.2854C226.011 54.5648 226.011 57.8441 226.011 61.1235C226.011 61.484 225.857 61.7759 225.565 62.0163C225.324 62.2223 225.033 62.2738 224.723 62.3082C224.672 62.3082 224.603 62.3597 224.552 62.3769C224.603 62.4112 224.672 62.4455 224.723 62.4627C224.758 62.4799 224.792 62.4627 224.826 62.4627H226.887C227.591 62.4627 228.295 62.4627 229.016 62.4627C229.067 62.4627 229.119 62.4799 229.17 62.4627C229.205 62.4455 229.239 62.4112 229.256 62.3769C229.222 62.3597 229.205 62.3253 229.17 62.3082C229.136 62.291 229.084 62.3082 229.05 62.3082C228.312 62.2395 227.814 61.7759 227.814 61.1578C227.814 59.7671 227.814 58.3936 227.814 57.0028L228.089 56.711C229.359 58.0158 231.162 59.9216 232.381 61.1578C232.621 61.3982 232.862 61.6214 233.154 61.8103C233.703 62.1537 234.338 62.3425 235.042 62.3769C235.678 62.4284 236.313 62.4284 236.965 62.4627C236.982 62.4284 237 62.4112 237 62.3769C236.897 62.3425 236.862 62.2738 236.794 62.2567Z" fill="white"/>
</svg>
