<svg id="圖層_1" data-name="圖層 1" xmlns="http://www.w3.org/2000/svg" viewBox="0 0 372.33 239.88"><title>bath-tub</title><path d="M395.82,534.51H220.08c-.28,2.58-.42,5-.81,7.37-2,12.22-11.16,21-21.39,20.52-10.46-.48-19.1-9.64-20.22-22-.51-5.68,0-11.48-.41-17.18a9,9,0,0,0-2.47-5.56c-22-19.27-35.23-57.27-34.95-89.17.1-10.89,0-21.79,0-32.95-1.63-.67-3.16-1.26-4.66-1.94-9.14-4.18-14.47-14.9-13.06-26.25,1.35-10.78,9.78-19.69,19.41-20.45,1.81-.14,3.64-.07,5.46-.07H349.15c.2-2.19.36-4,.54-5.89,1-9.85,7.93-18,16.51-18.18q24.84-.48,49.71,0c8.51.17,15.56,8.46,16.48,18.26.16,1.68.2,3.38.34,5.8h21.33c6.13,0,12.27-.06,18.4,0,11,.12,19.94,8.63,21.51,20.34,1.63,12.19-4.09,22.63-14.81,27-.92.38-1.81.84-2.88,1.34,0,11.17,0,22.25,0,33.34.08,34.26-10.13,73.27-34.91,92.12-1.44,1.09-2.55,3.73-2.76,5.78-.47,4.73.12,9.6-.45,14.3-1.49,12.29-10.49,21.27-20.81,21.29-10.54,0-19.44-9.27-20.92-21.81C396.21,538.74,396.05,536.86,395.82,534.51Zm36.69-138.67c0,15.86,0,31.31,0,46.76,0,14.65-7.29,23.1-20,23.2q-21.37.17-42.76,0c-13-.09-20.12-8.44-20.18-23.62,0-13.39-.22-26.78.09-40.16.12-5.25-1.18-6.72-5.78-6.7q-92,.26-184,.11h-6.52c.73,17.7-.16,34.94,2.47,51.44,5.6,35.12,34.1,71.15,65.72,71.3,35.3.17,70.6.05,105.9,0,25.2,0,50.4.47,75.57-.24,28.95-.82,51.85-37.06,57-69.85,2.63-16.71,1.53-34.21,2.09-51.36,0-.28-.35-.58-.56-.91ZM363.7,416.59h54.89c0-23.5,0-46.59,0-69.69,0-6.66-1.12-7.91-7.05-7.93q-20.37,0-40.75,0c-6.46,0-7.33,1.06-7.34,8.77q0,31.81,0,63.63C363.44,413,363.6,414.71,363.7,416.59Zm-14-53.67H145.5a11.83,11.83,0,0,0-3.95.33c-3.83,1.37-5.7,4.67-5.32,9.16.34,4.09,2.57,6.51,6.24,6.82,1.32.12,2.65.12,4,.12H349.67ZM418,433.43H363.43V440c0,9.07.59,9.77,8.45,9.77q17.1,0,34.2,0C418.74,449.76,419.29,449,418,433.43Zm15-70.5v17c13.5,0,26.57.11,39.64-.06,4.8-.06,7.65-3.57,7.61-8.5s-2.9-8.39-7.64-8.44C459.5,362.85,446.42,362.93,433,362.93Zm-241,165.38c0,4-.25,7.39.06,10.76.43,4.67,3.18,7.2,7.06,7.12,4.33-.1,6.09-3.56,6.73-8.26.69-5-1.63-6.07-5.2-6.67C197.85,530.8,195.24,529.48,191.92,528.31Zm232,2c-4.35,1-7.92,1.73-11.45,2.68-.83.23-2.2,1.33-2.13,1.83.35,2.93.34,6.54,1.85,8.45s4.89,3,6.91,2.33,3.85-3.78,4.65-6.3S423.94,533.7,423.94,530.28Z" transform="translate(-121.91 -322.54)"/></svg>