<svg id="圖層_1" data-name="圖層 1" xmlns="http://www.w3.org/2000/svg" viewBox="0 0 383.33 325.79"><title>breakfast</title><path d="M106,427.25c1.26-6.95,2-14,3.87-20.82,4.49-16.36,13.86-28.35,31.4-32.05,8.56-1.81,17.12-1.12,25.63.58l2.91.54c0-2.46,0-4.68,0-6.9.08-9.26,5.11-14.4,14.34-14.44,15.22-.06,30.44,0,45.66,0H333.11c10.92,0,15.55,4.58,15.55,15.39,0,22.08.09,44.16-.08,66.24,0,3.7.91,5.72,5.16,5.8,1-2.07,2.24-4.35,3.35-6.67a13.49,13.49,0,0,1,7.8-7.09c10.26-3.86,20.48-7.81,30.7-11.75a13.51,13.51,0,0,1,11.23.37c2,1,4.05,1.8,6.58,2.91,1.65-3.53,3.4-6.81,4.75-10.25a20.09,20.09,0,0,1,11-11.59,4.79,4.79,0,0,0,2.31-3.43c.48-6.34.33-12.73,1-19,.86-8.32,4.84-14.84,12.58-18.67s14.92-2.31,20.35,4.44,7.9,14.9,10.31,23a28.53,28.53,0,0,1,.89,3.62c.61,3.78,1.72,6.8,5.69,8.81s5.69,6.2,6.19,10.6c3.09,27.31-1.57,52.91-17.19,76a4.49,4.49,0,0,0-.31,5.07c2.14,4.53,1.62,8.87-1.19,13.09-8.38,12.61-17.95,20.87-37.32,31.7,1.87.12,3,.25,4.11.25q18.72,0,37.43,0c9.64,0,15.27,5.63,15.29,15.36,0,2.24,0,4.49,0,6.74,0,14.61-7.73,24.5-22.1,27.76a55.86,55.86,0,0,1-12.23,1.31q-144.46.11-288.92.06c-8.79,0-17.12-1.56-24.36-7-6.63-4.94-10.19-11.45-10.13-19.82,0-3.25,0-6.49,0-9.73.07-8.9,5.92-14.72,14.84-14.73q23.94,0,47.9,0a17.61,17.61,0,0,0,4.17-.35,74.22,74.22,0,0,1-24.74-34.29c-4.83.79-9.35,1.67-13.9,2.25-30.07,3.88-45.17-15.29-50.69-36C107.72,459.5,107,454.19,106,449Zm76.6-60.06V372q0,49.76,0,99.51c0,3.61.16,7.24.49,10.83,2.38,26.24,25.83,49.27,52,50.32,16.06.64,32.18.6,48.24,0,13.56-.52,25.16-6.46,35.39-16.21a14.62,14.62,0,0,1-1.43-.85c-11.69-8.85-20.95-19.85-28.64-32.25-2.85-4.61-3.88-9.59-1.62-14.6,1.26-2.77.73-4.81-.4-7.31-3.92-8.63-7.37-17.44-8.12-27.05S281.83,418,290,415.27c9.95-3.28,17.85.21,24.48,7.49,3.52,3.86,6.66,8.08,10.09,12a4,4,0,0,0,2.91,1.44c2.77-.39,5.48-1.22,8.29-1.9V367.19ZM476.47,545.77H150.64c-1.12,0-2.25,0-3.37,0-2.11,0-3.21.76-3,3.11a54.92,54.92,0,0,1,0,7.48c-.33,5.54,2.36,9.2,6.95,11.83s9.88,3.2,15.17,3.2H454.83c5.83,0,11.7-.45,16.26-4.33a16.24,16.24,0,0,0,5.16-8.14C477.13,555,476.47,550.77,476.47,545.77ZM358,490.23l-1,.13c1.66,12.45,3.37,24.89,4.95,37.35.31,2.39,1.42,3.54,3.75,3.81,3.82.45,7.63,1.26,11.46,1.41,15.92.66,30.85-3.43,45.22-9.89,13.46-6.06,25.56-13.95,34.71-25.86,2.11-2.75,2.5-5.06.64-8-6.52-10.3-12.38-21.06-19.5-30.93-8.91-12.34-20-22.6-34.09-29a9.29,9.29,0,0,0-6.26-.29q-13,4.57-25.81,9.87a10.23,10.23,0,0,0-4.85,4.54C360,458.13,358,474,358,490.23Zm-8.52-35.78c-4.3-2.07-8.09-3.67-11.64-5.69-2.64-1.5-4.89-1.45-7.26.27Q316,459.58,301.5,470.09c-3,2.15-3.3,4.51-1.28,7.67a106.58,106.58,0,0,0,22.2,25.63,74.74,74.74,0,0,0,24.62,13A159.66,159.66,0,0,1,349.45,454.45Zm113.84,16.66s.1,0,.15-.11c12.13-19.24,14.68-40.38,12.19-62.45-.13-1.11-2.34-2.94-3.46-2.85q-18.76,1.49-37.47,3.64c-1.49.17-3.26,1.89-4,3.35-2.32,4.36-4.21,8.94-5.24,11.22,7.09,8,14,15.26,20.19,23S457.35,462.94,463.29,471.11ZM170.52,485.2l-.92-12.09c-5.55.81-10.7,1.69-15.87,2.26-7,.78-12.46-2.15-16-8.11a33.93,33.93,0,0,1-3.94-9.21c-3.49-14.31-3.06-28.75,0-43,2.69-12.71,10.41-17.74,23.22-15.82,4.24.63,8.4,1.83,12.6,2.77.16-15.52,3.3-12.93-11.81-15.54l-.37-.06c-17.6-2.28-29.88,5.61-34.93,22.63-3.78,12.73-4.17,25.79-3.31,38.92.55,8.53,2.28,16.82,6.45,24.39C134.19,488,149.38,491.92,170.52,485.2Zm-.71-47.05V424.71c0-8.21-.73-9.24-8.64-11.71a35,35,0,0,0-5.09-1.14c-6.83-1.05-9.45.44-10.23,7.32a203.94,203.94,0,0,0-1.27,25.31c.06,4.62,1.52,9.28,2.73,13.83.87,3.23,3.21,5,6.8,4.28,4.37-.88,8.73-1.82,13.1-2.74,2-.44,2.69-1.68,2.65-3.77C169.73,450.11,169.81,444.13,169.81,438.15Zm295.74-45.47c-3-7.66-5.47-14.81-8.67-21.59-3-6.28-6.55-4.09-9.87-.14a7.2,7.2,0,0,0-1.55,3.73c-.59,6.5-1,13-1.46,19.85,5.94-.44,11.12-.81,16.29-1.22C461.63,393.21,463,393,465.55,392.68Zm-150.36,50.9c-3.49-4.23-6.64-8.25-10-12.06a16.65,16.65,0,0,0-4.93-3.92c-4.67-2.29-9.08.13-8.93,4.85.28,8.35,3.48,15.85,6.89,23.6Zm4.54,89.1h31.1c-1.42-1.26-2-2.08-2.73-2.38-5.53-2.2-11.09-4.35-16.68-6.37a3,3,0,0,0-2.55.48C325.86,527,323,529.69,319.73,532.68Z" transform="translate(-106 -258.41)"/><path d="M310.4,297.2a28.64,28.64,0,0,1-7.34,18.86,19.48,19.48,0,0,0-5.51,12.7A6.33,6.33,0,0,1,291,335a6.44,6.44,0,0,1-6.09-6.75A28.28,28.28,0,0,1,292,309.46c7.67-9.1,7.64-16.38-.07-25.59a28.31,28.31,0,0,1-7-18.47c0-4.09,2.55-6.9,6.2-7a6.28,6.28,0,0,1,6.46,6.35,19,19,0,0,0,5.33,12.39A29.06,29.06,0,0,1,310.4,297.2Z" transform="translate(-106 -258.41)"/><path d="M272.12,296.68a29.28,29.28,0,0,1-7.41,19.42c-3.21,3.56-5.22,7.44-5.42,12.35-.16,4.09-3.14,6.77-6.67,6.58s-6-3-6-7.18a27.8,27.8,0,0,1,6.82-18.14c7.84-9.43,7.85-16.6.09-25.88a27.9,27.9,0,0,1-6.92-18.48c0-4,2.34-6.65,5.85-6.91a6.27,6.27,0,0,1,6.81,6.39c.19,5,2.3,9,5.58,12.65C269.71,282.89,271.89,289.42,272.12,296.68Z" transform="translate(-106 -258.41)"/><path d="M233.77,296.7c-.22,7.39-2.44,13.9-7.3,19.3A19.6,19.6,0,0,0,221,328.31c-.26,4.4-3.27,7.05-6.9,6.7s-5.89-3.27-5.75-7.78a28.38,28.38,0,0,1,7.2-18c7.35-8.57,7.36-16.54,0-25a28.21,28.21,0,0,1-7.25-18.35c-.09-4.26,2.09-7.06,5.71-7.4s6.68,2.17,7,6.61a19.55,19.55,0,0,0,5.49,12.31A28.94,28.94,0,0,1,233.77,296.7Z" transform="translate(-106 -258.41)"/></svg>