<svg id="圖層_1" data-name="圖層 1" xmlns="http://www.w3.org/2000/svg" viewBox="0 0 262.15 388.01"><title>coffee</title><path d="M379.12,334.8c16.25-6,31.89-13.85,47.36-21.74,11-5.59,15.85-18.14,13.39-30.55-2.2-11.16-11.81-20.81-23.52-21.91-6.46-.61-13.13,1-19.78,1.62,1.2-2.73,2.75-6.18,4.23-9.66,3.5-8.2.27-13.34-8.58-13.59-3.62-.1-7.24,0-11.31,0,1.52-4.72,2.8-8.52,4-12.34,2.34-7.59-1.1-12.4-9.05-12.4q-72.31-.06-144.64,0c-8.64,0-11.92,4.67-9.3,13,1.18,3.73,2.37,7.46,3.75,11.8-3.82,0-6.71,0-9.59,0-10.74.06-14,5-9.7,14.75q28,63.1,56.08,126.2c1,2.31,2,4.66,3.2,7.55H204.52v16.66h13.85c-3.49,14-6.82,27.44-10.17,40.85Q194,501.63,179.79,558.3c-3,11.78-1.6,22.64,6.34,32.3,5.14,6.26,12.29,9,19.58,11.59H401.18a5.9,5.9,0,0,1,1.32-.58c18.18-3.15,31.34-21.29,25.79-42.91-10.74-41.77-21-83.66-31.5-125.5-2.4-9.6-4.76-19.21-7.3-29.45H402V387.52h-61.2c3.85-8.69,8.25-16.48,10.79-24.84C356,348.27,365,340,379.12,334.8Zm6.56-48a3.49,3.49,0,0,1,1.72-1.56c7.46-3,14.84-6.2,22.46-8.66,5.39-1.74,11.8,2.35,13.79,7.88a12.11,12.11,0,0,1-6.28,15c-8.38,4.07-16.93,7.79-25.4,11.66L370.38,321C375.86,308.69,380.74,297.74,385.68,286.81Zm-20.28-56c-.78,7.89-1,8.13-8.51,8.13H250.53c-7.75,0-7.75,0-9.68-8.13Zm37,353.72a26.41,26.41,0,0,1-8.07,1.12q-90.42.09-180.84.08c-7.35,0-13.34-2.22-16.86-9-1.06-2.06-1.42-4.48-2.28-7.34H412.43A14.3,14.3,0,0,1,402.43,584.54ZM368,403.92c3.29,0,4.72.78,5.56,4.18Q391,478.39,408.67,548.59a37.08,37.08,0,0,1,.51,3.95H198.57c.35-1.79.56-3.32.93-4.82q17.24-69.09,34.37-138.19c1.09-4.43,2.87-5.68,7.42-5.66Q304.65,404.17,368,403.92Zm-34.49-40.81c-3.46,7.84-6.68,15.35-10.16,22.73-.43.9-2.32,1.55-3.54,1.56q-16.44.18-32.87,0c-1.24,0-3.18-.59-3.6-1.47-3.5-7.37-6.72-14.87-10.24-22.82,0,0-7.81-17.15-9.15-20.21-12.26-28-24.72-55.9-37.11-83.85-.38-.85-.66-1.74-1.26-3.34H380.89c-.47,1.45-.75,2.64-1.23,3.74-12.27,27.65-24.6,55.26-36.77,82.95C341.62,345.28,333.51,363.11,333.51,363.11Z" transform="translate(-178.35 -214.18)"/><path d="M311.3,420.91v15.68h-16V420.91Z" transform="translate(-178.35 -214.18)"/><path d="M295.52,453.8h15.61v15.83H295.52Z" transform="translate(-178.35 -214.18)"/><path d="M295.28,503.43h15.89v15.86H295.28Z" transform="translate(-178.35 -214.18)"/></svg>