<svg id="圖層_1" data-name="圖層 1" xmlns="http://www.w3.org/2000/svg" viewBox="0 0 286.47 281.56"><title>茶壺</title><path d="M166.43,224.19c2.94-12,7.44-26.16,13.82-36.53,1.5-2.44,2.79-5.14,4.75-7.15,3.84-3.92,4.4-8.46,4.3-13.65-.25-13.08-.57-26.16,2.95-39,11-40.09,49.12-68.16,90-66,43,2.28,78.09,33.05,84.39,74.9,1.74,11.51,1,23.38,1.59,35.07a12.12,12.12,0,0,0,2,6.06c27.65,39.3,31.47,80.87,9.39,123.42-14.56,28.07-39.84,41-71.18,41.65-20,.41-39.93.49-59.88,0-32.67-.84-57.54-15-73-44.44-.66-1.27-4-10.37-5.31-10.8-23.86-10.19-37.64-16.84-55-49.53-3.82-7.54-4.9-13.33-7.27-21.35-1.75-5.91.42-9.73,6.57-9.79,12.1-.12,20.39-.41,32.49-.41,3.67,0,5.59,1.78,7.28,5.19C158.14,219.46,157.31,223,166.43,224.19Zm112.29-41c-25.2,0-50.4.07-75.59-.09a7.56,7.56,0,0,0-7.09,3.6C173.6,219.2,170,253.77,185.77,289.88,196.45,314.26,216,328,242.38,329.57c23.49,1.38,47.14,1.07,70.68.24,21.95-.78,39.75-10.75,52.25-29.07,22.48-32.95,19.8-85.22-5.82-115.69a6.93,6.93,0,0,0-4.8-1.8C329.37,183.13,304.05,183.17,278.72,183.17Zm-26.11-45c3.06-16.23,11.73-24.85,25.31-25.17,13.8-.34,22.56,8,26.54,25.45,22.88-1,37.87,9.29,44,31.59h6.4c0-9,.62-17.79-.11-26.44-3.78-44.9-48-77.32-91.88-67.3-41.21,9.41-66.38,44.82-60.44,93.77,6,.73,5.85.69,7.69-4.72,4.76-14,14.34-22.85,28.82-26C243.37,138.46,248.05,138.56,252.61,138.18ZM119,216.82c5.3,24,22.09,50.38,47.41,57.15-4.64-15-3.68-24.33-2.24-39.71-11.29-2.41-13.52-7.59-18.07-16.79a2.77,2.77,0,0,0-2-1.3C136.68,216.08,126.52,216.82,119,216.82Zm215.76-46.61a24.32,24.32,0,0,0-23.17-18.78q-33.09-.28-66.18,0c-9.81.1-16.91,5.27-21.59,13.76a40,40,0,0,0-1.94,5Zm-68.93-31.88h25a11.9,11.9,0,0,0-11.27-12.49C272.1,125.32,266.61,130.14,265.85,138.33Z" transform="translate(-107.44 -61.73)"/></svg>